<ttFont>
    <TTGlyph name=".notdef" xMin="180" yMin="0" xMax="570" yMax="701">
      <contour>
        <pt x="234" y="651" on="1"/>
        <pt x="234" y="50" on="1"/>
        <pt x="516" y="50" on="1"/>
        <pt x="516" y="651" on="1"/>
      </contour>
      <contour>
        <pt x="180" y="0" on="1"/>
        <pt x="180" y="701" on="1"/>
        <pt x="570" y="701" on="1"/>
        <pt x="570" y="0" on="1"/>
      </contour>
    </TTGlyph>
    <TTGlyph name="A" xMin="5" yMin="0" xMax="484" yMax="693">
      <contour>
        <pt x="341" y="0" on="1"/>
        <pt x="312" y="160" on="1"/>
        <pt x="175" y="160" on="1"/>
        <pt x="148" y="0" on="1"/>
        <pt x="5" y="0" on="1"/>
        <pt x="141" y="693" on="1"/>
        <pt x="350" y="693" on="1"/>
        <pt x="484" y="0" on="1"/>
      </contour>
      <contour>
        <pt x="196" y="287" on="1"/>
        <pt x="290" y="287" on="1"/>
        <pt x="242" y="555" on="1"/>
      </contour>
    </TTGlyph>
    <TTGlyph name="AE" xMin="0" yMin="0" xMax="696" yMax="693">
      <contour>
        <pt x="696" y="563" on="1"/>
        <pt x="495" y="563" on="1"/>
        <pt x="495" y="416" on="1"/>
        <pt x="669" y="416" on="1"/>
        <pt x="669" y="286" on="1"/>
        <pt x="495" y="286" on="1"/>
        <pt x="495" y="130" on="1"/>
        <pt x="696" y="130" on="1"/>
        <pt x="696" y="0" on="1"/>
        <pt x="355" y="0" on="1"/>
        <pt x="355" y="160" on="1"/>
        <pt x="202" y="160" on="1"/>
        <pt x="145" y="0" on="1"/>
        <pt x="0" y="0" on="1"/>
        <pt x="266" y="693" on="1"/>
        <pt x="696" y="693" on="1"/>
      </contour>
      <contour>
        <pt x="355" y="287" on="1"/>
        <pt x="355" y="589" on="1"/>
        <pt x="247" y="287" on="1"/>
      </contour>
    </TTGlyph>
    <TTGlyph name="Aacute" xMin="5" yMin="0" xMax="484" yMax="847">
      <contour>
        <pt x="341" y="0" on="1"/>
        <pt x="312" y="160" on="1"/>
        <pt x="175" y="160" on="1"/>
        <pt x="148" y="0" on="1"/>
        <pt x="5" y="0" on="1"/>
        <pt x="141" y="693" on="1"/>
        <pt x="350" y="693" on="1"/>
        <pt x="484" y="0" on="1"/>
      </contour>
      <contour>
        <pt x="196" y="287" on="1"/>
        <pt x="290" y="287" on="1"/>
        <pt x="242" y="555" on="1"/>
      </contour>
      <contour>
        <pt x="352" y="847" on="1"/>
        <pt x="277" y="732" on="1"/>
        <pt x="198" y="732" on="1"/>
        <pt x="242" y="847" on="1"/>
      </contour>
    </TTGlyph>
    <TTGlyph name="Abreve" xMin="5" yMin="0" xMax="484" yMax="847">
      <contour>
        <pt x="341" y="0" on="1"/>
        <pt x="312" y="160" on="1"/>
        <pt x="175" y="160" on="1"/>
        <pt x="148" y="0" on="1"/>
        <pt x="5" y="0" on="1"/>
        <pt x="141" y="693" on="1"/>
        <pt x="350" y="693" on="1"/>
        <pt x="484" y="0" on="1"/>
      </contour>
      <contour>
        <pt x="196" y="287" on="1"/>
        <pt x="290" y="287" on="1"/>
        <pt x="242" y="555" on="1"/>
      </contour>
      <contour>
        <pt x="285" y="847" on="1"/>
        <pt x="362" y="847" on="1"/>
        <pt x="362" y="795" on="0"/>
        <pt x="294" y="732" on="0"/>
        <pt x="190" y="732" on="0"/>
        <pt x="122" y="796" on="0"/>
        <pt x="122" y="847" on="1"/>
        <pt x="199" y="847" on="1"/>
        <pt x="199" y="826" on="0"/>
        <pt x="221" y="800" on="0"/>
        <pt x="263" y="800" on="0"/>
        <pt x="285" y="826" on="0"/>
      </contour>
    </TTGlyph>
    <TTGlyph name="Acircumflex" xMin="5" yMin="0" xMax="484" yMax="847">
      <contour>
        <pt x="341" y="0" on="1"/>
        <pt x="312" y="160" on="1"/>
        <pt x="175" y="160" on="1"/>
        <pt x="148" y="0" on="1"/>
        <pt x="5" y="0" on="1"/>
        <pt x="141" y="693" on="1"/>
        <pt x="350" y="693" on="1"/>
        <pt x="484" y="0" on="1"/>
      </contour>
      <contour>
        <pt x="196" y="287" on="1"/>
        <pt x="290" y="287" on="1"/>
        <pt x="242" y="555" on="1"/>
      </contour>
      <contour>
        <pt x="250" y="786" on="1"/>
        <pt x="209" y="732" on="1"/>
        <pt x="136" y="732" on="1"/>
        <pt x="196" y="847" on="1"/>
        <pt x="303" y="847" on="1"/>
        <pt x="363" y="732" on="1"/>
        <pt x="290" y="732" on="1"/>
      </contour>
    </TTGlyph>
    <TTGlyph name="Adieresis" xMin="5" yMin="0" xMax="484" yMax="844">
      <contour>
        <pt x="341" y="0" on="1"/>
        <pt x="312" y="160" on="1"/>
        <pt x="175" y="160" on="1"/>
        <pt x="148" y="0" on="1"/>
        <pt x="5" y="0" on="1"/>
        <pt x="141" y="693" on="1"/>
        <pt x="350" y="693" on="1"/>
        <pt x="484" y="0" on="1"/>
      </contour>
      <contour>
        <pt x="196" y="287" on="1"/>
        <pt x="290" y="287" on="1"/>
        <pt x="242" y="555" on="1"/>
      </contour>
      <contour>
        <pt x="215" y="735" on="0"/>
        <pt x="99" y="735" on="0"/>
        <pt x="99" y="844" on="0"/>
        <pt x="215" y="844" on="0"/>
      </contour>
      <contour>
        <pt x="386" y="735" on="0"/>
        <pt x="270" y="735" on="0"/>
        <pt x="270" y="844" on="0"/>
        <pt x="386" y="844" on="0"/>
      </contour>
    </TTGlyph>
    <TTGlyph name="Agrave" xMin="5" yMin="0" xMax="484" yMax="847">
      <contour>
        <pt x="341" y="0" on="1"/>
        <pt x="312" y="160" on="1"/>
        <pt x="175" y="160" on="1"/>
        <pt x="148" y="0" on="1"/>
        <pt x="5" y="0" on="1"/>
        <pt x="141" y="693" on="1"/>
        <pt x="350" y="693" on="1"/>
        <pt x="484" y="0" on="1"/>
      </contour>
      <contour>
        <pt x="196" y="287" on="1"/>
        <pt x="290" y="287" on="1"/>
        <pt x="242" y="555" on="1"/>
      </contour>
      <contour>
        <pt x="282" y="732" on="1"/>
        <pt x="203" y="732" on="1"/>
        <pt x="128" y="847" on="1"/>
        <pt x="238" y="847" on="1"/>
      </contour>
    </TTGlyph>
    <TTGlyph name="Amacron" xMin="5" yMin="0" xMax="484" yMax="828">
      <contour>
        <pt x="341" y="0" on="1"/>
        <pt x="312" y="160" on="1"/>
        <pt x="175" y="160" on="1"/>
        <pt x="148" y="0" on="1"/>
        <pt x="5" y="0" on="1"/>
        <pt x="141" y="693" on="1"/>
        <pt x="350" y="693" on="1"/>
        <pt x="484" y="0" on="1"/>
      </contour>
      <contour>
        <pt x="196" y="287" on="1"/>
        <pt x="290" y="287" on="1"/>
        <pt x="242" y="555" on="1"/>
      </contour>
      <contour>
        <pt x="376" y="828" on="1"/>
        <pt x="376" y="751" on="1"/>
        <pt x="109" y="751" on="1"/>
        <pt x="109" y="828" on="1"/>
      </contour>
    </TTGlyph>
    <TTGlyph name="Aogonek" xMin="5" yMin="-200" xMax="485" yMax="693">
      <contour>
        <pt x="445" y="-95" on="1"/>
        <pt x="445" y="-131" on="0"/>
        <pt x="474" y="-131" on="1"/>
        <pt x="485" y="-131" on="1"/>
        <pt x="485" y="-200" on="1"/>
        <pt x="461" y="-200" on="1"/>
        <pt x="416" y="-200" on="0"/>
        <pt x="366" y="-158" on="0"/>
        <pt x="366" y="-120" on="1"/>
        <pt x="366" y="-55" on="0"/>
        <pt x="432" y="0" on="1"/>
        <pt x="341" y="0" on="1"/>
        <pt x="312" y="160" on="1"/>
        <pt x="175" y="160" on="1"/>
        <pt x="148" y="0" on="1"/>
        <pt x="5" y="0" on="1"/>
        <pt x="141" y="693" on="1"/>
        <pt x="350" y="693" on="1"/>
        <pt x="484" y="0" on="1"/>
        <pt x="485" y="0" on="1"/>
        <pt x="445" y="-42" on="0"/>
      </contour>
      <contour>
        <pt x="196" y="287" on="1"/>
        <pt x="290" y="287" on="1"/>
        <pt x="242" y="555" on="1"/>
      </contour>
    </TTGlyph>
    <TTGlyph name="Aring" xMin="5" yMin="0" xMax="484" yMax="868">
      <contour>
        <pt x="341" y="0" on="1"/>
        <pt x="312" y="160" on="1"/>
        <pt x="175" y="160" on="1"/>
        <pt x="148" y="0" on="1"/>
        <pt x="5" y="0" on="1"/>
        <pt x="141" y="693" on="1"/>
        <pt x="350" y="693" on="1"/>
        <pt x="484" y="0" on="1"/>
      </contour>
      <contour>
        <pt x="196" y="287" on="1"/>
        <pt x="290" y="287" on="1"/>
        <pt x="242" y="555" on="1"/>
      </contour>
      <contour>
        <pt x="280" y="709" on="0"/>
        <pt x="204" y="709" on="0"/>
        <pt x="161" y="755" on="0"/>
        <pt x="161" y="823" on="0"/>
        <pt x="204" y="868" on="0"/>
        <pt x="280" y="868" on="0"/>
        <pt x="323" y="823" on="0"/>
        <pt x="323" y="754" on="0"/>
      </contour>
      <contour>
        <pt x="255" y="817" on="0"/>
        <pt x="229" y="817" on="0"/>
        <pt x="214" y="801" on="0"/>
        <pt x="214" y="789" on="1"/>
        <pt x="214" y="760" on="0"/>
        <pt x="270" y="760" on="0"/>
        <pt x="270" y="789" on="1"/>
        <pt x="270" y="801" on="0"/>
      </contour>
    </TTGlyph>
    <TTGlyph name="Atilde" xMin="5" yMin="0" xMax="484" yMax="844">
      <contour>
        <pt x="341" y="0" on="1"/>
        <pt x="312" y="160" on="1"/>
        <pt x="175" y="160" on="1"/>
        <pt x="148" y="0" on="1"/>
        <pt x="5" y="0" on="1"/>
        <pt x="141" y="693" on="1"/>
        <pt x="350" y="693" on="1"/>
        <pt x="484" y="0" on="1"/>
      </contour>
      <contour>
        <pt x="196" y="287" on="1"/>
        <pt x="290" y="287" on="1"/>
        <pt x="242" y="555" on="1"/>
      </contour>
      <contour>
        <pt x="171" y="736" on="1"/>
        <pt x="171" y="733" on="1"/>
        <pt x="92" y="733" on="1"/>
        <pt x="92" y="735" on="1"/>
        <pt x="94" y="843" on="0"/>
        <pt x="181" y="843" on="1"/>
        <pt x="211" y="843" on="0"/>
        <pt x="276" y="804" on="0"/>
        <pt x="285" y="804" on="1"/>
        <pt x="306" y="804" on="0"/>
        <pt x="306" y="840" on="1"/>
        <pt x="306" y="844" on="1"/>
        <pt x="385" y="844" on="1"/>
        <pt x="385" y="839" on="1"/>
        <pt x="384" y="790" on="0"/>
        <pt x="340" y="734" on="0"/>
        <pt x="296" y="734" on="1"/>
        <pt x="269" y="734" on="0"/>
        <pt x="201" y="773" on="0"/>
        <pt x="192" y="773" on="1"/>
        <pt x="171" y="773" on="0"/>
      </contour>
    </TTGlyph>
    <TTGlyph name="B" xMin="45" yMin="0" xMax="458" yMax="693">
      <contour>
        <pt x="452" y="534" on="1"/>
        <pt x="452" y="469" on="1"/>
        <pt x="452" y="372" on="0"/>
        <pt x="381" y="350" on="1"/>
        <pt x="458" y="332" on="0"/>
        <pt x="458" y="230" on="1"/>
        <pt x="458" y="159" on="1"/>
        <pt x="458" y="0" on="0"/>
        <pt x="288" y="0" on="1"/>
        <pt x="45" y="0" on="1"/>
        <pt x="45" y="693" on="1"/>
        <pt x="282" y="693" on="1"/>
        <pt x="452" y="693" on="0"/>
      </contour>
      <contour>
        <pt x="257" y="567" on="1"/>
        <pt x="195" y="567" on="1"/>
        <pt x="195" y="416" on="1"/>
        <pt x="257" y="416" on="1"/>
        <pt x="304" y="416" on="0"/>
        <pt x="304" y="459" on="1"/>
        <pt x="304" y="524" on="1"/>
        <pt x="304" y="567" on="0"/>
      </contour>
      <contour>
        <pt x="310" y="169" on="1"/>
        <pt x="310" y="240" on="1"/>
        <pt x="310" y="283" on="0"/>
        <pt x="263" y="283" on="1"/>
        <pt x="195" y="283" on="1"/>
        <pt x="195" y="126" on="1"/>
        <pt x="263" y="126" on="1"/>
        <pt x="310" y="126" on="0"/>
      </contour>
    </TTGlyph>
    <TTGlyph name="C" xMin="35" yMin="-5" xMax="387" yMax="698">
      <contour>
        <pt x="35" y="529" on="1"/>
        <pt x="35" y="609" on="0"/>
        <pt x="146" y="698" on="0"/>
        <pt x="258" y="698" on="1"/>
        <pt x="332" y="698" on="0"/>
        <pt x="384" y="684" on="1"/>
        <pt x="384" y="546" on="1"/>
        <pt x="328" y="563" on="0"/>
        <pt x="219" y="563" on="0"/>
        <pt x="187" y="538" on="0"/>
        <pt x="187" y="514" on="1"/>
        <pt x="187" y="178" on="1"/>
        <pt x="187" y="130" on="0"/>
        <pt x="338" y="130" on="0"/>
        <pt x="387" y="145" on="1"/>
        <pt x="387" y="10" on="1"/>
        <pt x="333" y="-5" on="0"/>
        <pt x="256" y="-5" on="1"/>
        <pt x="144" y="-5" on="0"/>
        <pt x="35" y="83" on="0"/>
        <pt x="35" y="163" on="1"/>
      </contour>
    </TTGlyph>
    <TTGlyph name="Cacute" xMin="35" yMin="-5" xMax="387" yMax="847">
      <contour>
        <pt x="35" y="529" on="1"/>
        <pt x="35" y="609" on="0"/>
        <pt x="146" y="698" on="0"/>
        <pt x="258" y="698" on="1"/>
        <pt x="332" y="698" on="0"/>
        <pt x="384" y="684" on="1"/>
        <pt x="384" y="546" on="1"/>
        <pt x="328" y="563" on="0"/>
        <pt x="219" y="563" on="0"/>
        <pt x="187" y="538" on="0"/>
        <pt x="187" y="514" on="1"/>
        <pt x="187" y="178" on="1"/>
        <pt x="187" y="130" on="0"/>
        <pt x="338" y="130" on="0"/>
        <pt x="387" y="145" on="1"/>
        <pt x="387" y="10" on="1"/>
        <pt x="333" y="-5" on="0"/>
        <pt x="256" y="-5" on="1"/>
        <pt x="144" y="-5" on="0"/>
        <pt x="35" y="83" on="0"/>
        <pt x="35" y="163" on="1"/>
      </contour>
      <contour>
        <pt x="252" y="847" on="1"/>
        <pt x="362" y="847" on="1"/>
        <pt x="287" y="732" on="1"/>
        <pt x="208" y="732" on="1"/>
      </contour>
    </TTGlyph>
    <TTGlyph name="Ccaron" xMin="35" yMin="-5" xMax="387" yMax="847">
      <contour>
        <pt x="187" y="514" on="1"/>
        <pt x="187" y="178" on="1"/>
        <pt x="187" y="130" on="0"/>
        <pt x="338" y="130" on="0"/>
        <pt x="387" y="145" on="1"/>
        <pt x="387" y="10" on="1"/>
        <pt x="333" y="-5" on="0"/>
        <pt x="256" y="-5" on="1"/>
        <pt x="144" y="-5" on="0"/>
        <pt x="35" y="83" on="0"/>
        <pt x="35" y="163" on="1"/>
        <pt x="35" y="529" on="1"/>
        <pt x="35" y="609" on="0"/>
        <pt x="146" y="698" on="0"/>
        <pt x="258" y="698" on="1"/>
        <pt x="332" y="698" on="0"/>
        <pt x="384" y="684" on="1"/>
        <pt x="384" y="546" on="1"/>
        <pt x="328" y="563" on="0"/>
        <pt x="219" y="563" on="0"/>
        <pt x="187" y="538" on="0"/>
      </contour>
      <contour>
        <pt x="190" y="732" on="1"/>
        <pt x="130" y="847" on="1"/>
        <pt x="203" y="847" on="1"/>
        <pt x="244" y="793" on="1"/>
        <pt x="284" y="847" on="1"/>
        <pt x="357" y="847" on="1"/>
        <pt x="297" y="732" on="1"/>
      </contour>
    </TTGlyph>
    <TTGlyph name="Ccedilla" xMin="35" yMin="-191" xMax="387" yMax="698">
      <contour>
        <pt x="276" y="-41" on="0"/>
        <pt x="313" y="-73" on="0"/>
        <pt x="313" y="-145" on="0"/>
        <pt x="258" y="-191" on="0"/>
        <pt x="187" y="-191" on="0"/>
        <pt x="160" y="-185" on="1"/>
        <pt x="160" y="-119" on="1"/>
        <pt x="172" y="-124" on="0"/>
        <pt x="226" y="-124" on="0"/>
        <pt x="226" y="-79" on="0"/>
        <pt x="194" y="-77" on="1"/>
        <pt x="183" y="-77" on="1"/>
        <pt x="199" y="-2" on="1"/>
        <pt x="35" y="20" on="0"/>
        <pt x="35" y="163" on="1"/>
        <pt x="35" y="529" on="1"/>
        <pt x="35" y="609" on="0"/>
        <pt x="146" y="698" on="0"/>
        <pt x="258" y="698" on="1"/>
        <pt x="332" y="698" on="0"/>
        <pt x="384" y="684" on="1"/>
        <pt x="384" y="546" on="1"/>
        <pt x="328" y="563" on="0"/>
        <pt x="219" y="563" on="0"/>
        <pt x="187" y="538" on="0"/>
        <pt x="187" y="514" on="1"/>
        <pt x="187" y="178" on="1"/>
        <pt x="187" y="130" on="0"/>
        <pt x="338" y="130" on="0"/>
        <pt x="387" y="145" on="1"/>
        <pt x="387" y="10" on="1"/>
        <pt x="340" y="-3" on="0"/>
        <pt x="263" y="-5" on="1"/>
        <pt x="255" y="-39" on="1"/>
      </contour>
    </TTGlyph>
    <TTGlyph name="D" xMin="45" yMin="0" xMax="458" yMax="693">
      <contour>
        <pt x="308" y="533" on="1"/>
        <pt x="308" y="551" on="0"/>
        <pt x="291" y="570" on="0"/>
        <pt x="267" y="570" on="1"/>
        <pt x="195" y="570" on="1"/>
        <pt x="195" y="129" on="1"/>
        <pt x="267" y="129" on="1"/>
        <pt x="308" y="129" on="0"/>
        <pt x="308" y="175" on="1"/>
      </contour>
      <contour>
        <pt x="45" y="693" on="1"/>
        <pt x="288" y="693" on="1"/>
        <pt x="369" y="693" on="0"/>
        <pt x="458" y="615" on="0"/>
        <pt x="458" y="539" on="1"/>
        <pt x="458" y="163" on="1"/>
        <pt x="458" y="0" on="0"/>
        <pt x="297" y="0" on="1"/>
        <pt x="45" y="0" on="1"/>
      </contour>
    </TTGlyph>
    <TTGlyph name="Dcaron" xMin="45" yMin="0" xMax="458" yMax="847">
      <contour>
        <pt x="45" y="693" on="1"/>
        <pt x="288" y="693" on="1"/>
        <pt x="369" y="693" on="0"/>
        <pt x="458" y="615" on="0"/>
        <pt x="458" y="539" on="1"/>
        <pt x="458" y="163" on="1"/>
        <pt x="458" y="0" on="0"/>
        <pt x="297" y="0" on="1"/>
        <pt x="45" y="0" on="1"/>
      </contour>
      <contour>
        <pt x="308" y="175" on="1"/>
        <pt x="308" y="533" on="1"/>
        <pt x="308" y="551" on="0"/>
        <pt x="291" y="570" on="0"/>
        <pt x="267" y="570" on="1"/>
        <pt x="195" y="570" on="1"/>
        <pt x="195" y="129" on="1"/>
        <pt x="267" y="129" on="1"/>
        <pt x="308" y="129" on="0"/>
      </contour>
      <contour>
        <pt x="181" y="732" on="1"/>
        <pt x="121" y="847" on="1"/>
        <pt x="194" y="847" on="1"/>
        <pt x="235" y="793" on="1"/>
        <pt x="275" y="847" on="1"/>
        <pt x="348" y="847" on="1"/>
        <pt x="288" y="732" on="1"/>
      </contour>
    </TTGlyph>
    <TTGlyph name="Dcroat" xMin="-9" yMin="0" xMax="468" yMax="693">
      <contour>
        <pt x="55" y="693" on="1"/>
        <pt x="298" y="693" on="1"/>
        <pt x="379" y="693" on="0"/>
        <pt x="468" y="615" on="0"/>
        <pt x="468" y="539" on="1"/>
        <pt x="468" y="163" on="1"/>
        <pt x="468" y="0" on="0"/>
        <pt x="307" y="0" on="1"/>
        <pt x="55" y="0" on="1"/>
        <pt x="55" y="279" on="1"/>
        <pt x="-9" y="279" on="1"/>
        <pt x="-9" y="403" on="1"/>
        <pt x="55" y="403" on="1"/>
      </contour>
      <contour>
        <pt x="318" y="175" on="1"/>
        <pt x="318" y="533" on="1"/>
        <pt x="318" y="551" on="0"/>
        <pt x="301" y="570" on="0"/>
        <pt x="277" y="570" on="1"/>
        <pt x="205" y="570" on="1"/>
        <pt x="205" y="403" on="1"/>
        <pt x="261" y="403" on="1"/>
        <pt x="261" y="279" on="1"/>
        <pt x="205" y="279" on="1"/>
        <pt x="205" y="129" on="1"/>
        <pt x="277" y="129" on="1"/>
        <pt x="318" y="129" on="0"/>
      </contour>
    </TTGlyph>
    <TTGlyph name="E" xMin="45" yMin="0" xMax="396" yMax="693">
      <contour>
        <pt x="45" y="693" on="1"/>
        <pt x="396" y="693" on="1"/>
        <pt x="396" y="563" on="1"/>
        <pt x="195" y="563" on="1"/>
        <pt x="195" y="416" on="1"/>
        <pt x="369" y="416" on="1"/>
        <pt x="369" y="286" on="1"/>
        <pt x="195" y="286" on="1"/>
        <pt x="195" y="130" on="1"/>
        <pt x="396" y="130" on="1"/>
        <pt x="396" y="0" on="1"/>
        <pt x="45" y="0" on="1"/>
      </contour>
    </TTGlyph>
    <TTGlyph name="Eacute" xMin="45" yMin="0" xMax="396" yMax="847">
      <contour>
        <pt x="45" y="693" on="1"/>
        <pt x="396" y="693" on="1"/>
        <pt x="396" y="563" on="1"/>
        <pt x="195" y="563" on="1"/>
        <pt x="195" y="416" on="1"/>
        <pt x="369" y="416" on="1"/>
        <pt x="369" y="286" on="1"/>
        <pt x="195" y="286" on="1"/>
        <pt x="195" y="130" on="1"/>
        <pt x="396" y="130" on="1"/>
        <pt x="396" y="0" on="1"/>
        <pt x="45" y="0" on="1"/>
      </contour>
      <contour>
        <pt x="221" y="847" on="1"/>
        <pt x="331" y="847" on="1"/>
        <pt x="256" y="732" on="1"/>
        <pt x="177" y="732" on="1"/>
      </contour>
    </TTGlyph>
    <TTGlyph name="Ecaron" xMin="45" yMin="0" xMax="396" yMax="847">
      <contour>
        <pt x="396" y="563" on="1"/>
        <pt x="195" y="563" on="1"/>
        <pt x="195" y="416" on="1"/>
        <pt x="369" y="416" on="1"/>
        <pt x="369" y="286" on="1"/>
        <pt x="195" y="286" on="1"/>
        <pt x="195" y="130" on="1"/>
        <pt x="396" y="130" on="1"/>
        <pt x="396" y="0" on="1"/>
        <pt x="45" y="0" on="1"/>
        <pt x="45" y="693" on="1"/>
        <pt x="396" y="693" on="1"/>
      </contour>
      <contour>
        <pt x="162" y="732" on="1"/>
        <pt x="102" y="847" on="1"/>
        <pt x="175" y="847" on="1"/>
        <pt x="216" y="793" on="1"/>
        <pt x="256" y="847" on="1"/>
        <pt x="329" y="847" on="1"/>
        <pt x="269" y="732" on="1"/>
      </contour>
    </TTGlyph>
    <TTGlyph name="Ecircumflex" xMin="45" yMin="0" xMax="396" yMax="847">
      <contour>
        <pt x="396" y="563" on="1"/>
        <pt x="195" y="563" on="1"/>
        <pt x="195" y="416" on="1"/>
        <pt x="369" y="416" on="1"/>
        <pt x="369" y="286" on="1"/>
        <pt x="195" y="286" on="1"/>
        <pt x="195" y="130" on="1"/>
        <pt x="396" y="130" on="1"/>
        <pt x="396" y="0" on="1"/>
        <pt x="45" y="0" on="1"/>
        <pt x="45" y="693" on="1"/>
        <pt x="396" y="693" on="1"/>
      </contour>
      <contour>
        <pt x="214" y="786" on="1"/>
        <pt x="173" y="732" on="1"/>
        <pt x="100" y="732" on="1"/>
        <pt x="160" y="847" on="1"/>
        <pt x="267" y="847" on="1"/>
        <pt x="327" y="732" on="1"/>
        <pt x="254" y="732" on="1"/>
      </contour>
    </TTGlyph>
    <TTGlyph name="Edieresis" xMin="45" yMin="0" xMax="396" yMax="844">
      <contour>
        <pt x="45" y="693" on="1"/>
        <pt x="396" y="693" on="1"/>
        <pt x="396" y="563" on="1"/>
        <pt x="195" y="563" on="1"/>
        <pt x="195" y="416" on="1"/>
        <pt x="369" y="416" on="1"/>
        <pt x="369" y="286" on="1"/>
        <pt x="195" y="286" on="1"/>
        <pt x="195" y="130" on="1"/>
        <pt x="396" y="130" on="1"/>
        <pt x="396" y="0" on="1"/>
        <pt x="45" y="0" on="1"/>
      </contour>
      <contour>
        <pt x="365" y="735" on="0"/>
        <pt x="249" y="735" on="0"/>
        <pt x="249" y="844" on="0"/>
        <pt x="365" y="844" on="0"/>
      </contour>
      <contour>
        <pt x="194" y="735" on="0"/>
        <pt x="78" y="735" on="0"/>
        <pt x="78" y="844" on="0"/>
        <pt x="194" y="844" on="0"/>
      </contour>
    </TTGlyph>
    <TTGlyph name="Edotaccent" xMin="45" yMin="0" xMax="396" yMax="844">
      <contour>
        <pt x="279" y="735" on="0"/>
        <pt x="163" y="735" on="0"/>
        <pt x="163" y="844" on="0"/>
        <pt x="279" y="844" on="0"/>
      </contour>
      <contour>
        <pt x="45" y="693" on="1"/>
        <pt x="396" y="693" on="1"/>
        <pt x="396" y="563" on="1"/>
        <pt x="195" y="563" on="1"/>
        <pt x="195" y="416" on="1"/>
        <pt x="369" y="416" on="1"/>
        <pt x="369" y="286" on="1"/>
        <pt x="195" y="286" on="1"/>
        <pt x="195" y="130" on="1"/>
        <pt x="396" y="130" on="1"/>
        <pt x="396" y="0" on="1"/>
        <pt x="45" y="0" on="1"/>
      </contour>
    </TTGlyph>
    <TTGlyph name="Egrave" xMin="45" yMin="0" xMax="396" yMax="847">
      <contour>
        <pt x="108" y="847" on="1"/>
        <pt x="218" y="847" on="1"/>
        <pt x="262" y="732" on="1"/>
        <pt x="183" y="732" on="1"/>
      </contour>
      <contour>
        <pt x="45" y="693" on="1"/>
        <pt x="396" y="693" on="1"/>
        <pt x="396" y="563" on="1"/>
        <pt x="195" y="563" on="1"/>
        <pt x="195" y="416" on="1"/>
        <pt x="369" y="416" on="1"/>
        <pt x="369" y="286" on="1"/>
        <pt x="195" y="286" on="1"/>
        <pt x="195" y="130" on="1"/>
        <pt x="396" y="130" on="1"/>
        <pt x="396" y="0" on="1"/>
        <pt x="45" y="0" on="1"/>
      </contour>
    </TTGlyph>
    <TTGlyph name="Emacron" xMin="45" yMin="0" xMax="396" yMax="828">
      <contour>
        <pt x="82" y="828" on="1"/>
        <pt x="349" y="828" on="1"/>
        <pt x="349" y="751" on="1"/>
        <pt x="82" y="751" on="1"/>
      </contour>
      <contour>
        <pt x="45" y="693" on="1"/>
        <pt x="396" y="693" on="1"/>
        <pt x="396" y="563" on="1"/>
        <pt x="195" y="563" on="1"/>
        <pt x="195" y="416" on="1"/>
        <pt x="369" y="416" on="1"/>
        <pt x="369" y="286" on="1"/>
        <pt x="195" y="286" on="1"/>
        <pt x="195" y="130" on="1"/>
        <pt x="396" y="130" on="1"/>
        <pt x="396" y="0" on="1"/>
        <pt x="45" y="0" on="1"/>
      </contour>
    </TTGlyph>
    <TTGlyph name="Eogonek" xMin="45" yMin="-200" xMax="396" yMax="693">
      <contour>
        <pt x="396" y="563" on="1"/>
        <pt x="195" y="563" on="1"/>
        <pt x="195" y="416" on="1"/>
        <pt x="369" y="416" on="1"/>
        <pt x="369" y="286" on="1"/>
        <pt x="195" y="286" on="1"/>
        <pt x="195" y="130" on="1"/>
        <pt x="396" y="130" on="1"/>
        <pt x="396" y="0" on="1"/>
        <pt x="356" y="-42" on="0"/>
        <pt x="356" y="-95" on="1"/>
        <pt x="356" y="-131" on="0"/>
        <pt x="385" y="-131" on="1"/>
        <pt x="396" y="-131" on="1"/>
        <pt x="396" y="-200" on="1"/>
        <pt x="372" y="-200" on="1"/>
        <pt x="327" y="-200" on="0"/>
        <pt x="277" y="-158" on="0"/>
        <pt x="277" y="-120" on="1"/>
        <pt x="277" y="-55" on="0"/>
        <pt x="343" y="0" on="1"/>
        <pt x="45" y="0" on="1"/>
        <pt x="45" y="693" on="1"/>
        <pt x="396" y="693" on="1"/>
      </contour>
    </TTGlyph>
    <TTGlyph name="Eth" xMin="-9" yMin="0" xMax="468" yMax="693">
      <contour>
        <pt x="55" y="693" on="1"/>
        <pt x="298" y="693" on="1"/>
        <pt x="379" y="693" on="0"/>
        <pt x="468" y="615" on="0"/>
        <pt x="468" y="539" on="1"/>
        <pt x="468" y="163" on="1"/>
        <pt x="468" y="0" on="0"/>
        <pt x="307" y="0" on="1"/>
        <pt x="55" y="0" on="1"/>
        <pt x="55" y="279" on="1"/>
        <pt x="-9" y="279" on="1"/>
        <pt x="-9" y="403" on="1"/>
        <pt x="55" y="403" on="1"/>
      </contour>
      <contour>
        <pt x="318" y="175" on="1"/>
        <pt x="318" y="533" on="1"/>
        <pt x="318" y="551" on="0"/>
        <pt x="301" y="570" on="0"/>
        <pt x="277" y="570" on="1"/>
        <pt x="205" y="570" on="1"/>
        <pt x="205" y="403" on="1"/>
        <pt x="261" y="403" on="1"/>
        <pt x="261" y="279" on="1"/>
        <pt x="205" y="279" on="1"/>
        <pt x="205" y="129" on="1"/>
        <pt x="277" y="129" on="1"/>
        <pt x="318" y="129" on="0"/>
      </contour>
    </TTGlyph>
    <TTGlyph name="Euro" xMin="20" yMin="-5" xMax="424" yMax="698">
      <contour>
        <pt x="224" y="231" on="1"/>
        <pt x="224" y="178" on="1"/>
        <pt x="224" y="130" on="0"/>
        <pt x="375" y="130" on="0"/>
        <pt x="424" y="145" on="1"/>
        <pt x="424" y="10" on="1"/>
        <pt x="370" y="-5" on="0"/>
        <pt x="293" y="-5" on="1"/>
        <pt x="181" y="-5" on="0"/>
        <pt x="72" y="83" on="0"/>
        <pt x="72" y="163" on="1"/>
        <pt x="72" y="231" on="1"/>
        <pt x="20" y="231" on="1"/>
        <pt x="20" y="329" on="1"/>
        <pt x="72" y="329" on="1"/>
        <pt x="72" y="369" on="1"/>
        <pt x="20" y="369" on="1"/>
        <pt x="20" y="467" on="1"/>
        <pt x="72" y="467" on="1"/>
        <pt x="72" y="529" on="1"/>
        <pt x="72" y="609" on="0"/>
        <pt x="183" y="698" on="0"/>
        <pt x="295" y="698" on="1"/>
        <pt x="368" y="698" on="0"/>
        <pt x="421" y="684" on="1"/>
        <pt x="421" y="546" on="1"/>
        <pt x="365" y="563" on="0"/>
        <pt x="256" y="563" on="0"/>
        <pt x="224" y="538" on="0"/>
        <pt x="224" y="514" on="1"/>
        <pt x="224" y="467" on="1"/>
        <pt x="324" y="467" on="1"/>
        <pt x="324" y="369" on="1"/>
        <pt x="224" y="369" on="1"/>
        <pt x="224" y="329" on="1"/>
        <pt x="324" y="329" on="1"/>
        <pt x="324" y="231" on="1"/>
      </contour>
    </TTGlyph>
    <TTGlyph name="F" xMin="45" yMin="0" xMax="388" yMax="693">
      <contour>
        <pt x="45" y="693" on="1"/>
        <pt x="388" y="693" on="1"/>
        <pt x="388" y="562" on="1"/>
        <pt x="197" y="562" on="1"/>
        <pt x="197" y="391" on="1"/>
        <pt x="373" y="391" on="1"/>
        <pt x="373" y="257" on="1"/>
        <pt x="197" y="257" on="1"/>
        <pt x="197" y="0" on="1"/>
        <pt x="45" y="0" on="1"/>
      </contour>
    </TTGlyph>
    <TTGlyph name="G" xMin="35" yMin="-5" xMax="438" yMax="698">
      <contour>
        <pt x="35" y="526" on="1"/>
        <pt x="35" y="605" on="0"/>
        <pt x="156" y="698" on="0"/>
        <pt x="268" y="698" on="1"/>
        <pt x="352" y="698" on="0"/>
        <pt x="409" y="679" on="1"/>
        <pt x="409" y="537" on="1"/>
        <pt x="349" y="560" on="0"/>
        <pt x="229" y="560" on="0"/>
        <pt x="187" y="532" on="0"/>
        <pt x="187" y="508" on="1"/>
        <pt x="187" y="179" on="1"/>
        <pt x="187" y="155" on="0"/>
        <pt x="217" y="130" on="0"/>
        <pt x="276" y="130" on="0"/>
        <pt x="292" y="138" on="1"/>
        <pt x="292" y="372" on="1"/>
        <pt x="438" y="372" on="1"/>
        <pt x="438" y="37" on="1"/>
        <pt x="360" y="-5" on="0"/>
        <pt x="146" y="-5" on="0"/>
        <pt x="35" y="83" on="0"/>
        <pt x="35" y="163" on="1"/>
      </contour>
    </TTGlyph>
    <TTGlyph name="Gbreve" xMin="35" yMin="-5" xMax="438" yMax="847">
      <contour>
        <pt x="294" y="847" on="1"/>
        <pt x="371" y="847" on="1"/>
        <pt x="371" y="795" on="0"/>
        <pt x="303" y="732" on="0"/>
        <pt x="199" y="732" on="0"/>
        <pt x="131" y="796" on="0"/>
        <pt x="131" y="847" on="1"/>
        <pt x="208" y="847" on="1"/>
        <pt x="208" y="826" on="0"/>
        <pt x="230" y="800" on="0"/>
        <pt x="272" y="800" on="0"/>
        <pt x="294" y="826" on="0"/>
      </contour>
      <contour>
        <pt x="35" y="526" on="1"/>
        <pt x="35" y="605" on="0"/>
        <pt x="156" y="698" on="0"/>
        <pt x="268" y="698" on="1"/>
        <pt x="352" y="698" on="0"/>
        <pt x="409" y="679" on="1"/>
        <pt x="409" y="537" on="1"/>
        <pt x="349" y="560" on="0"/>
        <pt x="229" y="560" on="0"/>
        <pt x="187" y="532" on="0"/>
        <pt x="187" y="508" on="1"/>
        <pt x="187" y="179" on="1"/>
        <pt x="187" y="155" on="0"/>
        <pt x="217" y="130" on="0"/>
        <pt x="276" y="130" on="0"/>
        <pt x="292" y="138" on="1"/>
        <pt x="292" y="372" on="1"/>
        <pt x="438" y="372" on="1"/>
        <pt x="438" y="37" on="1"/>
        <pt x="360" y="-5" on="0"/>
        <pt x="146" y="-5" on="0"/>
        <pt x="35" y="83" on="0"/>
        <pt x="35" y="163" on="1"/>
      </contour>
    </TTGlyph>
    <TTGlyph name="H" xMin="45" yMin="0" xMax="487" yMax="693">
      <contour>
        <pt x="335" y="693" on="1"/>
        <pt x="487" y="693" on="1"/>
        <pt x="487" y="0" on="1"/>
        <pt x="335" y="0" on="1"/>
        <pt x="335" y="274" on="1"/>
        <pt x="197" y="274" on="1"/>
        <pt x="197" y="0" on="1"/>
        <pt x="45" y="0" on="1"/>
        <pt x="45" y="693" on="1"/>
        <pt x="197" y="693" on="1"/>
        <pt x="197" y="408" on="1"/>
        <pt x="335" y="408" on="1"/>
      </contour>
    </TTGlyph>
    <TTGlyph name="I" xMin="45" yMin="0" xMax="197" yMax="693">
      <contour>
        <pt x="45" y="693" on="1"/>
        <pt x="197" y="693" on="1"/>
        <pt x="197" y="0" on="1"/>
        <pt x="45" y="0" on="1"/>
      </contour>
    </TTGlyph>
    <TTGlyph name="Iacute" xMin="45" yMin="0" xMax="396" yMax="847">
      <contour>
        <pt x="45" y="693" on="1"/>
        <pt x="396" y="693" on="1"/>
        <pt x="396" y="563" on="1"/>
        <pt x="195" y="563" on="1"/>
        <pt x="195" y="416" on="1"/>
        <pt x="369" y="416" on="1"/>
        <pt x="369" y="286" on="1"/>
        <pt x="195" y="286" on="1"/>
        <pt x="195" y="130" on="1"/>
        <pt x="396" y="130" on="1"/>
        <pt x="396" y="0" on="1"/>
        <pt x="45" y="0" on="1"/>
      </contour>
      <contour>
        <pt x="222" y="847" on="1"/>
        <pt x="332" y="847" on="1"/>
        <pt x="257" y="732" on="1"/>
        <pt x="178" y="732" on="1"/>
      </contour>
    </TTGlyph>
    <TTGlyph name="Icircumflex" xMin="7" yMin="0" xMax="234" yMax="847">
      <contour>
        <pt x="45" y="0" on="1"/>
        <pt x="45" y="693" on="1"/>
        <pt x="197" y="693" on="1"/>
        <pt x="197" y="0" on="1"/>
      </contour>
      <contour>
        <pt x="121" y="786" on="1"/>
        <pt x="80" y="732" on="1"/>
        <pt x="7" y="732" on="1"/>
        <pt x="67" y="847" on="1"/>
        <pt x="174" y="847" on="1"/>
        <pt x="234" y="732" on="1"/>
        <pt x="161" y="732" on="1"/>
      </contour>
    </TTGlyph>
    <TTGlyph name="Idieresis" xMin="-23" yMin="0" xMax="264" yMax="844">
      <contour>
        <pt x="264" y="735" on="0"/>
        <pt x="148" y="735" on="0"/>
        <pt x="148" y="844" on="0"/>
        <pt x="264" y="844" on="0"/>
      </contour>
      <contour>
        <pt x="93" y="735" on="0"/>
        <pt x="-23" y="735" on="0"/>
        <pt x="-23" y="844" on="0"/>
        <pt x="93" y="844" on="0"/>
      </contour>
      <contour>
        <pt x="45" y="693" on="1"/>
        <pt x="197" y="693" on="1"/>
        <pt x="197" y="0" on="1"/>
        <pt x="45" y="0" on="1"/>
      </contour>
    </TTGlyph>
    <TTGlyph name="Idotaccent" xMin="45" yMin="0" xMax="197" yMax="844">
      <contour>
        <pt x="177" y="735" on="0"/>
        <pt x="61" y="735" on="0"/>
        <pt x="61" y="844" on="0"/>
        <pt x="177" y="844" on="0"/>
      </contour>
      <contour>
        <pt x="45" y="693" on="1"/>
        <pt x="197" y="693" on="1"/>
        <pt x="197" y="0" on="1"/>
        <pt x="45" y="0" on="1"/>
      </contour>
    </TTGlyph>
    <TTGlyph name="Igrave" xMin="45" yMin="0" xMax="396" yMax="847">
      <contour>
        <pt x="105" y="847" on="1"/>
        <pt x="215" y="847" on="1"/>
        <pt x="259" y="732" on="1"/>
        <pt x="180" y="732" on="1"/>
      </contour>
      <contour>
        <pt x="45" y="693" on="1"/>
        <pt x="396" y="693" on="1"/>
        <pt x="396" y="563" on="1"/>
        <pt x="195" y="563" on="1"/>
        <pt x="195" y="416" on="1"/>
        <pt x="369" y="416" on="1"/>
        <pt x="369" y="286" on="1"/>
        <pt x="195" y="286" on="1"/>
        <pt x="195" y="130" on="1"/>
        <pt x="396" y="130" on="1"/>
        <pt x="396" y="0" on="1"/>
        <pt x="45" y="0" on="1"/>
      </contour>
    </TTGlyph>
    <TTGlyph name="Imacron" xMin="-9" yMin="0" xMax="258" yMax="828">
      <contour>
        <pt x="-9" y="828" on="1"/>
        <pt x="258" y="828" on="1"/>
        <pt x="258" y="751" on="1"/>
        <pt x="-9" y="751" on="1"/>
      </contour>
      <contour>
        <pt x="45" y="693" on="1"/>
        <pt x="197" y="693" on="1"/>
        <pt x="197" y="0" on="1"/>
        <pt x="45" y="0" on="1"/>
      </contour>
    </TTGlyph>
    <TTGlyph name="Iogonek" xMin="45" yMin="-200" xMax="197" yMax="693">
      <contour>
        <pt x="197" y="693" on="1"/>
        <pt x="197" y="0" on="1"/>
        <pt x="157" y="-42" on="0"/>
        <pt x="157" y="-95" on="1"/>
        <pt x="157" y="-131" on="0"/>
        <pt x="186" y="-131" on="1"/>
        <pt x="197" y="-131" on="1"/>
        <pt x="197" y="-200" on="1"/>
        <pt x="173" y="-200" on="1"/>
        <pt x="128" y="-200" on="0"/>
        <pt x="78" y="-158" on="0"/>
        <pt x="78" y="-120" on="1"/>
        <pt x="78" y="-55" on="0"/>
        <pt x="144" y="0" on="1"/>
        <pt x="45" y="0" on="1"/>
        <pt x="45" y="693" on="1"/>
      </contour>
    </TTGlyph>
    <TTGlyph name="J" xMin="-23" yMin="-149" xMax="202" yMax="693">
      <contour>
        <pt x="50" y="693" on="1"/>
        <pt x="202" y="693" on="1"/>
        <pt x="202" y="208" on="1"/>
        <pt x="202" y="126" on="0"/>
        <pt x="188" y="25" on="0"/>
        <pt x="167" y="-46" on="1"/>
        <pt x="136" y="-149" on="1"/>
        <pt x="-23" y="-149" on="1"/>
        <pt x="7" y="-46" on="1"/>
        <pt x="50" y="101" on="0"/>
        <pt x="50" y="207" on="1"/>
      </contour>
    </TTGlyph>
    <TTGlyph name="K" xMin="45" yMin="0" xMax="481" yMax="693">
      <contour>
        <pt x="195" y="0" on="1"/>
        <pt x="45" y="0" on="1"/>
        <pt x="45" y="693" on="1"/>
        <pt x="195" y="693" on="1"/>
        <pt x="195" y="381" on="1"/>
        <pt x="309" y="693" on="1"/>
        <pt x="469" y="693" on="1"/>
        <pt x="342" y="358" on="1"/>
        <pt x="481" y="0" on="1"/>
        <pt x="314" y="0" on="1"/>
        <pt x="195" y="331" on="1"/>
      </contour>
    </TTGlyph>
    <TTGlyph name="L" xMin="45" yMin="0" xMax="382" yMax="693">
      <contour>
        <pt x="45" y="693" on="1"/>
        <pt x="197" y="693" on="1"/>
        <pt x="197" y="126" on="1"/>
        <pt x="382" y="126" on="1"/>
        <pt x="382" y="0" on="1"/>
        <pt x="45" y="0" on="1"/>
      </contour>
    </TTGlyph>
    <TTGlyph name="Lacute" xMin="45" yMin="0" xMax="382" yMax="847">
      <contour>
        <pt x="45" y="693" on="1"/>
        <pt x="197" y="693" on="1"/>
        <pt x="197" y="126" on="1"/>
        <pt x="382" y="126" on="1"/>
        <pt x="382" y="0" on="1"/>
        <pt x="45" y="0" on="1"/>
      </contour>
      <contour>
        <pt x="122" y="847" on="1"/>
        <pt x="232" y="847" on="1"/>
        <pt x="157" y="732" on="1"/>
        <pt x="78" y="732" on="1"/>
      </contour>
    </TTGlyph>
    <TTGlyph name="Lcaron" xMin="2" yMin="0" xMax="382" yMax="847">
      <contour>
        <pt x="197" y="126" on="1"/>
        <pt x="382" y="126" on="1"/>
        <pt x="382" y="0" on="1"/>
        <pt x="45" y="0" on="1"/>
        <pt x="45" y="693" on="1"/>
        <pt x="197" y="693" on="1"/>
      </contour>
      <contour>
        <pt x="62" y="732" on="1"/>
        <pt x="2" y="847" on="1"/>
        <pt x="75" y="847" on="1"/>
        <pt x="116" y="793" on="1"/>
        <pt x="156" y="847" on="1"/>
        <pt x="229" y="847" on="1"/>
        <pt x="169" y="732" on="1"/>
      </contour>
    </TTGlyph>
    <TTGlyph name="Lslash" xMin="0" yMin="0" xMax="392" yMax="693">
      <contour>
        <pt x="207" y="126" on="1"/>
        <pt x="392" y="126" on="1"/>
        <pt x="392" y="0" on="1"/>
        <pt x="55" y="0" on="1"/>
        <pt x="55" y="264" on="1"/>
        <pt x="0" y="241" on="1"/>
        <pt x="0" y="341" on="1"/>
        <pt x="55" y="364" on="1"/>
        <pt x="55" y="693" on="1"/>
        <pt x="207" y="693" on="1"/>
        <pt x="207" y="426" on="1"/>
        <pt x="293" y="461" on="1"/>
        <pt x="293" y="361" on="1"/>
        <pt x="207" y="326" on="1"/>
      </contour>
    </TTGlyph>
    <TTGlyph name="M" xMin="45" yMin="0" xMax="604" yMax="693">
      <contour>
        <pt x="604" y="693" on="1"/>
        <pt x="604" y="0" on="1"/>
        <pt x="459" y="0" on="1"/>
        <pt x="459" y="241" on="1"/>
        <pt x="459" y="345" on="0"/>
        <pt x="478" y="446" on="1"/>
        <pt x="382" y="176" on="1"/>
        <pt x="266" y="176" on="1"/>
        <pt x="170" y="446" on="1"/>
        <pt x="189" y="353" on="0"/>
        <pt x="189" y="241" on="1"/>
        <pt x="189" y="0" on="1"/>
        <pt x="45" y="0" on="1"/>
        <pt x="45" y="693" on="1"/>
        <pt x="199" y="693" on="1"/>
        <pt x="324" y="339" on="1"/>
        <pt x="449" y="693" on="1"/>
      </contour>
    </TTGlyph>
    <TTGlyph name="N" xMin="45" yMin="0" xMax="487" yMax="693">
      <contour>
        <pt x="339" y="693" on="1"/>
        <pt x="487" y="693" on="1"/>
        <pt x="487" y="0" on="1"/>
        <pt x="343" y="0" on="1"/>
        <pt x="195" y="378" on="0"/>
        <pt x="172" y="456" on="1"/>
        <pt x="193" y="377" on="0"/>
        <pt x="193" y="184" on="1"/>
        <pt x="193" y="0" on="1"/>
        <pt x="45" y="0" on="1"/>
        <pt x="45" y="693" on="1"/>
        <pt x="193" y="693" on="1"/>
        <pt x="284" y="461" on="1"/>
        <pt x="342" y="312" on="0"/>
        <pt x="362" y="235" on="1"/>
        <pt x="339" y="332" on="0"/>
        <pt x="339" y="519" on="1"/>
      </contour>
    </TTGlyph>
    <TTGlyph name="Nacute" xMin="45" yMin="0" xMax="487" yMax="847">
      <contour>
        <pt x="339" y="693" on="1"/>
        <pt x="487" y="693" on="1"/>
        <pt x="487" y="0" on="1"/>
        <pt x="343" y="0" on="1"/>
        <pt x="195" y="378" on="0"/>
        <pt x="172" y="456" on="1"/>
        <pt x="193" y="377" on="0"/>
        <pt x="193" y="184" on="1"/>
        <pt x="193" y="0" on="1"/>
        <pt x="45" y="0" on="1"/>
        <pt x="45" y="693" on="1"/>
        <pt x="193" y="693" on="1"/>
        <pt x="284" y="461" on="1"/>
        <pt x="342" y="312" on="0"/>
        <pt x="362" y="235" on="1"/>
        <pt x="339" y="332" on="0"/>
        <pt x="339" y="519" on="1"/>
      </contour>
      <contour>
        <pt x="365" y="847" on="1"/>
        <pt x="290" y="732" on="1"/>
        <pt x="211" y="732" on="1"/>
        <pt x="255" y="847" on="1"/>
      </contour>
    </TTGlyph>
    <TTGlyph name="Ncaron" xMin="45" yMin="0" xMax="487" yMax="847">
      <contour>
        <pt x="339" y="693" on="1"/>
        <pt x="487" y="693" on="1"/>
        <pt x="487" y="0" on="1"/>
        <pt x="343" y="0" on="1"/>
        <pt x="195" y="378" on="0"/>
        <pt x="172" y="456" on="1"/>
        <pt x="193" y="377" on="0"/>
        <pt x="193" y="184" on="1"/>
        <pt x="193" y="0" on="1"/>
        <pt x="45" y="0" on="1"/>
        <pt x="45" y="693" on="1"/>
        <pt x="193" y="693" on="1"/>
        <pt x="284" y="461" on="1"/>
        <pt x="342" y="312" on="0"/>
        <pt x="362" y="235" on="1"/>
        <pt x="339" y="332" on="0"/>
        <pt x="339" y="519" on="1"/>
      </contour>
      <contour>
        <pt x="204" y="732" on="1"/>
        <pt x="144" y="847" on="1"/>
        <pt x="217" y="847" on="1"/>
        <pt x="258" y="793" on="1"/>
        <pt x="298" y="847" on="1"/>
        <pt x="371" y="847" on="1"/>
        <pt x="311" y="732" on="1"/>
      </contour>
    </TTGlyph>
    <TTGlyph name="Ntilde" xMin="45" yMin="0" xMax="487" yMax="844">
      <contour>
        <pt x="339" y="693" on="1"/>
        <pt x="487" y="693" on="1"/>
        <pt x="487" y="0" on="1"/>
        <pt x="343" y="0" on="1"/>
        <pt x="195" y="378" on="0"/>
        <pt x="172" y="456" on="1"/>
        <pt x="193" y="377" on="0"/>
        <pt x="193" y="184" on="1"/>
        <pt x="193" y="0" on="1"/>
        <pt x="45" y="0" on="1"/>
        <pt x="45" y="693" on="1"/>
        <pt x="193" y="693" on="1"/>
        <pt x="284" y="461" on="1"/>
        <pt x="342" y="312" on="0"/>
        <pt x="362" y="235" on="1"/>
        <pt x="339" y="332" on="0"/>
        <pt x="339" y="519" on="1"/>
      </contour>
      <contour>
        <pt x="204" y="736" on="1"/>
        <pt x="204" y="733" on="1"/>
        <pt x="125" y="733" on="1"/>
        <pt x="125" y="735" on="1"/>
        <pt x="127" y="843" on="0"/>
        <pt x="214" y="843" on="1"/>
        <pt x="244" y="843" on="0"/>
        <pt x="310" y="804" on="0"/>
        <pt x="318" y="804" on="1"/>
        <pt x="339" y="804" on="0"/>
        <pt x="339" y="840" on="1"/>
        <pt x="339" y="844" on="1"/>
        <pt x="418" y="844" on="1"/>
        <pt x="418" y="839" on="1"/>
        <pt x="417" y="790" on="0"/>
        <pt x="373" y="734" on="0"/>
        <pt x="329" y="734" on="1"/>
        <pt x="302" y="734" on="0"/>
        <pt x="234" y="773" on="0"/>
        <pt x="225" y="773" on="1"/>
        <pt x="204" y="773" on="0"/>
      </contour>
    </TTGlyph>
    <TTGlyph name="O" xMin="35" yMin="-10" xMax="454" yMax="703">
      <contour>
        <pt x="304" y="516" on="1"/>
        <pt x="304" y="566" on="0"/>
        <pt x="185" y="566" on="0"/>
        <pt x="185" y="516" on="1"/>
        <pt x="185" y="177" on="1"/>
        <pt x="185" y="127" on="0"/>
        <pt x="304" y="127" on="0"/>
        <pt x="304" y="177" on="1"/>
      </contour>
      <contour>
        <pt x="35" y="524" on="1"/>
        <pt x="35" y="606" on="0"/>
        <pt x="141" y="703" on="0"/>
        <pt x="347" y="703" on="0"/>
        <pt x="454" y="606" on="0"/>
        <pt x="454" y="524" on="1"/>
        <pt x="454" y="169" on="1"/>
        <pt x="454" y="87" on="0"/>
        <pt x="347" y="-10" on="0"/>
        <pt x="141" y="-10" on="0"/>
        <pt x="35" y="87" on="0"/>
        <pt x="35" y="169" on="1"/>
      </contour>
    </TTGlyph>
    <TTGlyph name="OE" xMin="55" yMin="0" xMax="685" yMax="693">
      <contour>
        <pt x="685" y="563" on="1"/>
        <pt x="484" y="563" on="1"/>
        <pt x="484" y="416" on="1"/>
        <pt x="658" y="416" on="1"/>
        <pt x="658" y="286" on="1"/>
        <pt x="484" y="286" on="1"/>
        <pt x="484" y="130" on="1"/>
        <pt x="685" y="130" on="1"/>
        <pt x="685" y="0" on="1"/>
        <pt x="216" y="0" on="1"/>
        <pt x="55" y="0" on="0"/>
        <pt x="55" y="163" on="1"/>
        <pt x="55" y="539" on="1"/>
        <pt x="55" y="615" on="0"/>
        <pt x="144" y="693" on="0"/>
        <pt x="225" y="693" on="1"/>
        <pt x="685" y="693" on="1"/>
      </contour>
      <contour>
        <pt x="246" y="129" on="1"/>
        <pt x="334" y="129" on="1"/>
        <pt x="334" y="570" on="1"/>
        <pt x="246" y="570" on="1"/>
        <pt x="222" y="570" on="0"/>
        <pt x="205" y="551" on="0"/>
        <pt x="205" y="533" on="1"/>
        <pt x="205" y="175" on="1"/>
        <pt x="205" y="129" on="0"/>
      </contour>
    </TTGlyph>
    <TTGlyph name="Oacute" xMin="35" yMin="-10" xMax="454" yMax="847">
      <contour>
        <pt x="304" y="516" on="1"/>
        <pt x="304" y="566" on="0"/>
        <pt x="185" y="566" on="0"/>
        <pt x="185" y="516" on="1"/>
        <pt x="185" y="177" on="1"/>
        <pt x="185" y="127" on="0"/>
        <pt x="304" y="127" on="0"/>
        <pt x="304" y="177" on="1"/>
      </contour>
      <contour>
        <pt x="35" y="524" on="1"/>
        <pt x="35" y="606" on="0"/>
        <pt x="141" y="703" on="0"/>
        <pt x="347" y="703" on="0"/>
        <pt x="454" y="606" on="0"/>
        <pt x="454" y="524" on="1"/>
        <pt x="454" y="169" on="1"/>
        <pt x="454" y="87" on="0"/>
        <pt x="347" y="-10" on="0"/>
        <pt x="141" y="-10" on="0"/>
        <pt x="35" y="87" on="0"/>
        <pt x="35" y="169" on="1"/>
      </contour>
      <contour>
        <pt x="257" y="847" on="1"/>
        <pt x="367" y="847" on="1"/>
        <pt x="292" y="732" on="1"/>
        <pt x="213" y="732" on="1"/>
      </contour>
    </TTGlyph>
    <TTGlyph name="Ocircumflex" xMin="35" yMin="-10" xMax="454" yMax="847">
      <contour>
        <pt x="35" y="169" on="1"/>
        <pt x="35" y="524" on="1"/>
        <pt x="35" y="606" on="0"/>
        <pt x="141" y="703" on="0"/>
        <pt x="347" y="703" on="0"/>
        <pt x="454" y="606" on="0"/>
        <pt x="454" y="524" on="1"/>
        <pt x="454" y="169" on="1"/>
        <pt x="454" y="87" on="0"/>
        <pt x="347" y="-10" on="0"/>
        <pt x="141" y="-10" on="0"/>
        <pt x="35" y="87" on="0"/>
      </contour>
      <contour>
        <pt x="304" y="177" on="1"/>
        <pt x="304" y="516" on="1"/>
        <pt x="304" y="566" on="0"/>
        <pt x="185" y="566" on="0"/>
        <pt x="185" y="516" on="1"/>
        <pt x="185" y="177" on="1"/>
        <pt x="185" y="127" on="0"/>
        <pt x="304" y="127" on="0"/>
      </contour>
      <contour>
        <pt x="247" y="786" on="1"/>
        <pt x="206" y="732" on="1"/>
        <pt x="133" y="732" on="1"/>
        <pt x="193" y="847" on="1"/>
        <pt x="300" y="847" on="1"/>
        <pt x="360" y="732" on="1"/>
        <pt x="287" y="732" on="1"/>
      </contour>
    </TTGlyph>
    <TTGlyph name="Odieresis" xMin="35" yMin="-10" xMax="454" yMax="844">
      <contour>
        <pt x="304" y="516" on="1"/>
        <pt x="304" y="566" on="0"/>
        <pt x="185" y="566" on="0"/>
        <pt x="185" y="516" on="1"/>
        <pt x="185" y="177" on="1"/>
        <pt x="185" y="127" on="0"/>
        <pt x="304" y="127" on="0"/>
        <pt x="304" y="177" on="1"/>
      </contour>
      <contour>
        <pt x="35" y="524" on="1"/>
        <pt x="35" y="606" on="0"/>
        <pt x="141" y="703" on="0"/>
        <pt x="347" y="703" on="0"/>
        <pt x="454" y="606" on="0"/>
        <pt x="454" y="524" on="1"/>
        <pt x="454" y="169" on="1"/>
        <pt x="454" y="87" on="0"/>
        <pt x="347" y="-10" on="0"/>
        <pt x="141" y="-10" on="0"/>
        <pt x="35" y="87" on="0"/>
        <pt x="35" y="169" on="1"/>
      </contour>
      <contour>
        <pt x="388" y="735" on="0"/>
        <pt x="272" y="735" on="0"/>
        <pt x="272" y="844" on="0"/>
        <pt x="388" y="844" on="0"/>
      </contour>
      <contour>
        <pt x="217" y="735" on="0"/>
        <pt x="101" y="735" on="0"/>
        <pt x="101" y="844" on="0"/>
        <pt x="217" y="844" on="0"/>
      </contour>
    </TTGlyph>
    <TTGlyph name="Ograve" xMin="35" yMin="-10" xMax="454" yMax="847">
      <contour>
        <pt x="128" y="847" on="1"/>
        <pt x="238" y="847" on="1"/>
        <pt x="282" y="732" on="1"/>
        <pt x="203" y="732" on="1"/>
      </contour>
      <contour>
        <pt x="304" y="516" on="1"/>
        <pt x="304" y="566" on="0"/>
        <pt x="185" y="566" on="0"/>
        <pt x="185" y="516" on="1"/>
        <pt x="185" y="177" on="1"/>
        <pt x="185" y="127" on="0"/>
        <pt x="304" y="127" on="0"/>
        <pt x="304" y="177" on="1"/>
      </contour>
      <contour>
        <pt x="35" y="524" on="1"/>
        <pt x="35" y="606" on="0"/>
        <pt x="141" y="703" on="0"/>
        <pt x="347" y="703" on="0"/>
        <pt x="454" y="606" on="0"/>
        <pt x="454" y="524" on="1"/>
        <pt x="454" y="169" on="1"/>
        <pt x="454" y="87" on="0"/>
        <pt x="347" y="-10" on="0"/>
        <pt x="141" y="-10" on="0"/>
        <pt x="35" y="87" on="0"/>
        <pt x="35" y="169" on="1"/>
      </contour>
    </TTGlyph>
    <TTGlyph name="Ohungarumlaut" xMin="35" yMin="-10" xMax="454" yMax="847">
      <contour>
        <pt x="304" y="516" on="1"/>
        <pt x="304" y="566" on="0"/>
        <pt x="185" y="566" on="0"/>
        <pt x="185" y="516" on="1"/>
        <pt x="185" y="177" on="1"/>
        <pt x="185" y="127" on="0"/>
        <pt x="304" y="127" on="0"/>
        <pt x="304" y="177" on="1"/>
      </contour>
      <contour>
        <pt x="35" y="524" on="1"/>
        <pt x="35" y="606" on="0"/>
        <pt x="141" y="703" on="0"/>
        <pt x="347" y="703" on="0"/>
        <pt x="454" y="606" on="0"/>
        <pt x="454" y="524" on="1"/>
        <pt x="454" y="169" on="1"/>
        <pt x="454" y="87" on="0"/>
        <pt x="347" y="-10" on="0"/>
        <pt x="141" y="-10" on="0"/>
        <pt x="35" y="87" on="0"/>
        <pt x="35" y="169" on="1"/>
      </contour>
      <contour>
        <pt x="192" y="847" on="1"/>
        <pt x="292" y="847" on="1"/>
        <pt x="212" y="732" on="1"/>
        <pt x="143" y="732" on="1"/>
      </contour>
      <contour>
        <pt x="312" y="847" on="1"/>
        <pt x="412" y="847" on="1"/>
        <pt x="332" y="732" on="1"/>
        <pt x="263" y="732" on="1"/>
      </contour>
    </TTGlyph>
    <TTGlyph name="Omacron" xMin="35" yMin="-10" xMax="454" yMax="828">
      <contour>
        <pt x="304" y="516" on="1"/>
        <pt x="304" y="566" on="0"/>
        <pt x="185" y="566" on="0"/>
        <pt x="185" y="516" on="1"/>
        <pt x="185" y="177" on="1"/>
        <pt x="185" y="127" on="0"/>
        <pt x="304" y="127" on="0"/>
        <pt x="304" y="177" on="1"/>
      </contour>
      <contour>
        <pt x="35" y="524" on="1"/>
        <pt x="35" y="606" on="0"/>
        <pt x="141" y="703" on="0"/>
        <pt x="347" y="703" on="0"/>
        <pt x="454" y="606" on="0"/>
        <pt x="454" y="524" on="1"/>
        <pt x="454" y="169" on="1"/>
        <pt x="454" y="87" on="0"/>
        <pt x="347" y="-10" on="0"/>
        <pt x="141" y="-10" on="0"/>
        <pt x="35" y="87" on="0"/>
        <pt x="35" y="169" on="1"/>
      </contour>
      <contour>
        <pt x="112" y="828" on="1"/>
        <pt x="379" y="828" on="1"/>
        <pt x="379" y="751" on="1"/>
        <pt x="112" y="751" on="1"/>
      </contour>
    </TTGlyph>
    <TTGlyph name="Oslash" xMin="30" yMin="-10" xMax="459" yMax="703">
      <contour>
        <pt x="454" y="524" on="1"/>
        <pt x="454" y="169" on="1"/>
        <pt x="454" y="87" on="0"/>
        <pt x="347" y="-10" on="0"/>
        <pt x="244" y="-10" on="1"/>
        <pt x="175" y="-10" on="0"/>
        <pt x="126" y="13" on="1"/>
        <pt x="120" y="0" on="1"/>
        <pt x="30" y="0" on="1"/>
        <pt x="63" y="67" on="1"/>
        <pt x="35" y="108" on="0"/>
        <pt x="35" y="169" on="1"/>
        <pt x="35" y="524" on="1"/>
        <pt x="35" y="606" on="0"/>
        <pt x="141" y="703" on="0"/>
        <pt x="244" y="703" on="1"/>
        <pt x="314" y="703" on="0"/>
        <pt x="362" y="680" on="1"/>
        <pt x="369" y="693" on="1"/>
        <pt x="459" y="693" on="1"/>
        <pt x="426" y="625" on="1"/>
        <pt x="454" y="584" on="0"/>
      </contour>
      <contour>
        <pt x="185" y="516" on="1"/>
        <pt x="185" y="317" on="1"/>
        <pt x="296" y="545" on="1"/>
        <pt x="283" y="566" on="0"/>
        <pt x="244" y="566" on="1"/>
        <pt x="185" y="566" on="0"/>
      </contour>
      <contour>
        <pt x="304" y="177" on="1"/>
        <pt x="304" y="376" on="1"/>
        <pt x="192" y="148" on="1"/>
        <pt x="207" y="127" on="0"/>
        <pt x="244" y="127" on="1"/>
        <pt x="304" y="127" on="0"/>
      </contour>
    </TTGlyph>
    <TTGlyph name="Otilde" xMin="35" yMin="-10" xMax="454" yMax="844">
      <contour>
        <pt x="309" y="844" on="1"/>
        <pt x="388" y="844" on="1"/>
        <pt x="388" y="839" on="1"/>
        <pt x="387" y="790" on="0"/>
        <pt x="343" y="734" on="0"/>
        <pt x="299" y="734" on="1"/>
        <pt x="272" y="734" on="0"/>
        <pt x="204" y="773" on="0"/>
        <pt x="195" y="773" on="1"/>
        <pt x="174" y="773" on="0"/>
        <pt x="174" y="736" on="1"/>
        <pt x="174" y="733" on="1"/>
        <pt x="95" y="733" on="1"/>
        <pt x="95" y="735" on="1"/>
        <pt x="97" y="843" on="0"/>
        <pt x="184" y="843" on="1"/>
        <pt x="213" y="843" on="0"/>
        <pt x="280" y="804" on="0"/>
        <pt x="288" y="804" on="1"/>
        <pt x="309" y="804" on="0"/>
        <pt x="309" y="840" on="1"/>
      </contour>
      <contour>
        <pt x="304" y="516" on="1"/>
        <pt x="304" y="566" on="0"/>
        <pt x="185" y="566" on="0"/>
        <pt x="185" y="516" on="1"/>
        <pt x="185" y="177" on="1"/>
        <pt x="185" y="127" on="0"/>
        <pt x="304" y="127" on="0"/>
        <pt x="304" y="177" on="1"/>
      </contour>
      <contour>
        <pt x="35" y="524" on="1"/>
        <pt x="35" y="606" on="0"/>
        <pt x="141" y="703" on="0"/>
        <pt x="347" y="703" on="0"/>
        <pt x="454" y="606" on="0"/>
        <pt x="454" y="524" on="1"/>
        <pt x="454" y="169" on="1"/>
        <pt x="454" y="87" on="0"/>
        <pt x="347" y="-10" on="0"/>
        <pt x="141" y="-10" on="0"/>
        <pt x="35" y="87" on="0"/>
        <pt x="35" y="169" on="1"/>
      </contour>
    </TTGlyph>
    <TTGlyph name="P" xMin="45" yMin="0" xMax="445" yMax="693">
      <contour>
        <pt x="295" y="521" on="1"/>
        <pt x="295" y="563" on="0"/>
        <pt x="252" y="563" on="1"/>
        <pt x="196" y="563" on="1"/>
        <pt x="196" y="330" on="1"/>
        <pt x="252" y="330" on="1"/>
        <pt x="295" y="330" on="0"/>
        <pt x="295" y="372" on="1"/>
      </contour>
      <contour>
        <pt x="45" y="693" on="1"/>
        <pt x="271" y="693" on="1"/>
        <pt x="352" y="693" on="0"/>
        <pt x="445" y="615" on="0"/>
        <pt x="445" y="539" on="1"/>
        <pt x="445" y="354" on="1"/>
        <pt x="445" y="278" on="0"/>
        <pt x="352" y="200" on="0"/>
        <pt x="271" y="200" on="1"/>
        <pt x="196" y="200" on="1"/>
        <pt x="196" y="0" on="1"/>
        <pt x="45" y="0" on="1"/>
      </contour>
    </TTGlyph>
    <TTGlyph name="Q" xMin="35" yMin="-87" xMax="508" yMax="703">
      <contour>
        <pt x="244" y="-10" on="1"/>
        <pt x="141" y="-10" on="0"/>
        <pt x="35" y="87" on="0"/>
        <pt x="35" y="169" on="1"/>
        <pt x="35" y="524" on="1"/>
        <pt x="35" y="606" on="0"/>
        <pt x="141" y="703" on="0"/>
        <pt x="347" y="703" on="0"/>
        <pt x="454" y="606" on="0"/>
        <pt x="454" y="524" on="1"/>
        <pt x="454" y="169" on="1"/>
        <pt x="454" y="79" on="0"/>
        <pt x="392" y="32" on="1"/>
        <pt x="508" y="-87" on="1"/>
        <pt x="331" y="-87" on="1"/>
        <pt x="257" y="-10" on="1"/>
      </contour>
      <contour>
        <pt x="185" y="516" on="1"/>
        <pt x="185" y="177" on="1"/>
        <pt x="185" y="127" on="0"/>
        <pt x="304" y="127" on="0"/>
        <pt x="304" y="177" on="1"/>
        <pt x="304" y="516" on="1"/>
        <pt x="304" y="566" on="0"/>
        <pt x="185" y="566" on="0"/>
      </contour>
    </TTGlyph>
    <TTGlyph name="R" xMin="45" yMin="0" xMax="472" yMax="693">
      <contour>
        <pt x="195" y="250" on="1"/>
        <pt x="195" y="0" on="1"/>
        <pt x="45" y="0" on="1"/>
        <pt x="45" y="693" on="1"/>
        <pt x="271" y="693" on="1"/>
        <pt x="353" y="693" on="0"/>
        <pt x="445" y="615" on="0"/>
        <pt x="445" y="540" on="1"/>
        <pt x="445" y="412" on="1"/>
        <pt x="445" y="292" on="0"/>
        <pt x="363" y="262" on="1"/>
        <pt x="472" y="0" on="1"/>
        <pt x="307" y="0" on="1"/>
        <pt x="214" y="250" on="1"/>
      </contour>
      <contour>
        <pt x="195" y="565" on="1"/>
        <pt x="195" y="369" on="1"/>
        <pt x="254" y="369" on="1"/>
        <pt x="277" y="369" on="0"/>
        <pt x="295" y="389" on="0"/>
        <pt x="295" y="414" on="1"/>
        <pt x="295" y="527" on="1"/>
        <pt x="295" y="549" on="0"/>
        <pt x="275" y="565" on="0"/>
        <pt x="254" y="565" on="1"/>
      </contour>
    </TTGlyph>
    <TTGlyph name="Racute" xMin="45" yMin="0" xMax="472" yMax="847">
      <contour>
        <pt x="195" y="250" on="1"/>
        <pt x="195" y="0" on="1"/>
        <pt x="45" y="0" on="1"/>
        <pt x="45" y="693" on="1"/>
        <pt x="271" y="693" on="1"/>
        <pt x="353" y="693" on="0"/>
        <pt x="445" y="615" on="0"/>
        <pt x="445" y="540" on="1"/>
        <pt x="445" y="412" on="1"/>
        <pt x="445" y="292" on="0"/>
        <pt x="363" y="262" on="1"/>
        <pt x="472" y="0" on="1"/>
        <pt x="307" y="0" on="1"/>
        <pt x="214" y="250" on="1"/>
      </contour>
      <contour>
        <pt x="195" y="565" on="1"/>
        <pt x="195" y="369" on="1"/>
        <pt x="254" y="369" on="1"/>
        <pt x="277" y="369" on="0"/>
        <pt x="295" y="389" on="0"/>
        <pt x="295" y="414" on="1"/>
        <pt x="295" y="527" on="1"/>
        <pt x="295" y="549" on="0"/>
        <pt x="275" y="565" on="0"/>
        <pt x="254" y="565" on="1"/>
      </contour>
      <contour>
        <pt x="339" y="847" on="1"/>
        <pt x="264" y="732" on="1"/>
        <pt x="185" y="732" on="1"/>
        <pt x="229" y="847" on="1"/>
      </contour>
    </TTGlyph>
    <TTGlyph name="Rcaron" xMin="45" yMin="0" xMax="472" yMax="847">
      <contour>
        <pt x="195" y="250" on="1"/>
        <pt x="195" y="0" on="1"/>
        <pt x="45" y="0" on="1"/>
        <pt x="45" y="693" on="1"/>
        <pt x="271" y="693" on="1"/>
        <pt x="353" y="693" on="0"/>
        <pt x="445" y="615" on="0"/>
        <pt x="445" y="540" on="1"/>
        <pt x="445" y="412" on="1"/>
        <pt x="445" y="292" on="0"/>
        <pt x="363" y="262" on="1"/>
        <pt x="472" y="0" on="1"/>
        <pt x="307" y="0" on="1"/>
        <pt x="214" y="250" on="1"/>
      </contour>
      <contour>
        <pt x="195" y="565" on="1"/>
        <pt x="195" y="369" on="1"/>
        <pt x="254" y="369" on="1"/>
        <pt x="277" y="369" on="0"/>
        <pt x="295" y="389" on="0"/>
        <pt x="295" y="414" on="1"/>
        <pt x="295" y="527" on="1"/>
        <pt x="295" y="549" on="0"/>
        <pt x="275" y="565" on="0"/>
        <pt x="254" y="565" on="1"/>
      </contour>
      <contour>
        <pt x="172" y="732" on="1"/>
        <pt x="112" y="847" on="1"/>
        <pt x="185" y="847" on="1"/>
        <pt x="226" y="793" on="1"/>
        <pt x="266" y="847" on="1"/>
        <pt x="339" y="847" on="1"/>
        <pt x="279" y="732" on="1"/>
      </contour>
    </TTGlyph>
    <TTGlyph name="S" xMin="20" yMin="-5" xMax="421" yMax="698">
      <contour>
        <pt x="20" y="531" on="1"/>
        <pt x="20" y="611" on="0"/>
        <pt x="128" y="698" on="0"/>
        <pt x="331" y="698" on="0"/>
        <pt x="381" y="677" on="1"/>
        <pt x="381" y="533" on="1"/>
        <pt x="320" y="559" on="0"/>
        <pt x="242" y="559" on="1"/>
        <pt x="202" y="559" on="0"/>
        <pt x="174" y="534" on="0"/>
        <pt x="174" y="511" on="1"/>
        <pt x="174" y="496" on="1"/>
        <pt x="174" y="468" on="0"/>
        <pt x="193" y="441" on="0"/>
        <pt x="225" y="424" on="1"/>
        <pt x="339" y="360" on="1"/>
        <pt x="421" y="315" on="0"/>
        <pt x="421" y="225" on="1"/>
        <pt x="421" y="163" on="1"/>
        <pt x="421" y="82" on="0"/>
        <pt x="301" y="-5" on="0"/>
        <pt x="84" y="-5" on="0"/>
        <pt x="29" y="18" on="1"/>
        <pt x="29" y="163" on="1"/>
        <pt x="97" y="134" on="0"/>
        <pt x="269" y="134" on="0"/>
        <pt x="269" y="183" on="1"/>
        <pt x="269" y="198" on="1"/>
        <pt x="269" y="221" on="0"/>
        <pt x="250" y="244" on="0"/>
        <pt x="224" y="258" on="1"/>
        <pt x="117" y="316" on="1"/>
        <pt x="20" y="370" on="0"/>
        <pt x="20" y="468" on="1"/>
      </contour>
    </TTGlyph>
    <TTGlyph name="Sacute" xMin="20" yMin="-5" xMax="421" yMax="847">
      <contour>
        <pt x="20" y="531" on="1"/>
        <pt x="20" y="611" on="0"/>
        <pt x="128" y="698" on="0"/>
        <pt x="331" y="698" on="0"/>
        <pt x="381" y="677" on="1"/>
        <pt x="381" y="533" on="1"/>
        <pt x="320" y="559" on="0"/>
        <pt x="242" y="559" on="1"/>
        <pt x="202" y="559" on="0"/>
        <pt x="174" y="534" on="0"/>
        <pt x="174" y="511" on="1"/>
        <pt x="174" y="496" on="1"/>
        <pt x="174" y="468" on="0"/>
        <pt x="193" y="441" on="0"/>
        <pt x="225" y="424" on="1"/>
        <pt x="339" y="360" on="1"/>
        <pt x="421" y="315" on="0"/>
        <pt x="421" y="225" on="1"/>
        <pt x="421" y="163" on="1"/>
        <pt x="421" y="82" on="0"/>
        <pt x="301" y="-5" on="0"/>
        <pt x="84" y="-5" on="0"/>
        <pt x="29" y="18" on="1"/>
        <pt x="29" y="163" on="1"/>
        <pt x="97" y="134" on="0"/>
        <pt x="269" y="134" on="0"/>
        <pt x="269" y="183" on="1"/>
        <pt x="269" y="198" on="1"/>
        <pt x="269" y="221" on="0"/>
        <pt x="250" y="244" on="0"/>
        <pt x="224" y="258" on="1"/>
        <pt x="117" y="316" on="1"/>
        <pt x="20" y="370" on="0"/>
        <pt x="20" y="468" on="1"/>
      </contour>
      <contour>
        <pt x="226" y="847" on="1"/>
        <pt x="336" y="847" on="1"/>
        <pt x="261" y="732" on="1"/>
        <pt x="182" y="732" on="1"/>
      </contour>
    </TTGlyph>
    <TTGlyph name="Scaron" xMin="20" yMin="-5" xMax="421" yMax="847">
      <contour>
        <pt x="421" y="225" on="1"/>
        <pt x="421" y="163" on="1"/>
        <pt x="421" y="82" on="0"/>
        <pt x="301" y="-5" on="0"/>
        <pt x="84" y="-5" on="0"/>
        <pt x="29" y="18" on="1"/>
        <pt x="29" y="163" on="1"/>
        <pt x="97" y="134" on="0"/>
        <pt x="269" y="134" on="0"/>
        <pt x="269" y="183" on="1"/>
        <pt x="269" y="198" on="1"/>
        <pt x="269" y="221" on="0"/>
        <pt x="250" y="244" on="0"/>
        <pt x="224" y="258" on="1"/>
        <pt x="117" y="316" on="1"/>
        <pt x="20" y="370" on="0"/>
        <pt x="20" y="468" on="1"/>
        <pt x="20" y="531" on="1"/>
        <pt x="20" y="611" on="0"/>
        <pt x="128" y="698" on="0"/>
        <pt x="331" y="698" on="0"/>
        <pt x="381" y="677" on="1"/>
        <pt x="381" y="533" on="1"/>
        <pt x="320" y="559" on="0"/>
        <pt x="242" y="559" on="1"/>
        <pt x="202" y="559" on="0"/>
        <pt x="174" y="534" on="0"/>
        <pt x="174" y="511" on="1"/>
        <pt x="174" y="496" on="1"/>
        <pt x="174" y="468" on="0"/>
        <pt x="193" y="441" on="0"/>
        <pt x="225" y="424" on="1"/>
        <pt x="339" y="360" on="1"/>
        <pt x="421" y="315" on="0"/>
      </contour>
      <contour>
        <pt x="161" y="732" on="1"/>
        <pt x="101" y="847" on="1"/>
        <pt x="174" y="847" on="1"/>
        <pt x="215" y="793" on="1"/>
        <pt x="255" y="847" on="1"/>
        <pt x="328" y="847" on="1"/>
        <pt x="268" y="732" on="1"/>
      </contour>
    </TTGlyph>
    <TTGlyph name="T" xMin="5" yMin="0" xMax="407" yMax="693">
      <contour>
        <pt x="407" y="693" on="1"/>
        <pt x="407" y="563" on="1"/>
        <pt x="282" y="563" on="1"/>
        <pt x="282" y="0" on="1"/>
        <pt x="130" y="0" on="1"/>
        <pt x="130" y="563" on="1"/>
        <pt x="5" y="563" on="1"/>
        <pt x="5" y="693" on="1"/>
      </contour>
    </TTGlyph>
    <TTGlyph name="Tcaron" xMin="5" yMin="0" xMax="407" yMax="847">
      <contour>
        <pt x="407" y="693" on="1"/>
        <pt x="407" y="563" on="1"/>
        <pt x="282" y="563" on="1"/>
        <pt x="282" y="0" on="1"/>
        <pt x="130" y="0" on="1"/>
        <pt x="130" y="563" on="1"/>
        <pt x="5" y="563" on="1"/>
        <pt x="5" y="693" on="1"/>
      </contour>
      <contour>
        <pt x="151" y="732" on="1"/>
        <pt x="91" y="847" on="1"/>
        <pt x="164" y="847" on="1"/>
        <pt x="205" y="793" on="1"/>
        <pt x="245" y="847" on="1"/>
        <pt x="318" y="847" on="1"/>
        <pt x="258" y="732" on="1"/>
      </contour>
    </TTGlyph>
    <TTGlyph name="Thorn" xMin="55" yMin="0" xMax="443" yMax="693">
      <contour>
        <pt x="199" y="590" on="1"/>
        <pt x="269" y="590" on="1"/>
        <pt x="350" y="590" on="0"/>
        <pt x="443" y="512" on="0"/>
        <pt x="443" y="436" on="1"/>
        <pt x="443" y="258" on="1"/>
        <pt x="443" y="182" on="0"/>
        <pt x="350" y="104" on="0"/>
        <pt x="269" y="104" on="1"/>
        <pt x="199" y="104" on="1"/>
        <pt x="199" y="0" on="1"/>
        <pt x="55" y="0" on="1"/>
        <pt x="55" y="693" on="1"/>
        <pt x="199" y="693" on="1"/>
      </contour>
      <contour>
        <pt x="299" y="274" on="1"/>
        <pt x="299" y="420" on="1"/>
        <pt x="299" y="462" on="0"/>
        <pt x="256" y="462" on="1"/>
        <pt x="199" y="462" on="1"/>
        <pt x="199" y="232" on="1"/>
        <pt x="256" y="232" on="1"/>
        <pt x="299" y="232" on="0"/>
      </contour>
    </TTGlyph>
    <TTGlyph name="U" xMin="40" yMin="-10" xMax="455" yMax="693">
      <contour>
        <pt x="305" y="693" on="1"/>
        <pt x="455" y="693" on="1"/>
        <pt x="455" y="169" on="1"/>
        <pt x="455" y="87" on="0"/>
        <pt x="350" y="-10" on="0"/>
        <pt x="145" y="-10" on="0"/>
        <pt x="40" y="86" on="0"/>
        <pt x="40" y="169" on="1"/>
        <pt x="40" y="693" on="1"/>
        <pt x="190" y="693" on="1"/>
        <pt x="190" y="177" on="1"/>
        <pt x="190" y="127" on="0"/>
        <pt x="305" y="127" on="0"/>
        <pt x="305" y="177" on="1"/>
      </contour>
    </TTGlyph>
    <TTGlyph name="Uacute" xMin="40" yMin="-10" xMax="455" yMax="847">
      <contour>
        <pt x="305" y="693" on="1"/>
        <pt x="455" y="693" on="1"/>
        <pt x="455" y="169" on="1"/>
        <pt x="455" y="87" on="0"/>
        <pt x="350" y="-10" on="0"/>
        <pt x="145" y="-10" on="0"/>
        <pt x="40" y="86" on="0"/>
        <pt x="40" y="169" on="1"/>
        <pt x="40" y="693" on="1"/>
        <pt x="190" y="693" on="1"/>
        <pt x="190" y="177" on="1"/>
        <pt x="190" y="127" on="0"/>
        <pt x="305" y="127" on="0"/>
        <pt x="305" y="177" on="1"/>
      </contour>
      <contour>
        <pt x="251" y="847" on="1"/>
        <pt x="361" y="847" on="1"/>
        <pt x="286" y="732" on="1"/>
        <pt x="207" y="732" on="1"/>
      </contour>
    </TTGlyph>
    <TTGlyph name="Ucircumflex" xMin="40" yMin="-10" xMax="455" yMax="847">
      <contour>
        <pt x="305" y="693" on="1"/>
        <pt x="455" y="693" on="1"/>
        <pt x="455" y="169" on="1"/>
        <pt x="455" y="87" on="0"/>
        <pt x="350" y="-10" on="0"/>
        <pt x="145" y="-10" on="0"/>
        <pt x="40" y="86" on="0"/>
        <pt x="40" y="169" on="1"/>
        <pt x="40" y="693" on="1"/>
        <pt x="190" y="693" on="1"/>
        <pt x="190" y="177" on="1"/>
        <pt x="190" y="127" on="0"/>
        <pt x="305" y="127" on="0"/>
        <pt x="305" y="177" on="1"/>
      </contour>
      <contour>
        <pt x="248" y="786" on="1"/>
        <pt x="207" y="732" on="1"/>
        <pt x="134" y="732" on="1"/>
        <pt x="194" y="847" on="1"/>
        <pt x="301" y="847" on="1"/>
        <pt x="361" y="732" on="1"/>
        <pt x="288" y="732" on="1"/>
      </contour>
    </TTGlyph>
    <TTGlyph name="Udieresis" xMin="40" yMin="-10" xMax="455" yMax="844">
      <contour>
        <pt x="305" y="693" on="1"/>
        <pt x="455" y="693" on="1"/>
        <pt x="455" y="169" on="1"/>
        <pt x="455" y="87" on="0"/>
        <pt x="350" y="-10" on="0"/>
        <pt x="145" y="-10" on="0"/>
        <pt x="40" y="86" on="0"/>
        <pt x="40" y="169" on="1"/>
        <pt x="40" y="693" on="1"/>
        <pt x="190" y="693" on="1"/>
        <pt x="190" y="177" on="1"/>
        <pt x="190" y="127" on="0"/>
        <pt x="305" y="127" on="0"/>
        <pt x="305" y="177" on="1"/>
      </contour>
      <contour>
        <pt x="390" y="735" on="0"/>
        <pt x="274" y="735" on="0"/>
        <pt x="274" y="844" on="0"/>
        <pt x="390" y="844" on="0"/>
      </contour>
      <contour>
        <pt x="219" y="735" on="0"/>
        <pt x="103" y="735" on="0"/>
        <pt x="103" y="844" on="0"/>
        <pt x="219" y="844" on="0"/>
      </contour>
    </TTGlyph>
    <TTGlyph name="Ugrave" xMin="40" yMin="-10" xMax="455" yMax="847">
      <contour>
        <pt x="134" y="847" on="1"/>
        <pt x="244" y="847" on="1"/>
        <pt x="288" y="732" on="1"/>
        <pt x="209" y="732" on="1"/>
      </contour>
      <contour>
        <pt x="305" y="693" on="1"/>
        <pt x="455" y="693" on="1"/>
        <pt x="455" y="169" on="1"/>
        <pt x="455" y="87" on="0"/>
        <pt x="350" y="-10" on="0"/>
        <pt x="145" y="-10" on="0"/>
        <pt x="40" y="86" on="0"/>
        <pt x="40" y="169" on="1"/>
        <pt x="40" y="693" on="1"/>
        <pt x="190" y="693" on="1"/>
        <pt x="190" y="177" on="1"/>
        <pt x="190" y="127" on="0"/>
        <pt x="305" y="127" on="0"/>
        <pt x="305" y="177" on="1"/>
      </contour>
    </TTGlyph>
    <TTGlyph name="Uhungarumlaut" xMin="40" yMin="-10" xMax="455" yMax="847">
      <contour>
        <pt x="192" y="847" on="1"/>
        <pt x="292" y="847" on="1"/>
        <pt x="212" y="732" on="1"/>
        <pt x="143" y="732" on="1"/>
      </contour>
      <contour>
        <pt x="312" y="847" on="1"/>
        <pt x="412" y="847" on="1"/>
        <pt x="332" y="732" on="1"/>
        <pt x="263" y="732" on="1"/>
      </contour>
      <contour>
        <pt x="305" y="693" on="1"/>
        <pt x="455" y="693" on="1"/>
        <pt x="455" y="169" on="1"/>
        <pt x="455" y="87" on="0"/>
        <pt x="350" y="-10" on="0"/>
        <pt x="145" y="-10" on="0"/>
        <pt x="40" y="86" on="0"/>
        <pt x="40" y="169" on="1"/>
        <pt x="40" y="693" on="1"/>
        <pt x="190" y="693" on="1"/>
        <pt x="190" y="177" on="1"/>
        <pt x="190" y="127" on="0"/>
        <pt x="305" y="127" on="0"/>
        <pt x="305" y="177" on="1"/>
      </contour>
    </TTGlyph>
    <TTGlyph name="Umacron" xMin="40" yMin="-10" xMax="455" yMax="828">
      <contour>
        <pt x="113" y="828" on="1"/>
        <pt x="380" y="828" on="1"/>
        <pt x="380" y="751" on="1"/>
        <pt x="113" y="751" on="1"/>
      </contour>
      <contour>
        <pt x="305" y="693" on="1"/>
        <pt x="455" y="693" on="1"/>
        <pt x="455" y="169" on="1"/>
        <pt x="455" y="87" on="0"/>
        <pt x="350" y="-10" on="0"/>
        <pt x="145" y="-10" on="0"/>
        <pt x="40" y="86" on="0"/>
        <pt x="40" y="169" on="1"/>
        <pt x="40" y="693" on="1"/>
        <pt x="190" y="693" on="1"/>
        <pt x="190" y="177" on="1"/>
        <pt x="190" y="127" on="0"/>
        <pt x="305" y="127" on="0"/>
        <pt x="305" y="177" on="1"/>
      </contour>
    </TTGlyph>
    <TTGlyph name="Uogonek" xMin="40" yMin="-190" xMax="455" yMax="693">
      <contour>
        <pt x="305" y="693" on="1"/>
        <pt x="455" y="693" on="1"/>
        <pt x="455" y="169" on="1"/>
        <pt x="455" y="46" on="0"/>
        <pt x="347" y="6" on="1"/>
        <pt x="311" y="-35" on="0"/>
        <pt x="311" y="-85" on="1"/>
        <pt x="311" y="-121" on="0"/>
        <pt x="340" y="-121" on="1"/>
        <pt x="351" y="-121" on="1"/>
        <pt x="351" y="-190" on="1"/>
        <pt x="327" y="-190" on="1"/>
        <pt x="282" y="-190" on="0"/>
        <pt x="232" y="-148" on="0"/>
        <pt x="232" y="-110" on="1"/>
        <pt x="232" y="-57" on="0"/>
        <pt x="278" y="-9" on="1"/>
        <pt x="268" y="-10" on="0"/>
        <pt x="247" y="-10" on="1"/>
        <pt x="145" y="-10" on="0"/>
        <pt x="40" y="86" on="0"/>
        <pt x="40" y="169" on="1"/>
        <pt x="40" y="693" on="1"/>
        <pt x="190" y="693" on="1"/>
        <pt x="190" y="177" on="1"/>
        <pt x="190" y="127" on="0"/>
        <pt x="305" y="127" on="0"/>
        <pt x="305" y="177" on="1"/>
      </contour>
    </TTGlyph>
    <TTGlyph name="Uring" xMin="40" yMin="-10" xMax="455" yMax="868">
      <contour>
        <pt x="305" y="693" on="1"/>
        <pt x="455" y="693" on="1"/>
        <pt x="455" y="169" on="1"/>
        <pt x="455" y="87" on="0"/>
        <pt x="350" y="-10" on="0"/>
        <pt x="145" y="-10" on="0"/>
        <pt x="40" y="86" on="0"/>
        <pt x="40" y="169" on="1"/>
        <pt x="40" y="693" on="1"/>
        <pt x="190" y="693" on="1"/>
        <pt x="190" y="177" on="1"/>
        <pt x="190" y="127" on="0"/>
        <pt x="305" y="127" on="0"/>
        <pt x="305" y="177" on="1"/>
      </contour>
      <contour>
        <pt x="275" y="789" on="1"/>
        <pt x="275" y="801" on="0"/>
        <pt x="260" y="817" on="0"/>
        <pt x="234" y="817" on="0"/>
        <pt x="219" y="801" on="0"/>
        <pt x="219" y="789" on="1"/>
        <pt x="219" y="760" on="0"/>
        <pt x="275" y="760" on="0"/>
      </contour>
      <contour>
        <pt x="166" y="755" on="0"/>
        <pt x="166" y="823" on="0"/>
        <pt x="209" y="868" on="0"/>
        <pt x="285" y="868" on="0"/>
        <pt x="328" y="823" on="0"/>
        <pt x="328" y="754" on="0"/>
        <pt x="285" y="709" on="0"/>
        <pt x="209" y="709" on="0"/>
      </contour>
    </TTGlyph>
    <TTGlyph name="V" xMin="5" yMin="0" xMax="480" yMax="693">
      <contour>
        <pt x="324" y="693" on="1"/>
        <pt x="480" y="693" on="1"/>
        <pt x="348" y="0" on="1"/>
        <pt x="139" y="0" on="1"/>
        <pt x="5" y="693" on="1"/>
        <pt x="158" y="693" on="1"/>
        <pt x="216" y="362" on="0"/>
        <pt x="234" y="224" on="0"/>
        <pt x="245" y="130" on="1"/>
        <pt x="264" y="309" on="0"/>
        <pt x="278" y="398" on="1"/>
      </contour>
    </TTGlyph>
    <TTGlyph name="W" xMin="5" yMin="0" xMax="588" yMax="693">
      <contour>
        <pt x="459" y="693" on="1"/>
        <pt x="588" y="693" on="1"/>
        <pt x="496" y="0" on="1"/>
        <pt x="362" y="0" on="1"/>
        <pt x="321" y="274" on="1"/>
        <pt x="299" y="465" on="1"/>
        <pt x="291" y="354" on="0"/>
        <pt x="279" y="274" on="1"/>
        <pt x="237" y="0" on="1"/>
        <pt x="94" y="0" on="1"/>
        <pt x="5" y="693" on="1"/>
        <pt x="136" y="693" on="1"/>
        <pt x="174" y="420" on="0"/>
        <pt x="182" y="328" on="0"/>
        <pt x="185" y="274" on="1"/>
        <pt x="200" y="412" on="0"/>
        <pt x="235" y="693" on="1"/>
        <pt x="362" y="693" on="1"/>
        <pt x="409" y="281" on="1"/>
        <pt x="414" y="381" on="0"/>
        <pt x="426" y="465" on="1"/>
      </contour>
    </TTGlyph>
    <TTGlyph name="X" xMin="5" yMin="0" xMax="463" yMax="693">
      <contour>
        <pt x="301" y="693" on="1"/>
        <pt x="463" y="693" on="1"/>
        <pt x="314" y="345" on="1"/>
        <pt x="463" y="0" on="1"/>
        <pt x="300" y="0" on="1"/>
        <pt x="236" y="189" on="1"/>
        <pt x="168" y="0" on="1"/>
        <pt x="5" y="0" on="1"/>
        <pt x="153" y="345" on="1"/>
        <pt x="5" y="693" on="1"/>
        <pt x="167" y="693" on="1"/>
        <pt x="236" y="502" on="1"/>
      </contour>
    </TTGlyph>
    <TTGlyph name="Y" xMin="0" yMin="0" xMax="482" yMax="693">
      <contour>
        <pt x="317" y="0" on="1"/>
        <pt x="165" y="0" on="1"/>
        <pt x="165" y="215" on="1"/>
        <pt x="0" y="693" on="1"/>
        <pt x="154" y="693" on="1"/>
        <pt x="187" y="588" on="1"/>
        <pt x="226" y="465" on="0"/>
        <pt x="243" y="370" on="1"/>
        <pt x="262" y="467" on="0"/>
        <pt x="300" y="590" on="1"/>
        <pt x="332" y="693" on="1"/>
        <pt x="482" y="693" on="1"/>
        <pt x="317" y="215" on="1"/>
      </contour>
    </TTGlyph>
    <TTGlyph name="Yacute" xMin="0" yMin="0" xMax="482" yMax="848">
      <contour>
        <pt x="244" y="848" on="1"/>
        <pt x="354" y="848" on="1"/>
        <pt x="279" y="733" on="1"/>
        <pt x="200" y="733" on="1"/>
      </contour>
      <contour>
        <pt x="317" y="0" on="1"/>
        <pt x="165" y="0" on="1"/>
        <pt x="165" y="215" on="1"/>
        <pt x="0" y="693" on="1"/>
        <pt x="154" y="693" on="1"/>
        <pt x="187" y="588" on="1"/>
        <pt x="226" y="465" on="0"/>
        <pt x="243" y="370" on="1"/>
        <pt x="262" y="467" on="0"/>
        <pt x="300" y="590" on="1"/>
        <pt x="332" y="693" on="1"/>
        <pt x="482" y="693" on="1"/>
        <pt x="317" y="215" on="1"/>
      </contour>
    </TTGlyph>
    <TTGlyph name="Ydieresis" xMin="0" yMin="0" xMax="482" yMax="844">
      <contour>
        <pt x="317" y="0" on="1"/>
        <pt x="165" y="0" on="1"/>
        <pt x="165" y="215" on="1"/>
        <pt x="0" y="693" on="1"/>
        <pt x="154" y="693" on="1"/>
        <pt x="187" y="588" on="1"/>
        <pt x="226" y="465" on="0"/>
        <pt x="243" y="370" on="1"/>
        <pt x="262" y="467" on="0"/>
        <pt x="300" y="590" on="1"/>
        <pt x="332" y="693" on="1"/>
        <pt x="482" y="693" on="1"/>
        <pt x="317" y="215" on="1"/>
      </contour>
      <contour>
        <pt x="387" y="735" on="0"/>
        <pt x="271" y="735" on="0"/>
        <pt x="271" y="844" on="0"/>
        <pt x="387" y="844" on="0"/>
      </contour>
      <contour>
        <pt x="216" y="735" on="0"/>
        <pt x="100" y="735" on="0"/>
        <pt x="100" y="844" on="0"/>
        <pt x="216" y="844" on="0"/>
      </contour>
    </TTGlyph>
    <TTGlyph name="Z" xMin="20" yMin="0" xMax="405" yMax="693">
      <contour>
        <pt x="24" y="693" on="1"/>
        <pt x="401" y="693" on="1"/>
        <pt x="401" y="572" on="1"/>
        <pt x="177" y="127" on="1"/>
        <pt x="405" y="127" on="1"/>
        <pt x="405" y="0" on="1"/>
        <pt x="20" y="0" on="1"/>
        <pt x="20" y="127" on="1"/>
        <pt x="238" y="566" on="1"/>
        <pt x="24" y="566" on="1"/>
      </contour>
    </TTGlyph>
    <TTGlyph name="Zacute" xMin="20" yMin="0" xMax="405" yMax="847">
      <contour>
        <pt x="24" y="693" on="1"/>
        <pt x="401" y="693" on="1"/>
        <pt x="401" y="572" on="1"/>
        <pt x="177" y="127" on="1"/>
        <pt x="405" y="127" on="1"/>
        <pt x="405" y="0" on="1"/>
        <pt x="20" y="0" on="1"/>
        <pt x="20" y="127" on="1"/>
        <pt x="238" y="566" on="1"/>
        <pt x="24" y="566" on="1"/>
      </contour>
      <contour>
        <pt x="214" y="847" on="1"/>
        <pt x="324" y="847" on="1"/>
        <pt x="249" y="732" on="1"/>
        <pt x="170" y="732" on="1"/>
      </contour>
    </TTGlyph>
    <TTGlyph name="Zcaron" xMin="20" yMin="0" xMax="405" yMax="847">
      <contour>
        <pt x="405" y="127" on="1"/>
        <pt x="405" y="0" on="1"/>
        <pt x="20" y="0" on="1"/>
        <pt x="20" y="127" on="1"/>
        <pt x="238" y="566" on="1"/>
        <pt x="24" y="566" on="1"/>
        <pt x="24" y="693" on="1"/>
        <pt x="401" y="693" on="1"/>
        <pt x="401" y="572" on="1"/>
        <pt x="177" y="127" on="1"/>
      </contour>
      <contour>
        <pt x="154" y="732" on="1"/>
        <pt x="94" y="847" on="1"/>
        <pt x="167" y="847" on="1"/>
        <pt x="208" y="793" on="1"/>
        <pt x="248" y="847" on="1"/>
        <pt x="321" y="847" on="1"/>
        <pt x="261" y="732" on="1"/>
      </contour>
    </TTGlyph>
    <TTGlyph name="Zdotaccent" xMin="20" yMin="0" xMax="405" yMax="844">
      <contour>
        <pt x="273" y="735" on="0"/>
        <pt x="157" y="735" on="0"/>
        <pt x="157" y="844" on="0"/>
        <pt x="273" y="844" on="0"/>
      </contour>
      <contour>
        <pt x="24" y="693" on="1"/>
        <pt x="401" y="693" on="1"/>
        <pt x="401" y="572" on="1"/>
        <pt x="177" y="127" on="1"/>
        <pt x="405" y="127" on="1"/>
        <pt x="405" y="0" on="1"/>
        <pt x="20" y="0" on="1"/>
        <pt x="20" y="127" on="1"/>
        <pt x="238" y="566" on="1"/>
        <pt x="24" y="566" on="1"/>
      </contour>
    </TTGlyph>
    <TTGlyph name="a" xMin="19" yMin="-2" xMax="397" yMax="595">
      <contour>
        <pt x="167" y="171" on="1"/>
        <pt x="167" y="143" on="1"/>
        <pt x="167" y="109" on="0"/>
        <pt x="202" y="109" on="1"/>
        <pt x="232" y="109" on="0"/>
        <pt x="252" y="120" on="1"/>
        <pt x="252" y="241" on="1"/>
        <pt x="206" y="229" on="1"/>
        <pt x="181" y="222" on="0"/>
        <pt x="167" y="200" on="0"/>
      </contour>
      <contour>
        <pt x="50" y="576" on="1"/>
        <pt x="105" y="595" on="0"/>
        <pt x="309" y="595" on="0"/>
        <pt x="397" y="506" on="0"/>
        <pt x="397" y="416" on="1"/>
        <pt x="397" y="0" on="1"/>
        <pt x="256" y="0" on="1"/>
        <pt x="256" y="43" on="1"/>
        <pt x="227" y="-2" on="0"/>
        <pt x="83" y="-2" on="0"/>
        <pt x="19" y="67" on="0"/>
        <pt x="19" y="143" on="1"/>
        <pt x="19" y="177" on="1"/>
        <pt x="19" y="244" on="0"/>
        <pt x="78" y="316" on="0"/>
        <pt x="144" y="334" on="1"/>
        <pt x="253" y="362" on="1"/>
        <pt x="253" y="417" on="1"/>
        <pt x="252" y="443" on="0"/>
        <pt x="224" y="464" on="0"/>
        <pt x="187" y="464" on="1"/>
        <pt x="104" y="464" on="0"/>
        <pt x="50" y="443" on="1"/>
      </contour>
    </TTGlyph>
    <TTGlyph name="aacute" xMin="19" yMin="-2" xMax="397" yMax="747">
      <contour>
        <pt x="210" y="747" on="1"/>
        <pt x="320" y="747" on="1"/>
        <pt x="245" y="632" on="1"/>
        <pt x="166" y="632" on="1"/>
      </contour>
      <contour>
        <pt x="167" y="171" on="1"/>
        <pt x="167" y="143" on="1"/>
        <pt x="167" y="109" on="0"/>
        <pt x="202" y="109" on="1"/>
        <pt x="232" y="109" on="0"/>
        <pt x="252" y="120" on="1"/>
        <pt x="252" y="241" on="1"/>
        <pt x="206" y="229" on="1"/>
        <pt x="181" y="222" on="0"/>
        <pt x="167" y="200" on="0"/>
      </contour>
      <contour>
        <pt x="50" y="576" on="1"/>
        <pt x="105" y="595" on="0"/>
        <pt x="309" y="595" on="0"/>
        <pt x="397" y="506" on="0"/>
        <pt x="397" y="416" on="1"/>
        <pt x="397" y="0" on="1"/>
        <pt x="256" y="0" on="1"/>
        <pt x="256" y="43" on="1"/>
        <pt x="227" y="-2" on="0"/>
        <pt x="83" y="-2" on="0"/>
        <pt x="19" y="67" on="0"/>
        <pt x="19" y="143" on="1"/>
        <pt x="19" y="177" on="1"/>
        <pt x="19" y="244" on="0"/>
        <pt x="78" y="316" on="0"/>
        <pt x="144" y="334" on="1"/>
        <pt x="253" y="362" on="1"/>
        <pt x="253" y="417" on="1"/>
        <pt x="252" y="443" on="0"/>
        <pt x="224" y="464" on="0"/>
        <pt x="187" y="464" on="1"/>
        <pt x="104" y="464" on="0"/>
        <pt x="50" y="443" on="1"/>
      </contour>
    </TTGlyph>
    <TTGlyph name="abreve" xMin="19" yMin="-2" xMax="397" yMax="747">
      <contour>
        <pt x="255" y="747" on="1"/>
        <pt x="332" y="747" on="1"/>
        <pt x="332" y="695" on="0"/>
        <pt x="264" y="632" on="0"/>
        <pt x="160" y="632" on="0"/>
        <pt x="92" y="696" on="0"/>
        <pt x="92" y="747" on="1"/>
        <pt x="169" y="747" on="1"/>
        <pt x="169" y="726" on="0"/>
        <pt x="191" y="700" on="0"/>
        <pt x="233" y="700" on="0"/>
        <pt x="255" y="726" on="0"/>
      </contour>
      <contour>
        <pt x="167" y="171" on="1"/>
        <pt x="167" y="143" on="1"/>
        <pt x="167" y="109" on="0"/>
        <pt x="202" y="109" on="1"/>
        <pt x="232" y="109" on="0"/>
        <pt x="252" y="120" on="1"/>
        <pt x="252" y="241" on="1"/>
        <pt x="206" y="229" on="1"/>
        <pt x="181" y="222" on="0"/>
        <pt x="167" y="200" on="0"/>
      </contour>
      <contour>
        <pt x="50" y="576" on="1"/>
        <pt x="105" y="595" on="0"/>
        <pt x="309" y="595" on="0"/>
        <pt x="397" y="506" on="0"/>
        <pt x="397" y="416" on="1"/>
        <pt x="397" y="0" on="1"/>
        <pt x="256" y="0" on="1"/>
        <pt x="256" y="43" on="1"/>
        <pt x="227" y="-2" on="0"/>
        <pt x="83" y="-2" on="0"/>
        <pt x="19" y="67" on="0"/>
        <pt x="19" y="143" on="1"/>
        <pt x="19" y="177" on="1"/>
        <pt x="19" y="244" on="0"/>
        <pt x="78" y="316" on="0"/>
        <pt x="144" y="334" on="1"/>
        <pt x="253" y="362" on="1"/>
        <pt x="253" y="417" on="1"/>
        <pt x="252" y="443" on="0"/>
        <pt x="224" y="464" on="0"/>
        <pt x="187" y="464" on="1"/>
        <pt x="104" y="464" on="0"/>
        <pt x="50" y="443" on="1"/>
      </contour>
    </TTGlyph>
    <TTGlyph name="acircumflex" xMin="19" yMin="-2" xMax="397" yMax="747">
      <contour>
        <pt x="50" y="576" on="1"/>
        <pt x="105" y="595" on="0"/>
        <pt x="309" y="595" on="0"/>
        <pt x="397" y="506" on="0"/>
        <pt x="397" y="416" on="1"/>
        <pt x="397" y="0" on="1"/>
        <pt x="256" y="0" on="1"/>
        <pt x="256" y="43" on="1"/>
        <pt x="227" y="-2" on="0"/>
        <pt x="83" y="-2" on="0"/>
        <pt x="19" y="67" on="0"/>
        <pt x="19" y="143" on="1"/>
        <pt x="19" y="177" on="1"/>
        <pt x="19" y="244" on="0"/>
        <pt x="78" y="316" on="0"/>
        <pt x="144" y="334" on="1"/>
        <pt x="253" y="362" on="1"/>
        <pt x="253" y="417" on="1"/>
        <pt x="252" y="443" on="0"/>
        <pt x="224" y="464" on="0"/>
        <pt x="187" y="464" on="1"/>
        <pt x="104" y="464" on="0"/>
        <pt x="50" y="443" on="1"/>
      </contour>
      <contour>
        <pt x="167" y="171" on="1"/>
        <pt x="167" y="143" on="1"/>
        <pt x="167" y="109" on="0"/>
        <pt x="202" y="109" on="1"/>
        <pt x="232" y="109" on="0"/>
        <pt x="252" y="120" on="1"/>
        <pt x="252" y="241" on="1"/>
        <pt x="206" y="229" on="1"/>
        <pt x="181" y="222" on="0"/>
        <pt x="167" y="200" on="0"/>
      </contour>
      <contour>
        <pt x="215" y="686" on="1"/>
        <pt x="174" y="632" on="1"/>
        <pt x="101" y="632" on="1"/>
        <pt x="161" y="747" on="1"/>
        <pt x="268" y="747" on="1"/>
        <pt x="328" y="632" on="1"/>
        <pt x="255" y="632" on="1"/>
      </contour>
    </TTGlyph>
    <TTGlyph name="acute" xMin="98" yMin="632" xMax="252" yMax="747">
      <contour>
        <pt x="142" y="747" on="1"/>
        <pt x="252" y="747" on="1"/>
        <pt x="177" y="632" on="1"/>
        <pt x="98" y="632" on="1"/>
      </contour>
    </TTGlyph>
    <TTGlyph name="adieresis" xMin="19" yMin="-2" xMax="397" yMax="744">
      <contour>
        <pt x="354" y="635" on="0"/>
        <pt x="238" y="635" on="0"/>
        <pt x="238" y="744" on="0"/>
        <pt x="354" y="744" on="0"/>
      </contour>
      <contour>
        <pt x="183" y="635" on="0"/>
        <pt x="67" y="635" on="0"/>
        <pt x="67" y="744" on="0"/>
        <pt x="183" y="744" on="0"/>
      </contour>
      <contour>
        <pt x="167" y="171" on="1"/>
        <pt x="167" y="143" on="1"/>
        <pt x="167" y="109" on="0"/>
        <pt x="202" y="109" on="1"/>
        <pt x="232" y="109" on="0"/>
        <pt x="252" y="120" on="1"/>
        <pt x="252" y="241" on="1"/>
        <pt x="206" y="229" on="1"/>
        <pt x="181" y="222" on="0"/>
        <pt x="167" y="200" on="0"/>
      </contour>
      <contour>
        <pt x="50" y="576" on="1"/>
        <pt x="105" y="595" on="0"/>
        <pt x="309" y="595" on="0"/>
        <pt x="397" y="506" on="0"/>
        <pt x="397" y="416" on="1"/>
        <pt x="397" y="0" on="1"/>
        <pt x="256" y="0" on="1"/>
        <pt x="256" y="43" on="1"/>
        <pt x="227" y="-2" on="0"/>
        <pt x="83" y="-2" on="0"/>
        <pt x="19" y="67" on="0"/>
        <pt x="19" y="143" on="1"/>
        <pt x="19" y="177" on="1"/>
        <pt x="19" y="244" on="0"/>
        <pt x="78" y="316" on="0"/>
        <pt x="144" y="334" on="1"/>
        <pt x="253" y="362" on="1"/>
        <pt x="253" y="417" on="1"/>
        <pt x="252" y="443" on="0"/>
        <pt x="224" y="464" on="0"/>
        <pt x="187" y="464" on="1"/>
        <pt x="104" y="464" on="0"/>
        <pt x="50" y="443" on="1"/>
      </contour>
    </TTGlyph>
    <TTGlyph name="ae" xMin="24" yMin="-6" xMax="623" yMax="600">
      <contour>
        <pt x="484" y="437" on="1"/>
        <pt x="484" y="475" on="0"/>
        <pt x="394" y="475" on="0"/>
        <pt x="394" y="437" on="1"/>
        <pt x="394" y="351" on="1"/>
        <pt x="484" y="351" on="1"/>
      </contour>
      <contour>
        <pt x="167" y="171" on="1"/>
        <pt x="167" y="143" on="1"/>
        <pt x="167" y="109" on="0"/>
        <pt x="202" y="109" on="1"/>
        <pt x="231" y="109" on="0"/>
        <pt x="255" y="121" on="1"/>
        <pt x="255" y="243" on="1"/>
        <pt x="206" y="230" on="1"/>
        <pt x="181" y="223" on="0"/>
        <pt x="167" y="200" on="0"/>
      </contour>
      <contour>
        <pt x="440" y="600" on="1"/>
        <pt x="623" y="600" on="0"/>
        <pt x="623" y="439" on="1"/>
        <pt x="623" y="236" on="1"/>
        <pt x="395" y="236" on="1"/>
        <pt x="395" y="180" on="1"/>
        <pt x="395" y="148" on="0"/>
        <pt x="432" y="125" on="0"/>
        <pt x="542" y="125" on="0"/>
        <pt x="609" y="145" on="1"/>
        <pt x="609" y="13" on="1"/>
        <pt x="539" y="-6" on="0"/>
        <pt x="371" y="-6" on="0"/>
        <pt x="320" y="25" on="1"/>
        <pt x="274" y="-4" on="0"/>
        <pt x="175" y="-4" on="1"/>
        <pt x="24" y="-4" on="0"/>
        <pt x="24" y="142" on="1"/>
        <pt x="24" y="177" on="1"/>
        <pt x="24" y="244" on="0"/>
        <pt x="79" y="315" on="0"/>
        <pt x="144" y="335" on="1"/>
        <pt x="252" y="369" on="1"/>
        <pt x="251" y="426" on="1"/>
        <pt x="251" y="464" on="0"/>
        <pt x="187" y="464" on="1"/>
        <pt x="107" y="464" on="0"/>
        <pt x="50" y="442" on="1"/>
        <pt x="50" y="574" on="1"/>
        <pt x="110" y="595" on="0"/>
        <pt x="274" y="595" on="0"/>
        <pt x="318" y="572" on="1"/>
        <pt x="365" y="600" on="0"/>
      </contour>
    </TTGlyph>
    <TTGlyph name="agrave" xMin="19" yMin="-2" xMax="397" yMax="747">
      <contour>
        <pt x="98" y="747" on="1"/>
        <pt x="208" y="747" on="1"/>
        <pt x="252" y="632" on="1"/>
        <pt x="173" y="632" on="1"/>
      </contour>
      <contour>
        <pt x="167" y="171" on="1"/>
        <pt x="167" y="143" on="1"/>
        <pt x="167" y="109" on="0"/>
        <pt x="202" y="109" on="1"/>
        <pt x="232" y="109" on="0"/>
        <pt x="252" y="120" on="1"/>
        <pt x="252" y="241" on="1"/>
        <pt x="206" y="229" on="1"/>
        <pt x="181" y="222" on="0"/>
        <pt x="167" y="200" on="0"/>
      </contour>
      <contour>
        <pt x="50" y="576" on="1"/>
        <pt x="105" y="595" on="0"/>
        <pt x="309" y="595" on="0"/>
        <pt x="397" y="506" on="0"/>
        <pt x="397" y="416" on="1"/>
        <pt x="397" y="0" on="1"/>
        <pt x="256" y="0" on="1"/>
        <pt x="256" y="43" on="1"/>
        <pt x="227" y="-2" on="0"/>
        <pt x="83" y="-2" on="0"/>
        <pt x="19" y="67" on="0"/>
        <pt x="19" y="143" on="1"/>
        <pt x="19" y="177" on="1"/>
        <pt x="19" y="244" on="0"/>
        <pt x="78" y="316" on="0"/>
        <pt x="144" y="334" on="1"/>
        <pt x="253" y="362" on="1"/>
        <pt x="253" y="417" on="1"/>
        <pt x="252" y="443" on="0"/>
        <pt x="224" y="464" on="0"/>
        <pt x="187" y="464" on="1"/>
        <pt x="104" y="464" on="0"/>
        <pt x="50" y="443" on="1"/>
      </contour>
    </TTGlyph>
    <TTGlyph name="amacron" xMin="19" yMin="-2" xMax="397" yMax="728">
      <contour>
        <pt x="89" y="728" on="1"/>
        <pt x="356" y="728" on="1"/>
        <pt x="356" y="651" on="1"/>
        <pt x="89" y="651" on="1"/>
      </contour>
      <contour>
        <pt x="167" y="171" on="1"/>
        <pt x="167" y="143" on="1"/>
        <pt x="167" y="109" on="0"/>
        <pt x="202" y="109" on="1"/>
        <pt x="232" y="109" on="0"/>
        <pt x="252" y="120" on="1"/>
        <pt x="252" y="241" on="1"/>
        <pt x="206" y="229" on="1"/>
        <pt x="181" y="222" on="0"/>
        <pt x="167" y="200" on="0"/>
      </contour>
      <contour>
        <pt x="50" y="576" on="1"/>
        <pt x="105" y="595" on="0"/>
        <pt x="309" y="595" on="0"/>
        <pt x="397" y="506" on="0"/>
        <pt x="397" y="416" on="1"/>
        <pt x="397" y="0" on="1"/>
        <pt x="256" y="0" on="1"/>
        <pt x="256" y="43" on="1"/>
        <pt x="227" y="-2" on="0"/>
        <pt x="83" y="-2" on="0"/>
        <pt x="19" y="67" on="0"/>
        <pt x="19" y="143" on="1"/>
        <pt x="19" y="177" on="1"/>
        <pt x="19" y="244" on="0"/>
        <pt x="78" y="316" on="0"/>
        <pt x="144" y="334" on="1"/>
        <pt x="253" y="362" on="1"/>
        <pt x="253" y="417" on="1"/>
        <pt x="252" y="443" on="0"/>
        <pt x="224" y="464" on="0"/>
        <pt x="187" y="464" on="1"/>
        <pt x="104" y="464" on="0"/>
        <pt x="50" y="443" on="1"/>
      </contour>
    </TTGlyph>
    <TTGlyph name="ampersand" xMin="53" yMin="-6" xMax="497" yMax="699">
      <contour>
        <pt x="497" y="424" on="1"/>
        <pt x="497" y="296" on="1"/>
        <pt x="447" y="296" on="1"/>
        <pt x="447" y="173" on="1"/>
        <pt x="447" y="-6" on="0"/>
        <pt x="252" y="-6" on="1"/>
        <pt x="150" y="-6" on="0"/>
        <pt x="53" y="89" on="0"/>
        <pt x="53" y="173" on="1"/>
        <pt x="53" y="258" on="1"/>
        <pt x="53" y="344" on="0"/>
        <pt x="123" y="365" on="1"/>
        <pt x="55" y="388" on="0"/>
        <pt x="55" y="472" on="1"/>
        <pt x="55" y="532" on="1"/>
        <pt x="55" y="611" on="0"/>
        <pt x="167" y="699" on="0"/>
        <pt x="281" y="699" on="1"/>
        <pt x="366" y="699" on="0"/>
        <pt x="408" y="685" on="1"/>
        <pt x="408" y="545" on="1"/>
        <pt x="364" y="562" on="0"/>
        <pt x="239" y="562" on="0"/>
        <pt x="205" y="538" on="0"/>
        <pt x="205" y="514" on="1"/>
        <pt x="205" y="475" on="1"/>
        <pt x="205" y="447" on="0"/>
        <pt x="226" y="424" on="0"/>
        <pt x="254" y="424" on="1"/>
        <pt x="303" y="424" on="1"/>
        <pt x="303" y="490" on="1"/>
        <pt x="447" y="490" on="1"/>
        <pt x="447" y="424" on="1"/>
      </contour>
      <contour>
        <pt x="303" y="177" on="1"/>
        <pt x="303" y="296" on="1"/>
        <pt x="254" y="296" on="1"/>
        <pt x="227" y="296" on="0"/>
        <pt x="203" y="273" on="0"/>
        <pt x="203" y="248" on="1"/>
        <pt x="203" y="177" on="1"/>
        <pt x="203" y="152" on="0"/>
        <pt x="223" y="126" on="0"/>
        <pt x="281" y="126" on="0"/>
        <pt x="303" y="152" on="0"/>
      </contour>
    </TTGlyph>
    <TTGlyph name="aogonek" xMin="19" yMin="-200" xMax="397" yMax="595">
      <contour>
        <pt x="50" y="576" on="1"/>
        <pt x="105" y="595" on="0"/>
        <pt x="309" y="595" on="0"/>
        <pt x="397" y="506" on="0"/>
        <pt x="397" y="416" on="1"/>
        <pt x="397" y="0" on="1"/>
        <pt x="396" y="0" on="1"/>
        <pt x="356" y="-42" on="0"/>
        <pt x="356" y="-95" on="1"/>
        <pt x="356" y="-131" on="0"/>
        <pt x="385" y="-131" on="1"/>
        <pt x="396" y="-131" on="1"/>
        <pt x="396" y="-200" on="1"/>
        <pt x="372" y="-200" on="1"/>
        <pt x="327" y="-200" on="0"/>
        <pt x="277" y="-158" on="0"/>
        <pt x="277" y="-120" on="1"/>
        <pt x="277" y="-55" on="0"/>
        <pt x="343" y="0" on="1"/>
        <pt x="256" y="0" on="1"/>
        <pt x="256" y="43" on="1"/>
        <pt x="227" y="-2" on="0"/>
        <pt x="83" y="-2" on="0"/>
        <pt x="19" y="67" on="0"/>
        <pt x="19" y="143" on="1"/>
        <pt x="19" y="177" on="1"/>
        <pt x="19" y="244" on="0"/>
        <pt x="78" y="316" on="0"/>
        <pt x="144" y="334" on="1"/>
        <pt x="253" y="362" on="1"/>
        <pt x="253" y="417" on="1"/>
        <pt x="252" y="443" on="0"/>
        <pt x="224" y="464" on="0"/>
        <pt x="187" y="464" on="1"/>
        <pt x="104" y="464" on="0"/>
        <pt x="50" y="443" on="1"/>
      </contour>
      <contour>
        <pt x="167" y="171" on="1"/>
        <pt x="167" y="143" on="1"/>
        <pt x="167" y="109" on="0"/>
        <pt x="202" y="109" on="1"/>
        <pt x="232" y="109" on="0"/>
        <pt x="252" y="120" on="1"/>
        <pt x="252" y="241" on="1"/>
        <pt x="206" y="229" on="1"/>
        <pt x="181" y="222" on="0"/>
        <pt x="167" y="200" on="0"/>
      </contour>
    </TTGlyph>
    <TTGlyph name="approxequal" xMin="25" yMin="130" xMax="597" yMax="548">
      <contour>
        <pt x="591" y="545" on="1"/>
        <pt x="597" y="519" on="0"/>
        <pt x="597" y="437" on="0"/>
        <pt x="561" y="373" on="0"/>
        <pt x="530" y="360" on="1"/>
        <pt x="469" y="334" on="0"/>
        <pt x="382" y="363" on="1"/>
        <pt x="240" y="411" on="1"/>
        <pt x="205" y="426" on="0"/>
        <pt x="158" y="403" on="0"/>
        <pt x="165" y="363" on="1"/>
        <pt x="30" y="363" on="1"/>
        <pt x="25" y="392" on="0"/>
        <pt x="25" y="471" on="0"/>
        <pt x="61" y="535" on="0"/>
        <pt x="92" y="548" on="1"/>
        <pt x="153" y="574" on="0"/>
        <pt x="240" y="545" on="1"/>
        <pt x="382" y="497" on="1"/>
        <pt x="417" y="482" on="0"/>
        <pt x="464" y="505" on="0"/>
        <pt x="457" y="545" on="1"/>
      </contour>
      <contour>
        <pt x="591" y="315" on="1"/>
        <pt x="597" y="289" on="0"/>
        <pt x="597" y="207" on="0"/>
        <pt x="561" y="143" on="0"/>
        <pt x="530" y="130" on="1"/>
        <pt x="469" y="104" on="0"/>
        <pt x="382" y="133" on="1"/>
        <pt x="240" y="181" on="1"/>
        <pt x="205" y="196" on="0"/>
        <pt x="158" y="173" on="0"/>
        <pt x="165" y="133" on="1"/>
        <pt x="30" y="133" on="1"/>
        <pt x="25" y="162" on="0"/>
        <pt x="25" y="241" on="0"/>
        <pt x="61" y="305" on="0"/>
        <pt x="92" y="318" on="1"/>
        <pt x="153" y="344" on="0"/>
        <pt x="240" y="315" on="1"/>
        <pt x="382" y="267" on="1"/>
        <pt x="417" y="252" on="0"/>
        <pt x="464" y="275" on="0"/>
        <pt x="457" y="315" on="1"/>
      </contour>
    </TTGlyph>
    <TTGlyph name="aring" xMin="19" yMin="-2" xMax="397" yMax="768">
      <contour>
        <pt x="237" y="689" on="1"/>
        <pt x="237" y="701" on="0"/>
        <pt x="222" y="717" on="0"/>
        <pt x="196" y="717" on="0"/>
        <pt x="181" y="701" on="0"/>
        <pt x="181" y="689" on="1"/>
        <pt x="181" y="660" on="0"/>
        <pt x="237" y="660" on="0"/>
      </contour>
      <contour>
        <pt x="128" y="655" on="0"/>
        <pt x="128" y="723" on="0"/>
        <pt x="171" y="768" on="0"/>
        <pt x="247" y="768" on="0"/>
        <pt x="290" y="723" on="0"/>
        <pt x="290" y="654" on="0"/>
        <pt x="247" y="609" on="0"/>
        <pt x="171" y="609" on="0"/>
      </contour>
      <contour>
        <pt x="167" y="171" on="1"/>
        <pt x="167" y="143" on="1"/>
        <pt x="167" y="109" on="0"/>
        <pt x="202" y="109" on="1"/>
        <pt x="232" y="109" on="0"/>
        <pt x="252" y="120" on="1"/>
        <pt x="252" y="241" on="1"/>
        <pt x="206" y="229" on="1"/>
        <pt x="181" y="222" on="0"/>
        <pt x="167" y="200" on="0"/>
      </contour>
      <contour>
        <pt x="50" y="576" on="1"/>
        <pt x="105" y="595" on="0"/>
        <pt x="309" y="595" on="0"/>
        <pt x="397" y="506" on="0"/>
        <pt x="397" y="416" on="1"/>
        <pt x="397" y="0" on="1"/>
        <pt x="256" y="0" on="1"/>
        <pt x="256" y="43" on="1"/>
        <pt x="227" y="-2" on="0"/>
        <pt x="83" y="-2" on="0"/>
        <pt x="19" y="67" on="0"/>
        <pt x="19" y="143" on="1"/>
        <pt x="19" y="177" on="1"/>
        <pt x="19" y="244" on="0"/>
        <pt x="78" y="316" on="0"/>
        <pt x="144" y="334" on="1"/>
        <pt x="253" y="362" on="1"/>
        <pt x="253" y="417" on="1"/>
        <pt x="252" y="443" on="0"/>
        <pt x="224" y="464" on="0"/>
        <pt x="187" y="464" on="1"/>
        <pt x="104" y="464" on="0"/>
        <pt x="50" y="443" on="1"/>
      </contour>
    </TTGlyph>
    <TTGlyph name="asciicircum" xMin="0" yMin="400" xMax="439" yMax="737">
      <contour>
        <pt x="439" y="400" on="1"/>
        <pt x="290" y="400" on="1"/>
        <pt x="220" y="633" on="1"/>
        <pt x="149" y="400" on="1"/>
        <pt x="0" y="400" on="1"/>
        <pt x="136" y="737" on="1"/>
        <pt x="304" y="737" on="1"/>
      </contour>
    </TTGlyph>
    <TTGlyph name="asciitilde" xMin="25" yMin="257" xMax="597" yMax="445">
      <contour>
        <pt x="591" y="442" on="1"/>
        <pt x="597" y="416" on="0"/>
        <pt x="597" y="334" on="0"/>
        <pt x="561" y="270" on="0"/>
        <pt x="530" y="257" on="1"/>
        <pt x="469" y="231" on="0"/>
        <pt x="382" y="260" on="1"/>
        <pt x="240" y="308" on="1"/>
        <pt x="205" y="323" on="0"/>
        <pt x="158" y="300" on="0"/>
        <pt x="165" y="260" on="1"/>
        <pt x="30" y="260" on="1"/>
        <pt x="25" y="289" on="0"/>
        <pt x="25" y="368" on="0"/>
        <pt x="61" y="432" on="0"/>
        <pt x="92" y="445" on="1"/>
        <pt x="153" y="471" on="0"/>
        <pt x="240" y="442" on="1"/>
        <pt x="382" y="394" on="1"/>
        <pt x="417" y="379" on="0"/>
        <pt x="464" y="402" on="0"/>
        <pt x="457" y="442" on="1"/>
      </contour>
    </TTGlyph>
    <TTGlyph name="asterisk" xMin="26" yMin="361" xMax="528" yMax="838">
      <contour>
        <pt x="207" y="749" on="1"/>
        <pt x="207" y="838" on="1"/>
        <pt x="347" y="838" on="1"/>
        <pt x="347" y="749" on="1"/>
        <pt x="347" y="714" on="0"/>
        <pt x="340" y="683" on="1"/>
        <pt x="365" y="698" on="0"/>
        <pt x="401" y="710" on="1"/>
        <pt x="485" y="738" on="1"/>
        <pt x="528" y="605" on="1"/>
        <pt x="444" y="577" on="1"/>
        <pt x="408" y="566" on="0"/>
        <pt x="378" y="564" on="1"/>
        <pt x="398" y="547" on="0"/>
        <pt x="423" y="514" on="1"/>
        <pt x="475" y="443" on="1"/>
        <pt x="362" y="361" on="1"/>
        <pt x="309" y="432" on="1"/>
        <pt x="289" y="460" on="0"/>
        <pt x="277" y="489" on="1"/>
        <pt x="266" y="464" on="0"/>
        <pt x="244" y="432" on="1"/>
        <pt x="192" y="361" on="1"/>
        <pt x="79" y="443" on="1"/>
        <pt x="131" y="515" on="1"/>
        <pt x="154" y="545" on="0"/>
        <pt x="176" y="564" on="1"/>
        <pt x="143" y="567" on="0"/>
        <pt x="110" y="578" on="1"/>
        <pt x="26" y="605" on="1"/>
        <pt x="69" y="738" on="1"/>
        <pt x="154" y="711" on="1"/>
        <pt x="182" y="702" on="0"/>
        <pt x="214" y="684" on="1"/>
        <pt x="207" y="716" on="0"/>
      </contour>
    </TTGlyph>
    <TTGlyph name="at" xMin="59" yMin="-139" xMax="867" yMax="710">
      <contour>
        <pt x="557" y="-139" on="1"/>
        <pt x="464" y="-139" on="1"/>
        <pt x="189" y="-139" on="0"/>
        <pt x="107" y="30" on="1"/>
        <pt x="80" y="85" on="0"/>
        <pt x="59" y="206" on="0"/>
        <pt x="59" y="384" on="0"/>
        <pt x="95" y="529" on="0"/>
        <pt x="138" y="588" on="1"/>
        <pt x="227" y="710" on="0"/>
        <pt x="465" y="710" on="1"/>
        <pt x="706" y="710" on="0"/>
        <pt x="792" y="590" on="1"/>
        <pt x="834" y="531" on="0"/>
        <pt x="867" y="388" on="0"/>
        <pt x="867" y="287" on="1"/>
        <pt x="867" y="134" on="0"/>
        <pt x="761" y="7" on="0"/>
        <pt x="557" y="7" on="0"/>
        <pt x="516" y="70" on="1"/>
        <pt x="480" y="53" on="0"/>
        <pt x="426" y="53" on="1"/>
        <pt x="316" y="53" on="0"/>
        <pt x="316" y="166" on="1"/>
        <pt x="316" y="194" on="1"/>
        <pt x="316" y="241" on="0"/>
        <pt x="354" y="298" on="0"/>
        <pt x="396" y="314" on="1"/>
        <pt x="491" y="349" on="1"/>
        <pt x="491" y="408" on="1"/>
        <pt x="491" y="423" on="0"/>
        <pt x="476" y="437" on="0"/>
        <pt x="394" y="437" on="0"/>
        <pt x="332" y="418" on="1"/>
        <pt x="332" y="515" on="1"/>
        <pt x="389" y="532" on="0"/>
        <pt x="531" y="532" on="0"/>
        <pt x="603" y="475" on="0"/>
        <pt x="603" y="414" on="1"/>
        <pt x="603" y="182" on="1"/>
        <pt x="603" y="147" on="0"/>
        <pt x="633" y="116" on="0"/>
        <pt x="711" y="116" on="0"/>
        <pt x="743" y="187" on="0"/>
        <pt x="743" y="333" on="0"/>
        <pt x="740" y="390" on="0"/>
        <pt x="729" y="463" on="0"/>
        <pt x="707" y="506" on="0"/>
        <pt x="667" y="553" on="0"/>
        <pt x="638" y="566" on="1"/>
        <pt x="570" y="594" on="0"/>
        <pt x="465" y="594" on="1"/>
        <pt x="362" y="594" on="0"/>
        <pt x="309" y="570" on="1"/>
        <pt x="281" y="558" on="0"/>
        <pt x="239" y="529" on="0"/>
        <pt x="212" y="483" on="0"/>
        <pt x="195" y="440" on="0"/>
        <pt x="191" y="408" on="1"/>
        <pt x="185" y="360" on="0"/>
        <pt x="185" y="241" on="0"/>
        <pt x="188" y="181" on="0"/>
        <pt x="201" y="111" on="0"/>
        <pt x="224" y="66" on="0"/>
        <pt x="265" y="20" on="0"/>
        <pt x="294" y="7" on="1"/>
        <pt x="360" y="-22" on="0"/>
        <pt x="465" y="-22" on="1"/>
        <pt x="557" y="-22" on="1"/>
      </contour>
      <contour>
        <pt x="428" y="155" on="0"/>
        <pt x="438" y="146" on="0"/>
        <pt x="469" y="146" on="0"/>
        <pt x="491" y="154" on="1"/>
        <pt x="491" y="251" on="1"/>
        <pt x="454" y="238" on="1"/>
        <pt x="438" y="232" on="0"/>
        <pt x="428" y="216" on="0"/>
        <pt x="428" y="198" on="1"/>
        <pt x="428" y="167" on="1"/>
      </contour>
    </TTGlyph>
    <TTGlyph name="atilde" xMin="19" yMin="-2" xMax="397" yMax="744">
      <contour>
        <pt x="279" y="744" on="1"/>
        <pt x="358" y="744" on="1"/>
        <pt x="358" y="739" on="1"/>
        <pt x="357" y="690" on="0"/>
        <pt x="313" y="634" on="0"/>
        <pt x="269" y="634" on="1"/>
        <pt x="242" y="634" on="0"/>
        <pt x="174" y="673" on="0"/>
        <pt x="165" y="673" on="1"/>
        <pt x="144" y="673" on="0"/>
        <pt x="144" y="636" on="1"/>
        <pt x="144" y="633" on="1"/>
        <pt x="65" y="633" on="1"/>
        <pt x="65" y="635" on="1"/>
        <pt x="67" y="743" on="0"/>
        <pt x="154" y="743" on="1"/>
        <pt x="184" y="743" on="0"/>
        <pt x="250" y="704" on="0"/>
        <pt x="258" y="704" on="1"/>
        <pt x="279" y="704" on="0"/>
        <pt x="279" y="740" on="1"/>
      </contour>
      <contour>
        <pt x="167" y="171" on="1"/>
        <pt x="167" y="143" on="1"/>
        <pt x="167" y="109" on="0"/>
        <pt x="202" y="109" on="1"/>
        <pt x="232" y="109" on="0"/>
        <pt x="252" y="120" on="1"/>
        <pt x="252" y="241" on="1"/>
        <pt x="206" y="229" on="1"/>
        <pt x="181" y="222" on="0"/>
        <pt x="167" y="200" on="0"/>
      </contour>
      <contour>
        <pt x="50" y="576" on="1"/>
        <pt x="105" y="595" on="0"/>
        <pt x="309" y="595" on="0"/>
        <pt x="397" y="506" on="0"/>
        <pt x="397" y="416" on="1"/>
        <pt x="397" y="0" on="1"/>
        <pt x="256" y="0" on="1"/>
        <pt x="256" y="43" on="1"/>
        <pt x="227" y="-2" on="0"/>
        <pt x="83" y="-2" on="0"/>
        <pt x="19" y="67" on="0"/>
        <pt x="19" y="143" on="1"/>
        <pt x="19" y="177" on="1"/>
        <pt x="19" y="244" on="0"/>
        <pt x="78" y="316" on="0"/>
        <pt x="144" y="334" on="1"/>
        <pt x="253" y="362" on="1"/>
        <pt x="253" y="417" on="1"/>
        <pt x="252" y="443" on="0"/>
        <pt x="224" y="464" on="0"/>
        <pt x="187" y="464" on="1"/>
        <pt x="104" y="464" on="0"/>
        <pt x="50" y="443" on="1"/>
      </contour>
    </TTGlyph>
    <TTGlyph name="b" xMin="45" yMin="0" xMax="428" yMax="747">
      <contour>
        <pt x="275" y="430" on="1"/>
        <pt x="275" y="454" on="0"/>
        <pt x="214" y="454" on="0"/>
        <pt x="196" y="443" on="1"/>
        <pt x="196" y="139" on="1"/>
        <pt x="236" y="139" on="1"/>
        <pt x="275" y="139" on="0"/>
        <pt x="275" y="171" on="1"/>
      </contour>
      <contour>
        <pt x="45" y="747" on="1"/>
        <pt x="196" y="747" on="1"/>
        <pt x="196" y="578" on="1"/>
        <pt x="239" y="593" on="0"/>
        <pt x="359" y="593" on="0"/>
        <pt x="428" y="530" on="0"/>
        <pt x="428" y="467" on="1"/>
        <pt x="428" y="147" on="1"/>
        <pt x="428" y="72" on="0"/>
        <pt x="345" y="0" on="0"/>
        <pt x="275" y="0" on="1"/>
        <pt x="45" y="0" on="1"/>
      </contour>
    </TTGlyph>
    <TTGlyph name="backslash" xMin="39" yMin="-183" xMax="449" yMax="869">
      <contour>
        <pt x="39" y="869" on="1"/>
        <pt x="178" y="869" on="1"/>
        <pt x="449" y="-183" on="1"/>
        <pt x="309" y="-183" on="1"/>
      </contour>
    </TTGlyph>
    <TTGlyph name="bar" xMin="61" yMin="-190" xMax="161" yMax="880">
      <contour>
        <pt x="61" y="880" on="1"/>
        <pt x="161" y="880" on="1"/>
        <pt x="161" y="-190" on="1"/>
        <pt x="61" y="-190" on="1"/>
      </contour>
    </TTGlyph>
    <TTGlyph name="braceleft" xMin="54" yMin="-180" xMax="342" yMax="852">
      <contour>
        <pt x="258" y="684" on="1"/>
        <pt x="258" y="497" on="1"/>
        <pt x="258" y="427" on="0"/>
        <pt x="218" y="348" on="0"/>
        <pt x="165" y="337" on="1"/>
        <pt x="218" y="327" on="0"/>
        <pt x="258" y="255" on="0"/>
        <pt x="258" y="186" on="1"/>
        <pt x="258" y="-12" on="1"/>
        <pt x="258" y="-51" on="0"/>
        <pt x="297" y="-51" on="1"/>
        <pt x="342" y="-51" on="1"/>
        <pt x="342" y="-180" on="1"/>
        <pt x="286" y="-180" on="1"/>
        <pt x="211" y="-180" on="0"/>
        <pt x="128" y="-84" on="0"/>
        <pt x="128" y="-5" on="1"/>
        <pt x="128" y="213" on="1"/>
        <pt x="128" y="272" on="0"/>
        <pt x="59" y="272" on="1"/>
        <pt x="54" y="272" on="1"/>
        <pt x="54" y="401" on="1"/>
        <pt x="59" y="401" on="1"/>
        <pt x="128" y="401" on="0"/>
        <pt x="128" y="460" on="1"/>
        <pt x="128" y="677" on="1"/>
        <pt x="128" y="756" on="0"/>
        <pt x="211" y="852" on="0"/>
        <pt x="286" y="852" on="1"/>
        <pt x="342" y="852" on="1"/>
        <pt x="342" y="723" on="1"/>
        <pt x="297" y="723" on="1"/>
        <pt x="258" y="723" on="0"/>
      </contour>
    </TTGlyph>
    <TTGlyph name="braceright" xMin="64" yMin="-180" xMax="352" yMax="852">
      <contour>
        <pt x="347" y="401" on="1"/>
        <pt x="352" y="401" on="1"/>
        <pt x="352" y="272" on="1"/>
        <pt x="347" y="272" on="1"/>
        <pt x="278" y="272" on="0"/>
        <pt x="278" y="213" on="1"/>
        <pt x="278" y="-5" on="1"/>
        <pt x="278" y="-84" on="0"/>
        <pt x="195" y="-180" on="0"/>
        <pt x="120" y="-180" on="1"/>
        <pt x="64" y="-180" on="1"/>
        <pt x="64" y="-51" on="1"/>
        <pt x="109" y="-51" on="1"/>
        <pt x="148" y="-51" on="0"/>
        <pt x="148" y="-12" on="1"/>
        <pt x="148" y="186" on="1"/>
        <pt x="148" y="255" on="0"/>
        <pt x="188" y="327" on="0"/>
        <pt x="241" y="337" on="1"/>
        <pt x="188" y="348" on="0"/>
        <pt x="148" y="427" on="0"/>
        <pt x="148" y="497" on="1"/>
        <pt x="148" y="684" on="1"/>
        <pt x="148" y="723" on="0"/>
        <pt x="109" y="723" on="1"/>
        <pt x="64" y="723" on="1"/>
        <pt x="64" y="852" on="1"/>
        <pt x="120" y="852" on="1"/>
        <pt x="195" y="852" on="0"/>
        <pt x="278" y="756" on="0"/>
        <pt x="278" y="677" on="1"/>
        <pt x="278" y="460" on="1"/>
        <pt x="278" y="401" on="0"/>
      </contour>
    </TTGlyph>
    <TTGlyph name="bracketleft" xMin="88" yMin="-183" xMax="329" yMax="869">
      <contour>
        <pt x="209" y="-65" on="1"/>
        <pt x="329" y="-65" on="1"/>
        <pt x="329" y="-183" on="1"/>
        <pt x="88" y="-183" on="1"/>
        <pt x="88" y="869" on="1"/>
        <pt x="329" y="869" on="1"/>
        <pt x="329" y="752" on="1"/>
        <pt x="209" y="752" on="1"/>
      </contour>
    </TTGlyph>
    <TTGlyph name="bracketright" xMin="44" yMin="-183" xMax="285" yMax="869">
      <contour>
        <pt x="44" y="869" on="1"/>
        <pt x="285" y="869" on="1"/>
        <pt x="285" y="-183" on="1"/>
        <pt x="44" y="-183" on="1"/>
        <pt x="44" y="-65" on="1"/>
        <pt x="164" y="-65" on="1"/>
        <pt x="164" y="752" on="1"/>
        <pt x="44" y="752" on="1"/>
      </contour>
    </TTGlyph>
    <TTGlyph name="breve" xMin="55" yMin="632" xMax="295" yMax="747">
      <contour>
        <pt x="218" y="747" on="1"/>
        <pt x="295" y="747" on="1"/>
        <pt x="295" y="695" on="0"/>
        <pt x="227" y="632" on="0"/>
        <pt x="123" y="632" on="0"/>
        <pt x="55" y="696" on="0"/>
        <pt x="55" y="747" on="1"/>
        <pt x="132" y="747" on="1"/>
        <pt x="132" y="726" on="0"/>
        <pt x="154" y="700" on="0"/>
        <pt x="196" y="700" on="0"/>
        <pt x="218" y="726" on="0"/>
      </contour>
    </TTGlyph>
    <TTGlyph name="brokenbar" xMin="61" yMin="-190" xMax="161" yMax="880">
      <contour>
        <pt x="61" y="200" on="1"/>
        <pt x="161" y="200" on="1"/>
        <pt x="161" y="-190" on="1"/>
        <pt x="61" y="-190" on="1"/>
      </contour>
      <contour>
        <pt x="61" y="880" on="1"/>
        <pt x="161" y="880" on="1"/>
        <pt x="161" y="490" on="1"/>
        <pt x="61" y="490" on="1"/>
      </contour>
    </TTGlyph>
    <TTGlyph name="bullet" xMin="24" yMin="238" xMax="224" yMax="438">
      <contour>
        <pt x="24" y="238" on="0"/>
        <pt x="24" y="438" on="0"/>
        <pt x="224" y="438" on="0"/>
        <pt x="224" y="238" on="0"/>
      </contour>
    </TTGlyph>
    <TTGlyph name="c" xMin="35" yMin="-5" xMax="356" yMax="595">
      <contour>
        <pt x="35" y="421" on="1"/>
        <pt x="35" y="595" on="0"/>
        <pt x="231" y="595" on="1"/>
        <pt x="301" y="595" on="0"/>
        <pt x="356" y="580" on="1"/>
        <pt x="356" y="441" on="1"/>
        <pt x="303" y="457" on="0"/>
        <pt x="220" y="457" on="0"/>
        <pt x="186" y="436" on="0"/>
        <pt x="186" y="408" on="1"/>
        <pt x="186" y="182" on="1"/>
        <pt x="186" y="154" on="0"/>
        <pt x="220" y="133" on="0"/>
        <pt x="303" y="133" on="0"/>
        <pt x="356" y="149" on="1"/>
        <pt x="356" y="10" on="1"/>
        <pt x="301" y="-5" on="0"/>
        <pt x="231" y="-5" on="1"/>
        <pt x="35" y="-5" on="0"/>
        <pt x="35" y="169" on="1"/>
      </contour>
    </TTGlyph>
    <TTGlyph name="cacute" xMin="35" yMin="-5" xMax="356" yMax="747">
      <contour>
        <pt x="35" y="421" on="1"/>
        <pt x="35" y="595" on="0"/>
        <pt x="231" y="595" on="1"/>
        <pt x="301" y="595" on="0"/>
        <pt x="356" y="580" on="1"/>
        <pt x="356" y="441" on="1"/>
        <pt x="303" y="457" on="0"/>
        <pt x="220" y="457" on="0"/>
        <pt x="186" y="436" on="0"/>
        <pt x="186" y="408" on="1"/>
        <pt x="186" y="182" on="1"/>
        <pt x="186" y="154" on="0"/>
        <pt x="220" y="133" on="0"/>
        <pt x="303" y="133" on="0"/>
        <pt x="356" y="149" on="1"/>
        <pt x="356" y="10" on="1"/>
        <pt x="301" y="-5" on="0"/>
        <pt x="231" y="-5" on="1"/>
        <pt x="35" y="-5" on="0"/>
        <pt x="35" y="169" on="1"/>
      </contour>
      <contour>
        <pt x="232" y="747" on="1"/>
        <pt x="342" y="747" on="1"/>
        <pt x="267" y="632" on="1"/>
        <pt x="188" y="632" on="1"/>
      </contour>
    </TTGlyph>
    <TTGlyph name="caron" xMin="61" yMin="632" xMax="288" yMax="747">
      <contour>
        <pt x="215" y="747" on="1"/>
        <pt x="288" y="747" on="1"/>
        <pt x="228" y="632" on="1"/>
        <pt x="121" y="632" on="1"/>
        <pt x="61" y="747" on="1"/>
        <pt x="134" y="747" on="1"/>
        <pt x="175" y="693" on="1"/>
      </contour>
    </TTGlyph>
    <TTGlyph name="ccaron" xMin="35" yMin="-5" xMax="356" yMax="747">
      <contour>
        <pt x="356" y="441" on="1"/>
        <pt x="303" y="457" on="0"/>
        <pt x="220" y="457" on="0"/>
        <pt x="186" y="436" on="0"/>
        <pt x="186" y="408" on="1"/>
        <pt x="186" y="182" on="1"/>
        <pt x="186" y="154" on="0"/>
        <pt x="220" y="133" on="0"/>
        <pt x="303" y="133" on="0"/>
        <pt x="356" y="149" on="1"/>
        <pt x="356" y="10" on="1"/>
        <pt x="301" y="-5" on="0"/>
        <pt x="231" y="-5" on="1"/>
        <pt x="35" y="-5" on="0"/>
        <pt x="35" y="169" on="1"/>
        <pt x="35" y="421" on="1"/>
        <pt x="35" y="595" on="0"/>
        <pt x="231" y="595" on="1"/>
        <pt x="301" y="595" on="0"/>
        <pt x="356" y="580" on="1"/>
      </contour>
      <contour>
        <pt x="176" y="632" on="1"/>
        <pt x="116" y="747" on="1"/>
        <pt x="189" y="747" on="1"/>
        <pt x="230" y="693" on="1"/>
        <pt x="270" y="747" on="1"/>
        <pt x="343" y="747" on="1"/>
        <pt x="283" y="632" on="1"/>
      </contour>
    </TTGlyph>
    <TTGlyph name="ccedilla" xMin="35" yMin="-191" xMax="356" yMax="595">
      <contour>
        <pt x="356" y="441" on="1"/>
        <pt x="303" y="457" on="0"/>
        <pt x="220" y="457" on="0"/>
        <pt x="186" y="436" on="0"/>
        <pt x="186" y="408" on="1"/>
        <pt x="186" y="182" on="1"/>
        <pt x="186" y="154" on="0"/>
        <pt x="220" y="133" on="0"/>
        <pt x="303" y="133" on="0"/>
        <pt x="356" y="149" on="1"/>
        <pt x="356" y="10" on="1"/>
        <pt x="302" y="-4" on="0"/>
        <pt x="242" y="-5" on="1"/>
        <pt x="234" y="-39" on="1"/>
        <pt x="255" y="-41" on="0"/>
        <pt x="292" y="-73" on="0"/>
        <pt x="292" y="-145" on="0"/>
        <pt x="237" y="-191" on="0"/>
        <pt x="166" y="-191" on="0"/>
        <pt x="139" y="-185" on="1"/>
        <pt x="139" y="-119" on="1"/>
        <pt x="151" y="-124" on="0"/>
        <pt x="205" y="-124" on="0"/>
        <pt x="205" y="-79" on="0"/>
        <pt x="173" y="-77" on="1"/>
        <pt x="162" y="-77" on="1"/>
        <pt x="178" y="-1" on="1"/>
        <pt x="35" y="20" on="0"/>
        <pt x="35" y="169" on="1"/>
        <pt x="35" y="421" on="1"/>
        <pt x="35" y="595" on="0"/>
        <pt x="231" y="595" on="1"/>
        <pt x="301" y="595" on="0"/>
        <pt x="356" y="580" on="1"/>
      </contour>
    </TTGlyph>
    <TTGlyph name="cedilla" xMin="98" yMin="-191" xMax="251" yMax="6">
      <contour>
        <pt x="214" y="-41" on="0"/>
        <pt x="251" y="-73" on="0"/>
        <pt x="251" y="-145" on="0"/>
        <pt x="196" y="-191" on="0"/>
        <pt x="125" y="-191" on="0"/>
        <pt x="98" y="-185" on="1"/>
        <pt x="98" y="-119" on="1"/>
        <pt x="110" y="-124" on="0"/>
        <pt x="164" y="-124" on="0"/>
        <pt x="164" y="-79" on="0"/>
        <pt x="132" y="-77" on="1"/>
        <pt x="121" y="-77" on="1"/>
        <pt x="139" y="6" on="1"/>
        <pt x="203" y="6" on="1"/>
        <pt x="193" y="-39" on="1"/>
      </contour>
    </TTGlyph>
    <TTGlyph name="cent" xMin="37" yMin="-67" xMax="358" yMax="655">
      <contour>
        <pt x="358" y="441" on="1"/>
        <pt x="305" y="457" on="0"/>
        <pt x="222" y="457" on="0"/>
        <pt x="188" y="436" on="0"/>
        <pt x="188" y="408" on="1"/>
        <pt x="188" y="182" on="1"/>
        <pt x="188" y="154" on="0"/>
        <pt x="222" y="133" on="0"/>
        <pt x="305" y="133" on="0"/>
        <pt x="358" y="149" on="1"/>
        <pt x="358" y="10" on="1"/>
        <pt x="327" y="1" on="0"/>
        <pt x="293" y="-2" on="1"/>
        <pt x="293" y="-67" on="1"/>
        <pt x="153" y="-67" on="1"/>
        <pt x="153" y="4" on="1"/>
        <pt x="37" y="36" on="0"/>
        <pt x="37" y="169" on="1"/>
        <pt x="37" y="421" on="1"/>
        <pt x="37" y="558" on="0"/>
        <pt x="159" y="587" on="1"/>
        <pt x="159" y="655" on="1"/>
        <pt x="299" y="655" on="1"/>
        <pt x="299" y="592" on="1"/>
        <pt x="326" y="589" on="0"/>
        <pt x="358" y="580" on="1"/>
      </contour>
    </TTGlyph>
    <TTGlyph name="circumflex" xMin="61" yMin="632" xMax="288" yMax="747">
      <contour>
        <pt x="288" y="632" on="1"/>
        <pt x="215" y="632" on="1"/>
        <pt x="175" y="686" on="1"/>
        <pt x="134" y="632" on="1"/>
        <pt x="61" y="632" on="1"/>
        <pt x="121" y="747" on="1"/>
        <pt x="228" y="747" on="1"/>
      </contour>
    </TTGlyph>
    <TTGlyph name="colon" xMin="38" yMin="-10" xMax="205" yMax="498">
      <contour>
        <pt x="38" y="-10" on="0"/>
        <pt x="38" y="147" on="0"/>
        <pt x="205" y="147" on="0"/>
        <pt x="205" y="-10" on="0"/>
      </contour>
      <contour>
        <pt x="38" y="341" on="0"/>
        <pt x="38" y="498" on="0"/>
        <pt x="205" y="498" on="0"/>
        <pt x="205" y="341" on="0"/>
      </contour>
    </TTGlyph>
    <TTGlyph name="comma" xMin="15" yMin="-133" xMax="199" yMax="145">
      <contour>
        <pt x="136" y="145" on="1"/>
        <pt x="199" y="145" on="0"/>
        <pt x="199" y="88" on="1"/>
        <pt x="199" y="45" on="0"/>
        <pt x="129" y="-88" on="0"/>
        <pt x="95" y="-133" on="1"/>
        <pt x="15" y="-133" on="1"/>
        <pt x="61" y="145" on="1"/>
      </contour>
    </TTGlyph>
    <TTGlyph name="commaaccent" xMin="122" yMin="-216" xMax="228" yMax="-61">
      <contour>
        <pt x="193" y="-61" on="1"/>
        <pt x="228" y="-61" on="0"/>
        <pt x="228" y="-93" on="1"/>
        <pt x="228" y="-118" on="0"/>
        <pt x="189" y="-192" on="0"/>
        <pt x="170" y="-216" on="1"/>
        <pt x="122" y="-216" on="1"/>
        <pt x="147" y="-61" on="1"/>
      </contour>
    </TTGlyph>
    <TTGlyph name="copyright" xMin="35" yMin="0" xMax="673" yMax="671">
      <contour>
        <pt x="562" y="258" on="1"/>
        <pt x="565" y="288" on="0"/>
        <pt x="565" y="377" on="0"/>
        <pt x="562" y="425" on="0"/>
        <pt x="550" y="487" on="0"/>
        <pt x="523" y="521" on="0"/>
        <pt x="477" y="554" on="0"/>
        <pt x="404" y="568" on="0"/>
        <pt x="304" y="568" on="0"/>
        <pt x="232" y="554" on="0"/>
        <pt x="186" y="521" on="0"/>
        <pt x="159" y="486" on="0"/>
        <pt x="152" y="456" on="1"/>
        <pt x="143" y="411" on="0"/>
        <pt x="143" y="286" on="0"/>
        <pt x="148" y="228" on="0"/>
        <pt x="171" y="161" on="0"/>
        <pt x="193" y="144" on="1"/>
        <pt x="245" y="102" on="0"/>
        <pt x="354" y="102" on="1"/>
        <pt x="463" y="102" on="0"/>
        <pt x="514" y="144" on="1"/>
        <pt x="554" y="178" on="0"/>
      </contour>
      <contour>
        <pt x="362" y="515" on="1"/>
        <pt x="406" y="515" on="0"/>
        <pt x="440" y="505" on="1"/>
        <pt x="440" y="416" on="1"/>
        <pt x="396" y="423" on="0"/>
        <pt x="341" y="423" on="0"/>
        <pt x="328" y="410" on="0"/>
        <pt x="328" y="395" on="1"/>
        <pt x="328" y="278" on="1"/>
        <pt x="328" y="263" on="0"/>
        <pt x="341" y="250" on="0"/>
        <pt x="402" y="250" on="0"/>
        <pt x="440" y="256" on="1"/>
        <pt x="440" y="168" on="1"/>
        <pt x="412" y="158" on="0"/>
        <pt x="362" y="158" on="1"/>
        <pt x="226" y="158" on="0"/>
        <pt x="226" y="275" on="1"/>
        <pt x="226" y="398" on="1"/>
        <pt x="226" y="515" on="0"/>
      </contour>
      <contour>
        <pt x="62" y="143" on="0"/>
        <pt x="35" y="256" on="0"/>
        <pt x="35" y="413" on="0"/>
        <pt x="63" y="528" on="0"/>
        <pt x="97" y="575" on="1"/>
        <pt x="166" y="671" on="0"/>
        <pt x="354" y="671" on="1"/>
        <pt x="573" y="671" on="0"/>
        <pt x="636" y="538" on="1"/>
        <pt x="673" y="460" on="0"/>
        <pt x="673" y="335" on="1"/>
        <pt x="673" y="258" on="0"/>
        <pt x="645" y="144" on="0"/>
        <pt x="611" y="96" on="1"/>
        <pt x="542" y="0" on="0"/>
        <pt x="354" y="0" on="1"/>
        <pt x="164" y="0" on="0"/>
        <pt x="96" y="96" on="1"/>
      </contour>
    </TTGlyph>
    <TTGlyph name="currency" xMin="1" yMin="66" xMax="465" yMax="627">
      <contour>
        <pt x="435" y="404" on="1"/>
        <pt x="435" y="289" on="1"/>
        <pt x="435" y="237" on="0"/>
        <pt x="416" y="199" on="1"/>
        <pt x="464" y="151" on="1"/>
        <pt x="379" y="66" on="1"/>
        <pt x="322" y="123" on="1"/>
        <pt x="286" y="110" on="0"/>
        <pt x="184" y="110" on="0"/>
        <pt x="142" y="123" on="1"/>
        <pt x="86" y="66" on="1"/>
        <pt x="1" y="151" on="1"/>
        <pt x="50" y="200" on="1"/>
        <pt x="31" y="237" on="0"/>
        <pt x="31" y="289" on="1"/>
        <pt x="31" y="404" on="1"/>
        <pt x="31" y="456" on="0"/>
        <pt x="50" y="494" on="1"/>
        <pt x="2" y="542" on="1"/>
        <pt x="87" y="627" on="1"/>
        <pt x="143" y="570" on="1"/>
        <pt x="179" y="583" on="0"/>
        <pt x="282" y="583" on="0"/>
        <pt x="324" y="570" on="1"/>
        <pt x="380" y="627" on="1"/>
        <pt x="465" y="542" on="1"/>
        <pt x="416" y="493" on="1"/>
        <pt x="435" y="456" on="0"/>
      </contour>
      <contour>
        <pt x="176" y="399" on="1"/>
        <pt x="176" y="294" on="1"/>
        <pt x="176" y="241" on="0"/>
        <pt x="290" y="241" on="0"/>
        <pt x="290" y="294" on="1"/>
        <pt x="290" y="399" on="1"/>
        <pt x="290" y="452" on="0"/>
        <pt x="176" y="452" on="0"/>
      </contour>
    </TTGlyph>
    <TTGlyph name="d" xMin="35" yMin="-4" xMax="417" yMax="747">
      <contour>
        <pt x="266" y="456" on="1"/>
        <pt x="233" y="456" on="1"/>
        <pt x="186" y="456" on="0"/>
        <pt x="186" y="406" on="1"/>
        <pt x="186" y="159" on="1"/>
        <pt x="186" y="133" on="0"/>
        <pt x="246" y="133" on="0"/>
        <pt x="266" y="145" on="1"/>
      </contour>
      <contour>
        <pt x="265" y="747" on="1"/>
        <pt x="417" y="747" on="1"/>
        <pt x="417" y="0" on="1"/>
        <pt x="270" y="0" on="1"/>
        <pt x="270" y="42" on="1"/>
        <pt x="234" y="-4" on="0"/>
        <pt x="101" y="-4" on="0"/>
        <pt x="35" y="68" on="0"/>
        <pt x="35" y="132" on="1"/>
        <pt x="35" y="411" on="1"/>
        <pt x="35" y="495" on="0"/>
        <pt x="127" y="590" on="0"/>
        <pt x="221" y="590" on="1"/>
        <pt x="265" y="590" on="1"/>
      </contour>
    </TTGlyph>
    <TTGlyph name="dagger" xMin="19" yMin="-30" xMax="375" yMax="833">
      <contour>
        <pt x="127" y="833" on="1"/>
        <pt x="267" y="833" on="1"/>
        <pt x="267" y="761" on="0"/>
        <pt x="257" y="661" on="1"/>
        <pt x="310" y="671" on="0"/>
        <pt x="375" y="671" on="1"/>
        <pt x="375" y="554" on="1"/>
        <pt x="317" y="554" on="0"/>
        <pt x="257" y="564" on="1"/>
        <pt x="267" y="472" on="0"/>
        <pt x="267" y="363" on="1"/>
        <pt x="267" y="-30" on="1"/>
        <pt x="127" y="-30" on="1"/>
        <pt x="127" y="363" on="1"/>
        <pt x="127" y="460" on="0"/>
        <pt x="137" y="564" on="1"/>
        <pt x="84" y="554" on="0"/>
        <pt x="19" y="554" on="1"/>
        <pt x="19" y="671" on="1"/>
        <pt x="77" y="671" on="0"/>
        <pt x="137" y="661" on="1"/>
        <pt x="127" y="752" on="0"/>
      </contour>
    </TTGlyph>
    <TTGlyph name="daggerdbl" xMin="18" yMin="-30" xMax="374" yMax="833">
      <contour>
        <pt x="126" y="833" on="1"/>
        <pt x="266" y="833" on="1"/>
        <pt x="266" y="761" on="0"/>
        <pt x="256" y="661" on="1"/>
        <pt x="309" y="671" on="0"/>
        <pt x="374" y="671" on="1"/>
        <pt x="374" y="554" on="1"/>
        <pt x="316" y="554" on="0"/>
        <pt x="256" y="564" on="1"/>
        <pt x="258" y="517" on="0"/>
        <pt x="258" y="291" on="0"/>
        <pt x="256" y="239" on="1"/>
        <pt x="309" y="249" on="0"/>
        <pt x="374" y="249" on="1"/>
        <pt x="374" y="132" on="1"/>
        <pt x="316" y="132" on="0"/>
        <pt x="256" y="142" on="1"/>
        <pt x="266" y="85" on="0"/>
        <pt x="266" y="-30" on="1"/>
        <pt x="126" y="-30" on="1"/>
        <pt x="126" y="72" on="0"/>
        <pt x="136" y="142" on="1"/>
        <pt x="83" y="132" on="0"/>
        <pt x="18" y="132" on="1"/>
        <pt x="18" y="249" on="1"/>
        <pt x="76" y="249" on="0"/>
        <pt x="136" y="239" on="1"/>
        <pt x="134" y="291" on="0"/>
        <pt x="134" y="516" on="0"/>
        <pt x="136" y="564" on="1"/>
        <pt x="83" y="554" on="0"/>
        <pt x="18" y="554" on="1"/>
        <pt x="18" y="671" on="1"/>
        <pt x="76" y="671" on="0"/>
        <pt x="136" y="661" on="1"/>
        <pt x="126" y="752" on="0"/>
      </contour>
    </TTGlyph>
    <TTGlyph name="dcaron" xMin="35" yMin="-4" xMax="561" yMax="747">
      <contour>
        <pt x="526" y="747" on="1"/>
        <pt x="561" y="747" on="0"/>
        <pt x="561" y="715" on="1"/>
        <pt x="561" y="690" on="0"/>
        <pt x="522" y="616" on="0"/>
        <pt x="503" y="592" on="1"/>
        <pt x="455" y="592" on="1"/>
        <pt x="480" y="747" on="1"/>
      </contour>
      <contour>
        <pt x="266" y="456" on="1"/>
        <pt x="233" y="456" on="1"/>
        <pt x="186" y="456" on="0"/>
        <pt x="186" y="406" on="1"/>
        <pt x="186" y="159" on="1"/>
        <pt x="186" y="133" on="0"/>
        <pt x="246" y="133" on="0"/>
        <pt x="266" y="145" on="1"/>
      </contour>
      <contour>
        <pt x="265" y="747" on="1"/>
        <pt x="417" y="747" on="1"/>
        <pt x="417" y="0" on="1"/>
        <pt x="270" y="0" on="1"/>
        <pt x="270" y="42" on="1"/>
        <pt x="234" y="-4" on="0"/>
        <pt x="101" y="-4" on="0"/>
        <pt x="35" y="68" on="0"/>
        <pt x="35" y="132" on="1"/>
        <pt x="35" y="411" on="1"/>
        <pt x="35" y="495" on="0"/>
        <pt x="127" y="590" on="0"/>
        <pt x="221" y="590" on="1"/>
        <pt x="265" y="590" on="1"/>
      </contour>
    </TTGlyph>
    <TTGlyph name="dcroat" xMin="38" yMin="-4" xMax="460" yMax="747">
      <contour>
        <pt x="460" y="700" on="1"/>
        <pt x="460" y="636" on="1"/>
        <pt x="420" y="636" on="1"/>
        <pt x="420" y="0" on="1"/>
        <pt x="273" y="0" on="1"/>
        <pt x="273" y="42" on="1"/>
        <pt x="237" y="-4" on="0"/>
        <pt x="104" y="-4" on="0"/>
        <pt x="38" y="68" on="0"/>
        <pt x="38" y="132" on="1"/>
        <pt x="38" y="411" on="1"/>
        <pt x="38" y="495" on="0"/>
        <pt x="130" y="590" on="0"/>
        <pt x="224" y="590" on="1"/>
        <pt x="268" y="590" on="1"/>
        <pt x="268" y="636" on="1"/>
        <pt x="140" y="636" on="1"/>
        <pt x="140" y="700" on="1"/>
        <pt x="268" y="700" on="1"/>
        <pt x="268" y="747" on="1"/>
        <pt x="420" y="747" on="1"/>
        <pt x="420" y="700" on="1"/>
      </contour>
      <contour>
        <pt x="269" y="456" on="1"/>
        <pt x="236" y="456" on="1"/>
        <pt x="189" y="456" on="0"/>
        <pt x="189" y="406" on="1"/>
        <pt x="189" y="159" on="1"/>
        <pt x="189" y="133" on="0"/>
        <pt x="249" y="133" on="0"/>
        <pt x="269" y="145" on="1"/>
      </contour>
    </TTGlyph>
    <TTGlyph name="degree" xMin="42" yMin="492" xMax="397" yMax="856">
      <contour>
        <pt x="273" y="605" on="0"/>
        <pt x="273" y="743" on="0"/>
        <pt x="219" y="743" on="1"/>
        <pt x="190" y="743" on="0"/>
        <pt x="166" y="709" on="0"/>
        <pt x="166" y="639" on="0"/>
        <pt x="190" y="605" on="0"/>
        <pt x="219" y="605" on="1"/>
      </contour>
      <contour>
        <pt x="42" y="590" on="0"/>
        <pt x="42" y="758" on="0"/>
        <pt x="129" y="856" on="0"/>
        <pt x="310" y="856" on="0"/>
        <pt x="397" y="758" on="0"/>
        <pt x="397" y="590" on="0"/>
        <pt x="310" y="492" on="0"/>
        <pt x="129" y="492" on="0"/>
      </contour>
    </TTGlyph>
    <TTGlyph name="dieresis" xMin="32" yMin="635" xMax="319" yMax="744">
      <contour>
        <pt x="319" y="635" on="0"/>
        <pt x="203" y="635" on="0"/>
        <pt x="203" y="744" on="0"/>
        <pt x="319" y="744" on="0"/>
      </contour>
      <contour>
        <pt x="148" y="635" on="0"/>
        <pt x="32" y="635" on="0"/>
        <pt x="32" y="744" on="0"/>
        <pt x="148" y="744" on="0"/>
      </contour>
    </TTGlyph>
    <TTGlyph name="divide" xMin="41" yMin="85" xMax="455" yMax="578">
      <contour>
        <pt x="172" y="428" on="0"/>
        <pt x="172" y="578" on="0"/>
        <pt x="322" y="578" on="0"/>
        <pt x="322" y="428" on="0"/>
      </contour>
      <contour>
        <pt x="172" y="85" on="0"/>
        <pt x="172" y="235" on="0"/>
        <pt x="322" y="235" on="0"/>
        <pt x="322" y="85" on="0"/>
        <pt x="248" y="85" on="1"/>
      </contour>
      <contour>
        <pt x="41" y="396" on="1"/>
        <pt x="455" y="396" on="1"/>
        <pt x="455" y="266" on="1"/>
        <pt x="41" y="266" on="1"/>
      </contour>
    </TTGlyph>
    <TTGlyph name="dollar" xMin="20" yMin="-53" xMax="421" yMax="747">
      <contour>
        <pt x="421" y="225" on="1"/>
        <pt x="421" y="163" on="1"/>
        <pt x="421" y="36" on="0"/>
        <pt x="282" y="5" on="1"/>
        <pt x="282" y="-53" on="1"/>
        <pt x="140" y="-53" on="1"/>
        <pt x="140" y="-3" on="1"/>
        <pt x="68" y="2" on="0"/>
        <pt x="29" y="18" on="1"/>
        <pt x="29" y="163" on="1"/>
        <pt x="97" y="134" on="0"/>
        <pt x="269" y="134" on="0"/>
        <pt x="269" y="183" on="1"/>
        <pt x="269" y="198" on="1"/>
        <pt x="269" y="221" on="0"/>
        <pt x="250" y="244" on="0"/>
        <pt x="224" y="258" on="1"/>
        <pt x="117" y="316" on="1"/>
        <pt x="20" y="370" on="0"/>
        <pt x="20" y="468" on="1"/>
        <pt x="20" y="531" on="1"/>
        <pt x="20" y="656" on="0"/>
        <pt x="147" y="688" on="1"/>
        <pt x="147" y="747" on="1"/>
        <pt x="289" y="747" on="1"/>
        <pt x="289" y="696" on="1"/>
        <pt x="349" y="691" on="0"/>
        <pt x="381" y="677" on="1"/>
        <pt x="381" y="533" on="1"/>
        <pt x="320" y="559" on="0"/>
        <pt x="242" y="559" on="1"/>
        <pt x="202" y="559" on="0"/>
        <pt x="174" y="534" on="0"/>
        <pt x="174" y="511" on="1"/>
        <pt x="174" y="496" on="1"/>
        <pt x="174" y="468" on="0"/>
        <pt x="193" y="441" on="0"/>
        <pt x="225" y="424" on="1"/>
        <pt x="339" y="360" on="1"/>
        <pt x="421" y="315" on="0"/>
      </contour>
    </TTGlyph>
    <TTGlyph name="dotaccent" xMin="117" yMin="635" xMax="233" yMax="744">
      <contour>
        <pt x="233" y="635" on="0"/>
        <pt x="117" y="635" on="0"/>
        <pt x="117" y="744" on="0"/>
        <pt x="233" y="744" on="0"/>
      </contour>
    </TTGlyph>
    <TTGlyph name="dotlessi" xMin="45" yMin="0" xMax="196" yMax="574">
      <contour>
        <pt x="45" y="574" on="1"/>
        <pt x="196" y="574" on="1"/>
        <pt x="196" y="0" on="1"/>
        <pt x="45" y="0" on="1"/>
      </contour>
    </TTGlyph>
    <TTGlyph name="dvDDH_DDHA" xMin="-40" yMin="-312" xMax="512" yMax="671">
      <contour>
        <pt x="297" y="-127" on="0"/>
        <pt x="279" y="-113" on="0"/>
        <pt x="242" y="-113" on="0"/>
        <pt x="228" y="-121" on="1"/>
        <pt x="228" y="-18" on="1"/>
        <pt x="252" y="-10" on="0"/>
        <pt x="283" y="-10" on="1"/>
        <pt x="431" y="-10" on="0"/>
        <pt x="431" y="-142" on="1"/>
        <pt x="431" y="-155" on="1"/>
        <pt x="431" y="-235" on="0"/>
        <pt x="335" y="-312" on="0"/>
        <pt x="237" y="-312" on="1"/>
        <pt x="39" y="-312" on="0"/>
        <pt x="39" y="-150" on="1"/>
        <pt x="39" y="-17" on="1"/>
        <pt x="39" y="53" on="0"/>
        <pt x="77" y="90" on="1"/>
        <pt x="42" y="130" on="0"/>
        <pt x="42" y="197" on="1"/>
        <pt x="42" y="350" on="1"/>
        <pt x="42" y="429" on="0"/>
        <pt x="125" y="499" on="0"/>
        <pt x="219" y="499" on="1"/>
        <pt x="253" y="499" on="1"/>
        <pt x="253" y="554" on="1"/>
        <pt x="-40" y="554" on="1"/>
        <pt x="-40" y="671" on="1"/>
        <pt x="512" y="671" on="1"/>
        <pt x="512" y="554" on="1"/>
        <pt x="391" y="554" on="1"/>
        <pt x="391" y="382" on="1"/>
        <pt x="219" y="382" on="1"/>
        <pt x="196" y="382" on="0"/>
        <pt x="180" y="366" on="0"/>
        <pt x="180" y="345" on="1"/>
        <pt x="180" y="201" on="1"/>
        <pt x="180" y="178" on="0"/>
        <pt x="204" y="153" on="0"/>
        <pt x="276" y="153" on="0"/>
        <pt x="300" y="176" on="0"/>
        <pt x="300" y="199" on="1"/>
        <pt x="300" y="200" on="1"/>
        <pt x="300" y="220" on="0"/>
        <pt x="282" y="234" on="0"/>
        <pt x="245" y="234" on="0"/>
        <pt x="231" y="226" on="1"/>
        <pt x="231" y="329" on="1"/>
        <pt x="255" y="337" on="0"/>
        <pt x="286" y="337" on="1"/>
        <pt x="434" y="337" on="0"/>
        <pt x="434" y="205" on="1"/>
        <pt x="434" y="192" on="1"/>
        <pt x="434" y="112" on="0"/>
        <pt x="338" y="35" on="0"/>
        <pt x="240" y="35" on="1"/>
        <pt x="230" y="35" on="1"/>
        <pt x="198" y="35" on="0"/>
        <pt x="177" y="11" on="0"/>
        <pt x="177" y="-22" on="1"/>
        <pt x="177" y="-146" on="1"/>
        <pt x="177" y="-169" on="0"/>
        <pt x="201" y="-194" on="0"/>
        <pt x="273" y="-194" on="0"/>
        <pt x="297" y="-171" on="0"/>
        <pt x="297" y="-148" on="1"/>
        <pt x="297" y="-147" on="1"/>
      </contour>
    </TTGlyph>
    <TTGlyph name="dvDD_GA" xMin="-40" yMin="-200" xMax="493" yMax="671">
      <contour>
        <pt x="398" y="395" on="1"/>
        <pt x="219" y="395" on="1"/>
        <pt x="187" y="395" on="0"/>
        <pt x="187" y="371" on="1"/>
        <pt x="187" y="365" on="1"/>
        <pt x="187" y="342" on="0"/>
        <pt x="219" y="342" on="1"/>
        <pt x="243" y="342" on="1"/>
        <pt x="341" y="342" on="0"/>
        <pt x="429" y="278" on="0"/>
        <pt x="429" y="200" on="1"/>
        <pt x="429" y="193" on="1"/>
        <pt x="429" y="132" on="0"/>
        <pt x="392" y="98" on="1"/>
        <pt x="392" y="-200" on="1"/>
        <pt x="262" y="-200" on="1"/>
        <pt x="262" y="52" on="1"/>
        <pt x="234" y="50" on="0"/>
        <pt x="216" y="50" on="1"/>
        <pt x="216" y="9" on="1"/>
        <pt x="216" y="-76" on="0"/>
        <pt x="152" y="-140" on="0"/>
        <pt x="68" y="-140" on="1"/>
        <pt x="26" y="-140" on="1"/>
        <pt x="26" y="-18" on="1"/>
        <pt x="43" y="-18" on="1"/>
        <pt x="69" y="-18" on="0"/>
        <pt x="86" y="-2" on="0"/>
        <pt x="86" y="22" on="1"/>
        <pt x="86" y="61" on="1"/>
        <pt x="79" y="62" on="0"/>
        <pt x="38" y="70" on="1"/>
        <pt x="38" y="185" on="1"/>
        <pt x="127" y="165" on="0"/>
        <pt x="246" y="165" on="0"/>
        <pt x="284" y="177" on="0"/>
        <pt x="284" y="199" on="1"/>
        <pt x="284" y="203" on="1"/>
        <pt x="284" y="233" on="0"/>
        <pt x="243" y="233" on="1"/>
        <pt x="223" y="233" on="1"/>
        <pt x="129" y="233" on="0"/>
        <pt x="41" y="284" on="0"/>
        <pt x="41" y="361" on="1"/>
        <pt x="41" y="373" on="1"/>
        <pt x="41" y="499" on="0"/>
        <pt x="227" y="499" on="1"/>
        <pt x="252" y="499" on="1"/>
        <pt x="252" y="554" on="1"/>
        <pt x="-40" y="554" on="1"/>
        <pt x="-40" y="671" on="1"/>
        <pt x="493" y="671" on="1"/>
        <pt x="493" y="554" on="1"/>
        <pt x="398" y="554" on="1"/>
      </contour>
    </TTGlyph>
    <TTGlyph name="dvMatraI.a33" xMin="-40" yMin="0" xMax="1377" yMax="903">
      <contour>
        <pt x="45" y="671" on="1"/>
        <pt x="45" y="687" on="1"/>
        <pt x="45" y="903" on="0"/>
        <pt x="334" y="903" on="1"/>
        <pt x="721" y="903" on="0"/>
        <pt x="1377" y="846" on="1"/>
        <pt x="1377" y="722" on="1"/>
        <pt x="739" y="774" on="0"/>
        <pt x="346" y="774" on="1"/>
        <pt x="254" y="774" on="0"/>
        <pt x="185" y="734" on="0"/>
        <pt x="185" y="684" on="1"/>
        <pt x="185" y="671" on="1"/>
        <pt x="264" y="671" on="1"/>
        <pt x="264" y="554" on="1"/>
        <pt x="182" y="554" on="1"/>
        <pt x="182" y="0" on="1"/>
        <pt x="42" y="0" on="1"/>
        <pt x="42" y="554" on="1"/>
        <pt x="-40" y="554" on="1"/>
        <pt x="-40" y="671" on="1"/>
      </contour>
    </TTGlyph>
    <TTGlyph name="dvMatraI.a34" xMin="-40" yMin="0" xMax="1403" yMax="903">
      <contour>
        <pt x="45" y="671" on="1"/>
        <pt x="45" y="687" on="1"/>
        <pt x="45" y="903" on="0"/>
        <pt x="334" y="903" on="1"/>
        <pt x="738" y="903" on="0"/>
        <pt x="1403" y="845" on="1"/>
        <pt x="1403" y="721" on="1"/>
        <pt x="757" y="774" on="0"/>
        <pt x="346" y="774" on="1"/>
        <pt x="254" y="774" on="0"/>
        <pt x="185" y="734" on="0"/>
        <pt x="185" y="684" on="1"/>
        <pt x="185" y="671" on="1"/>
        <pt x="264" y="671" on="1"/>
        <pt x="264" y="554" on="1"/>
        <pt x="182" y="554" on="1"/>
        <pt x="182" y="0" on="1"/>
        <pt x="42" y="0" on="1"/>
        <pt x="42" y="554" on="1"/>
        <pt x="-40" y="554" on="1"/>
        <pt x="-40" y="671" on="1"/>
      </contour>
    </TTGlyph>
    <TTGlyph name="dvMatraI.a35" xMin="-40" yMin="0" xMax="1429" yMax="903">
      <contour>
        <pt x="45" y="671" on="1"/>
        <pt x="45" y="687" on="1"/>
        <pt x="45" y="903" on="0"/>
        <pt x="336" y="903" on="1"/>
        <pt x="747" y="903" on="0"/>
        <pt x="1429" y="845" on="1"/>
        <pt x="1429" y="721" on="1"/>
        <pt x="766" y="774" on="0"/>
        <pt x="348" y="774" on="1"/>
        <pt x="255" y="774" on="0"/>
        <pt x="185" y="734" on="0"/>
        <pt x="185" y="684" on="1"/>
        <pt x="185" y="671" on="1"/>
        <pt x="264" y="671" on="1"/>
        <pt x="264" y="554" on="1"/>
        <pt x="182" y="554" on="1"/>
        <pt x="182" y="0" on="1"/>
        <pt x="42" y="0" on="1"/>
        <pt x="42" y="554" on="1"/>
        <pt x="-40" y="554" on="1"/>
        <pt x="-40" y="671" on="1"/>
      </contour>
    </TTGlyph>
    <TTGlyph name="dvMatraI.a36" xMin="-40" yMin="0" xMax="1455" yMax="903">
      <contour>
        <pt x="45" y="671" on="1"/>
        <pt x="45" y="687" on="1"/>
        <pt x="45" y="903" on="0"/>
        <pt x="336" y="903" on="1"/>
        <pt x="765" y="903" on="0"/>
        <pt x="1455" y="844" on="1"/>
        <pt x="1455" y="720" on="1"/>
        <pt x="783" y="774" on="0"/>
        <pt x="348" y="774" on="1"/>
        <pt x="255" y="774" on="0"/>
        <pt x="185" y="734" on="0"/>
        <pt x="185" y="684" on="1"/>
        <pt x="185" y="671" on="1"/>
        <pt x="264" y="671" on="1"/>
        <pt x="264" y="554" on="1"/>
        <pt x="182" y="554" on="1"/>
        <pt x="182" y="0" on="1"/>
        <pt x="42" y="0" on="1"/>
        <pt x="42" y="554" on="1"/>
        <pt x="-40" y="554" on="1"/>
        <pt x="-40" y="671" on="1"/>
      </contour>
    </TTGlyph>
    <TTGlyph name="dvMatraI.a37" xMin="-40" yMin="0" xMax="1482" yMax="903">
      <contour>
        <pt x="45" y="671" on="1"/>
        <pt x="45" y="687" on="1"/>
        <pt x="45" y="903" on="0"/>
        <pt x="338" y="903" on="1"/>
        <pt x="784" y="903" on="0"/>
        <pt x="1482" y="845" on="1"/>
        <pt x="1482" y="721" on="1"/>
        <pt x="806" y="774" on="0"/>
        <pt x="350" y="774" on="1"/>
        <pt x="255" y="774" on="0"/>
        <pt x="185" y="734" on="0"/>
        <pt x="185" y="684" on="1"/>
        <pt x="185" y="671" on="1"/>
        <pt x="264" y="671" on="1"/>
        <pt x="264" y="554" on="1"/>
        <pt x="182" y="554" on="1"/>
        <pt x="182" y="0" on="1"/>
        <pt x="42" y="0" on="1"/>
        <pt x="42" y="554" on="1"/>
        <pt x="-40" y="554" on="1"/>
        <pt x="-40" y="671" on="1"/>
      </contour>
    </TTGlyph>
    <TTGlyph name="dvMatraI.a38" xMin="-40" yMin="0" xMax="1507" yMax="903">
      <contour>
        <pt x="45" y="671" on="1"/>
        <pt x="45" y="687" on="1"/>
        <pt x="45" y="903" on="0"/>
        <pt x="338" y="903" on="1"/>
        <pt x="793" y="903" on="0"/>
        <pt x="1507" y="845" on="1"/>
        <pt x="1507" y="721" on="1"/>
        <pt x="815" y="774" on="0"/>
        <pt x="350" y="774" on="1"/>
        <pt x="255" y="774" on="0"/>
        <pt x="185" y="734" on="0"/>
        <pt x="185" y="684" on="1"/>
        <pt x="185" y="671" on="1"/>
        <pt x="264" y="671" on="1"/>
        <pt x="264" y="554" on="1"/>
        <pt x="182" y="554" on="1"/>
        <pt x="182" y="0" on="1"/>
        <pt x="42" y="0" on="1"/>
        <pt x="42" y="554" on="1"/>
        <pt x="-40" y="554" on="1"/>
        <pt x="-40" y="671" on="1"/>
      </contour>
    </TTGlyph>
    <TTGlyph name="dvMatraI.a39" xMin="-40" yMin="0" xMax="1534" yMax="903">
      <contour>
        <pt x="45" y="671" on="1"/>
        <pt x="45" y="687" on="1"/>
        <pt x="45" y="903" on="0"/>
        <pt x="340" y="903" on="1"/>
        <pt x="812" y="903" on="0"/>
        <pt x="1534" y="844" on="1"/>
        <pt x="1534" y="720" on="1"/>
        <pt x="834" y="774" on="0"/>
        <pt x="352" y="774" on="1"/>
        <pt x="257" y="774" on="0"/>
        <pt x="185" y="734" on="0"/>
        <pt x="185" y="684" on="1"/>
        <pt x="185" y="671" on="1"/>
        <pt x="264" y="671" on="1"/>
        <pt x="264" y="554" on="1"/>
        <pt x="182" y="554" on="1"/>
        <pt x="182" y="0" on="1"/>
        <pt x="42" y="0" on="1"/>
        <pt x="42" y="554" on="1"/>
        <pt x="-40" y="554" on="1"/>
        <pt x="-40" y="671" on="1"/>
      </contour>
    </TTGlyph>
    <TTGlyph name="dvMatraI.a40" xMin="-40" yMin="0" xMax="1559" yMax="903">
      <contour>
        <pt x="45" y="671" on="1"/>
        <pt x="45" y="687" on="1"/>
        <pt x="45" y="903" on="0"/>
        <pt x="340" y="903" on="1"/>
        <pt x="822" y="903" on="0"/>
        <pt x="1559" y="844" on="1"/>
        <pt x="1559" y="720" on="1"/>
        <pt x="844" y="774" on="0"/>
        <pt x="352" y="774" on="1"/>
        <pt x="257" y="774" on="0"/>
        <pt x="185" y="734" on="0"/>
        <pt x="185" y="684" on="1"/>
        <pt x="185" y="671" on="1"/>
        <pt x="264" y="671" on="1"/>
        <pt x="264" y="554" on="1"/>
        <pt x="182" y="554" on="1"/>
        <pt x="182" y="0" on="1"/>
        <pt x="42" y="0" on="1"/>
        <pt x="42" y="554" on="1"/>
        <pt x="-40" y="554" on="1"/>
        <pt x="-40" y="671" on="1"/>
      </contour>
    </TTGlyph>
    <TTGlyph name="dvMatraI.a41" xMin="-40" yMin="0" xMax="1585" yMax="903">
      <contour>
        <pt x="45" y="671" on="1"/>
        <pt x="45" y="687" on="1"/>
        <pt x="45" y="903" on="0"/>
        <pt x="341" y="903" on="1"/>
        <pt x="839" y="903" on="0"/>
        <pt x="1585" y="843" on="1"/>
        <pt x="1585" y="719" on="1"/>
        <pt x="860" y="774" on="0"/>
        <pt x="353" y="774" on="1"/>
        <pt x="256" y="774" on="0"/>
        <pt x="185" y="734" on="0"/>
        <pt x="185" y="684" on="1"/>
        <pt x="185" y="671" on="1"/>
        <pt x="264" y="671" on="1"/>
        <pt x="264" y="554" on="1"/>
        <pt x="182" y="554" on="1"/>
        <pt x="182" y="0" on="1"/>
        <pt x="42" y="0" on="1"/>
        <pt x="42" y="554" on="1"/>
        <pt x="-40" y="554" on="1"/>
        <pt x="-40" y="671" on="1"/>
      </contour>
    </TTGlyph>
    <TTGlyph name="dvMatraI.a42" xMin="-40" yMin="0" xMax="1611" yMax="903">
      <contour>
        <pt x="45" y="671" on="1"/>
        <pt x="45" y="687" on="1"/>
        <pt x="45" y="903" on="0"/>
        <pt x="342" y="903" on="1"/>
        <pt x="827" y="903" on="0"/>
        <pt x="1611" y="843" on="1"/>
        <pt x="1611" y="719" on="1"/>
        <pt x="872" y="774" on="0"/>
        <pt x="354" y="774" on="1"/>
        <pt x="257" y="774" on="0"/>
        <pt x="185" y="734" on="0"/>
        <pt x="185" y="684" on="1"/>
        <pt x="185" y="671" on="1"/>
        <pt x="264" y="671" on="1"/>
        <pt x="264" y="554" on="1"/>
        <pt x="182" y="554" on="1"/>
        <pt x="182" y="0" on="1"/>
        <pt x="42" y="0" on="1"/>
        <pt x="42" y="554" on="1"/>
        <pt x="-40" y="554" on="1"/>
        <pt x="-40" y="671" on="1"/>
      </contour>
    </TTGlyph>
    <TTGlyph name="dvMatraI.a43" xMin="-40" yMin="0" xMax="1637" yMax="903">
      <contour>
        <pt x="45" y="671" on="1"/>
        <pt x="45" y="687" on="1"/>
        <pt x="45" y="903" on="0"/>
        <pt x="343" y="903" on="1"/>
        <pt x="836" y="903" on="0"/>
        <pt x="1637" y="843" on="1"/>
        <pt x="1637" y="719" on="1"/>
        <pt x="882" y="774" on="0"/>
        <pt x="355" y="774" on="1"/>
        <pt x="257" y="774" on="0"/>
        <pt x="185" y="734" on="0"/>
        <pt x="185" y="684" on="1"/>
        <pt x="185" y="671" on="1"/>
        <pt x="264" y="671" on="1"/>
        <pt x="264" y="554" on="1"/>
        <pt x="182" y="554" on="1"/>
        <pt x="182" y="0" on="1"/>
        <pt x="42" y="0" on="1"/>
        <pt x="42" y="554" on="1"/>
        <pt x="-40" y="554" on="1"/>
        <pt x="-40" y="671" on="1"/>
      </contour>
    </TTGlyph>
    <TTGlyph name="dvMatraI.a44" xMin="-40" yMin="0" xMax="1664" yMax="903">
      <contour>
        <pt x="45" y="671" on="1"/>
        <pt x="45" y="687" on="1"/>
        <pt x="45" y="903" on="0"/>
        <pt x="344" y="903" on="1"/>
        <pt x="854" y="903" on="0"/>
        <pt x="1664" y="842" on="1"/>
        <pt x="1664" y="718" on="1"/>
        <pt x="899" y="774" on="0"/>
        <pt x="356" y="774" on="1"/>
        <pt x="258" y="774" on="0"/>
        <pt x="185" y="734" on="0"/>
        <pt x="185" y="684" on="1"/>
        <pt x="185" y="671" on="1"/>
        <pt x="264" y="671" on="1"/>
        <pt x="264" y="554" on="1"/>
        <pt x="182" y="554" on="1"/>
        <pt x="182" y="0" on="1"/>
        <pt x="42" y="0" on="1"/>
        <pt x="42" y="554" on="1"/>
        <pt x="-40" y="554" on="1"/>
        <pt x="-40" y="671" on="1"/>
      </contour>
    </TTGlyph>
    <TTGlyph name="dvMatraI.a45" xMin="-40" yMin="0" xMax="1689" yMax="903">
      <contour>
        <pt x="45" y="671" on="1"/>
        <pt x="45" y="687" on="1"/>
        <pt x="45" y="903" on="0"/>
        <pt x="345" y="903" on="1"/>
        <pt x="863" y="903" on="0"/>
        <pt x="1689" y="842" on="1"/>
        <pt x="1689" y="718" on="1"/>
        <pt x="910" y="774" on="0"/>
        <pt x="357" y="774" on="1"/>
        <pt x="258" y="774" on="0"/>
        <pt x="185" y="734" on="0"/>
        <pt x="185" y="684" on="1"/>
        <pt x="185" y="671" on="1"/>
        <pt x="264" y="671" on="1"/>
        <pt x="264" y="554" on="1"/>
        <pt x="182" y="554" on="1"/>
        <pt x="182" y="0" on="1"/>
        <pt x="42" y="0" on="1"/>
        <pt x="42" y="554" on="1"/>
        <pt x="-40" y="554" on="1"/>
        <pt x="-40" y="671" on="1"/>
      </contour>
    </TTGlyph>
    <TTGlyph name="dvMatraI.a46" xMin="-40" yMin="0" xMax="1716" yMax="903">
      <contour>
        <pt x="45" y="671" on="1"/>
        <pt x="45" y="687" on="1"/>
        <pt x="45" y="903" on="0"/>
        <pt x="346" y="903" on="1"/>
        <pt x="882" y="903" on="0"/>
        <pt x="1716" y="841" on="1"/>
        <pt x="1716" y="717" on="1"/>
        <pt x="928" y="774" on="0"/>
        <pt x="358" y="774" on="1"/>
        <pt x="259" y="774" on="0"/>
        <pt x="185" y="734" on="0"/>
        <pt x="185" y="684" on="1"/>
        <pt x="185" y="671" on="1"/>
        <pt x="264" y="671" on="1"/>
        <pt x="264" y="554" on="1"/>
        <pt x="182" y="554" on="1"/>
        <pt x="182" y="0" on="1"/>
        <pt x="42" y="0" on="1"/>
        <pt x="42" y="554" on="1"/>
        <pt x="-40" y="554" on="1"/>
        <pt x="-40" y="671" on="1"/>
      </contour>
    </TTGlyph>
    <TTGlyph name="dvMatraI.a47" xMin="-40" yMin="0" xMax="1741" yMax="903">
      <contour>
        <pt x="45" y="671" on="1"/>
        <pt x="45" y="687" on="1"/>
        <pt x="45" y="903" on="0"/>
        <pt x="347" y="903" on="1"/>
        <pt x="892" y="903" on="0"/>
        <pt x="1741" y="841" on="1"/>
        <pt x="1741" y="717" on="1"/>
        <pt x="938" y="774" on="0"/>
        <pt x="359" y="774" on="1"/>
        <pt x="259" y="774" on="0"/>
        <pt x="185" y="734" on="0"/>
        <pt x="185" y="684" on="1"/>
        <pt x="185" y="671" on="1"/>
        <pt x="264" y="671" on="1"/>
        <pt x="264" y="554" on="1"/>
        <pt x="182" y="554" on="1"/>
        <pt x="182" y="0" on="1"/>
        <pt x="42" y="0" on="1"/>
        <pt x="42" y="554" on="1"/>
        <pt x="-40" y="554" on="1"/>
        <pt x="-40" y="671" on="1"/>
      </contour>
    </TTGlyph>
    <TTGlyph name="dvMatraI.a48" xMin="-40" yMin="0" xMax="1768" yMax="903">
      <contour>
        <pt x="45" y="671" on="1"/>
        <pt x="45" y="687" on="1"/>
        <pt x="45" y="903" on="0"/>
        <pt x="348" y="903" on="1"/>
        <pt x="902" y="903" on="0"/>
        <pt x="1768" y="841" on="1"/>
        <pt x="1768" y="717" on="1"/>
        <pt x="949" y="774" on="0"/>
        <pt x="360" y="774" on="1"/>
        <pt x="260" y="774" on="0"/>
        <pt x="185" y="734" on="0"/>
        <pt x="185" y="684" on="1"/>
        <pt x="185" y="671" on="1"/>
        <pt x="264" y="671" on="1"/>
        <pt x="264" y="554" on="1"/>
        <pt x="182" y="554" on="1"/>
        <pt x="182" y="0" on="1"/>
        <pt x="42" y="0" on="1"/>
        <pt x="42" y="554" on="1"/>
        <pt x="-40" y="554" on="1"/>
        <pt x="-40" y="671" on="1"/>
      </contour>
    </TTGlyph>
    <TTGlyph name="dvMatraI.a49" xMin="-40" yMin="0" xMax="1794" yMax="903">
      <contour>
        <pt x="45" y="671" on="1"/>
        <pt x="45" y="687" on="1"/>
        <pt x="45" y="903" on="0"/>
        <pt x="349" y="903" on="1"/>
        <pt x="921" y="903" on="0"/>
        <pt x="1794" y="840" on="1"/>
        <pt x="1794" y="716" on="1"/>
        <pt x="968" y="774" on="0"/>
        <pt x="361" y="774" on="1"/>
        <pt x="260" y="774" on="0"/>
        <pt x="185" y="734" on="0"/>
        <pt x="185" y="684" on="1"/>
        <pt x="185" y="671" on="1"/>
        <pt x="264" y="671" on="1"/>
        <pt x="264" y="554" on="1"/>
        <pt x="182" y="554" on="1"/>
        <pt x="182" y="0" on="1"/>
        <pt x="42" y="0" on="1"/>
        <pt x="42" y="554" on="1"/>
        <pt x="-40" y="554" on="1"/>
        <pt x="-40" y="671" on="1"/>
      </contour>
    </TTGlyph>
    <TTGlyph name="dvMatraI.a50" xMin="-40" yMin="0" xMax="1872" yMax="903">
      <contour>
        <pt x="45" y="671" on="1"/>
        <pt x="45" y="687" on="1"/>
        <pt x="45" y="903" on="0"/>
        <pt x="352" y="903" on="1"/>
        <pt x="959" y="903" on="0"/>
        <pt x="1872" y="839" on="1"/>
        <pt x="1872" y="715" on="1"/>
        <pt x="1007" y="774" on="0"/>
        <pt x="364" y="774" on="1"/>
        <pt x="261" y="774" on="0"/>
        <pt x="185" y="734" on="0"/>
        <pt x="185" y="684" on="1"/>
        <pt x="185" y="671" on="1"/>
        <pt x="264" y="671" on="1"/>
        <pt x="264" y="554" on="1"/>
        <pt x="182" y="554" on="1"/>
        <pt x="182" y="0" on="1"/>
        <pt x="42" y="0" on="1"/>
        <pt x="42" y="554" on="1"/>
        <pt x="-40" y="554" on="1"/>
        <pt x="-40" y="671" on="1"/>
      </contour>
    </TTGlyph>
    <TTGlyph name="dvNG_GA" xMin="-40" yMin="-200" xMax="613" yMax="671">
      <contour>
        <pt x="-40" y="671" on="1"/>
        <pt x="613" y="671" on="1"/>
        <pt x="613" y="554" on="1"/>
        <pt x="398" y="554" on="1"/>
        <pt x="398" y="395" on="1"/>
        <pt x="219" y="395" on="1"/>
        <pt x="187" y="395" on="0"/>
        <pt x="187" y="371" on="1"/>
        <pt x="187" y="366" on="1"/>
        <pt x="187" y="351" on="0"/>
        <pt x="200" y="342" on="0"/>
        <pt x="219" y="342" on="1"/>
        <pt x="243" y="342" on="1"/>
        <pt x="341" y="342" on="0"/>
        <pt x="429" y="278" on="0"/>
        <pt x="429" y="200" on="1"/>
        <pt x="429" y="193" on="1"/>
        <pt x="429" y="132" on="0"/>
        <pt x="392" y="98" on="1"/>
        <pt x="392" y="-200" on="1"/>
        <pt x="262" y="-200" on="1"/>
        <pt x="262" y="52" on="1"/>
        <pt x="234" y="50" on="0"/>
        <pt x="216" y="50" on="1"/>
        <pt x="216" y="9" on="1"/>
        <pt x="216" y="-76" on="0"/>
        <pt x="152" y="-140" on="0"/>
        <pt x="68" y="-140" on="1"/>
        <pt x="26" y="-140" on="1"/>
        <pt x="26" y="-18" on="1"/>
        <pt x="43" y="-18" on="1"/>
        <pt x="69" y="-18" on="0"/>
        <pt x="86" y="-2" on="0"/>
        <pt x="86" y="22" on="1"/>
        <pt x="86" y="61" on="1"/>
        <pt x="79" y="62" on="0"/>
        <pt x="38" y="70" on="1"/>
        <pt x="38" y="185" on="1"/>
        <pt x="127" y="165" on="0"/>
        <pt x="246" y="165" on="0"/>
        <pt x="284" y="177" on="0"/>
        <pt x="284" y="199" on="1"/>
        <pt x="284" y="205" on="1"/>
        <pt x="284" y="233" on="0"/>
        <pt x="243" y="233" on="1"/>
        <pt x="223" y="233" on="1"/>
        <pt x="129" y="233" on="0"/>
        <pt x="41" y="284" on="0"/>
        <pt x="41" y="361" on="1"/>
        <pt x="41" y="373" on="1"/>
        <pt x="41" y="499" on="0"/>
        <pt x="227" y="499" on="1"/>
        <pt x="252" y="499" on="1"/>
        <pt x="252" y="554" on="1"/>
        <pt x="-40" y="554" on="1"/>
      </contour>
      <contour>
        <pt x="490" y="420" on="1"/>
        <pt x="562" y="420" on="0"/>
        <pt x="562" y="276" on="0"/>
        <pt x="490" y="276" on="1"/>
        <pt x="449" y="276" on="0"/>
        <pt x="418" y="314" on="0"/>
        <pt x="418" y="382" on="0"/>
        <pt x="449" y="420" on="0"/>
      </contour>
    </TTGlyph>
    <TTGlyph name="dvNG_MA" xMin="-40" yMin="-227" xMax="799" yMax="671">
      <contour>
        <pt x="799" y="671" on="1"/>
        <pt x="799" y="554" on="1"/>
        <pt x="707" y="554" on="1"/>
        <pt x="707" y="-227" on="1"/>
        <pt x="570" y="-227" on="1"/>
        <pt x="570" y="-82" on="1"/>
        <pt x="426" y="-82" on="1"/>
        <pt x="426" y="-146" on="1"/>
        <pt x="290" y="-146" on="1"/>
        <pt x="290" y="49" on="1"/>
        <pt x="252" y="44" on="0"/>
        <pt x="128" y="44" on="0"/>
        <pt x="43" y="64" on="1"/>
        <pt x="43" y="185" on="1"/>
        <pt x="132" y="165" on="0"/>
        <pt x="252" y="165" on="0"/>
        <pt x="294" y="177" on="0"/>
        <pt x="294" y="199" on="1"/>
        <pt x="294" y="204" on="1"/>
        <pt x="294" y="233" on="0"/>
        <pt x="253" y="233" on="1"/>
        <pt x="228" y="233" on="1"/>
        <pt x="134" y="233" on="0"/>
        <pt x="46" y="284" on="0"/>
        <pt x="46" y="361" on="1"/>
        <pt x="46" y="373" on="1"/>
        <pt x="46" y="499" on="0"/>
        <pt x="232" y="499" on="1"/>
        <pt x="257" y="499" on="1"/>
        <pt x="257" y="554" on="1"/>
        <pt x="-40" y="554" on="1"/>
        <pt x="-40" y="671" on="1"/>
      </contour>
      <contour>
        <pt x="570" y="36" on="1"/>
        <pt x="570" y="554" on="1"/>
        <pt x="403" y="554" on="1"/>
        <pt x="403" y="395" on="1"/>
        <pt x="224" y="395" on="1"/>
        <pt x="192" y="395" on="0"/>
        <pt x="192" y="370" on="1"/>
        <pt x="192" y="365" on="1"/>
        <pt x="192" y="342" on="0"/>
        <pt x="224" y="342" on="1"/>
        <pt x="253" y="342" on="1"/>
        <pt x="351" y="342" on="0"/>
        <pt x="439" y="278" on="0"/>
        <pt x="439" y="200" on="1"/>
        <pt x="439" y="193" on="1"/>
        <pt x="439" y="158" on="0"/>
        <pt x="427" y="133" on="1"/>
        <pt x="427" y="36" on="1"/>
      </contour>
      <contour>
        <pt x="430" y="406" on="0"/>
        <pt x="546" y="406" on="0"/>
        <pt x="546" y="290" on="0"/>
        <pt x="430" y="290" on="0"/>
      </contour>
    </TTGlyph>
    <TTGlyph name="dvNY_CA" xMin="-40" yMin="0" xMax="958" yMax="671">
      <contour>
        <pt x="497" y="316" on="1"/>
        <pt x="497" y="343" on="0"/>
        <pt x="503" y="365" on="1"/>
        <pt x="411" y="365" on="1"/>
        <pt x="411" y="491" on="1"/>
        <pt x="701" y="491" on="1"/>
        <pt x="701" y="371" on="1"/>
        <pt x="648" y="371" on="1"/>
        <pt x="637" y="357" on="0"/>
        <pt x="637" y="315" on="1"/>
        <pt x="637" y="224" on="1"/>
        <pt x="637" y="176" on="0"/>
        <pt x="691" y="176" on="1"/>
        <pt x="716" y="176" on="0"/>
        <pt x="737" y="183" on="1"/>
        <pt x="737" y="554" on="1"/>
        <pt x="-40" y="554" on="1"/>
        <pt x="-40" y="671" on="1"/>
        <pt x="958" y="671" on="1"/>
        <pt x="958" y="554" on="1"/>
        <pt x="877" y="554" on="1"/>
        <pt x="877" y="0" on="1"/>
        <pt x="737" y="0" on="1"/>
        <pt x="737" y="61" on="1"/>
        <pt x="705" y="53" on="0"/>
        <pt x="664" y="53" on="1"/>
        <pt x="515" y="53" on="0"/>
        <pt x="499" y="183" on="1"/>
        <pt x="350" y="183" on="1"/>
        <pt x="350" y="177" on="1"/>
        <pt x="350" y="109" on="0"/>
        <pt x="249" y="23" on="0"/>
        <pt x="143" y="23" on="1"/>
        <pt x="105" y="23" on="0"/>
        <pt x="60" y="36" on="1"/>
        <pt x="60" y="160" on="1"/>
        <pt x="102" y="150" on="0"/>
        <pt x="179" y="150" on="0"/>
        <pt x="210" y="178" on="0"/>
        <pt x="210" y="206" on="1"/>
        <pt x="210" y="312" on="1"/>
        <pt x="210" y="340" on="0"/>
        <pt x="179" y="368" on="0"/>
        <pt x="98" y="368" on="0"/>
        <pt x="60" y="358" on="1"/>
        <pt x="60" y="482" on="1"/>
        <pt x="99" y="495" on="0"/>
        <pt x="143" y="495" on="1"/>
        <pt x="253" y="495" on="0"/>
        <pt x="350" y="406" on="0"/>
        <pt x="350" y="323" on="1"/>
        <pt x="350" y="303" on="1"/>
        <pt x="497" y="303" on="1"/>
      </contour>
    </TTGlyph>
    <TTGlyph name="dvSHA_MatraVocalicR" xMin="1" yMin="-315" xMax="673" yMax="676">
      <contour>
        <pt x="591" y="554" on="1"/>
        <pt x="591" y="-116" on="1"/>
        <pt x="537" y="-107" on="0"/>
        <pt x="437" y="-107" on="0"/>
        <pt x="437" y="-187" on="0"/>
        <pt x="488" y="-187" on="1"/>
        <pt x="524" y="-187" on="0"/>
        <pt x="592" y="-178" on="1"/>
        <pt x="592" y="-305" on="1"/>
        <pt x="542" y="-315" on="0"/>
        <pt x="486" y="-315" on="1"/>
        <pt x="394" y="-315" on="0"/>
        <pt x="299" y="-228" on="0"/>
        <pt x="299" y="-151" on="1"/>
        <pt x="299" y="5" on="0"/>
        <pt x="451" y="19" on="1"/>
        <pt x="451" y="87" on="1"/>
        <pt x="235" y="249" on="1"/>
        <pt x="153" y="163" on="1"/>
        <pt x="1" y="185" on="1"/>
        <pt x="135" y="324" on="1"/>
        <pt x="83" y="363" on="0"/>
        <pt x="48" y="430" on="0"/>
        <pt x="48" y="485" on="1"/>
        <pt x="48" y="517" on="1"/>
        <pt x="48" y="676" on="0"/>
        <pt x="219" y="676" on="1"/>
        <pt x="306" y="676" on="0"/>
        <pt x="386" y="596" on="0"/>
        <pt x="386" y="517" on="1"/>
        <pt x="386" y="485" on="1"/>
        <pt x="386" y="436" on="0"/>
        <pt x="359" y="378" on="0"/>
        <pt x="322" y="339" on="1"/>
        <pt x="367" y="306" on="1"/>
        <pt x="405" y="279" on="0"/>
        <pt x="451" y="236" on="1"/>
        <pt x="451" y="671" on="1"/>
        <pt x="673" y="671" on="1"/>
        <pt x="673" y="554" on="1"/>
      </contour>
      <contour>
        <pt x="254" y="475" on="1"/>
        <pt x="254" y="516" on="1"/>
        <pt x="254" y="536" on="0"/>
        <pt x="241" y="556" on="0"/>
        <pt x="197" y="556" on="0"/>
        <pt x="184" y="536" on="0"/>
        <pt x="184" y="516" on="1"/>
        <pt x="184" y="475" on="1"/>
        <pt x="184" y="449" on="0"/>
        <pt x="200" y="434" on="1"/>
        <pt x="206" y="429" on="0"/>
        <pt x="219" y="418" on="1"/>
        <pt x="233" y="430" on="0"/>
        <pt x="238" y="434" on="1"/>
        <pt x="254" y="449" on="0"/>
      </contour>
    </TTGlyph>
    <TTGlyph name="dvSH_CA.aSimp" xMin="40" yMin="0" xMax="978" yMax="676">
      <contour>
        <pt x="235" y="231" on="1"/>
        <pt x="206" y="231" on="0"/>
        <pt x="180" y="238" on="1"/>
        <pt x="180" y="196" on="1"/>
        <pt x="180" y="128" on="0"/>
        <pt x="261" y="128" on="1"/>
        <pt x="320" y="128" on="0"/>
        <pt x="382" y="154" on="1"/>
        <pt x="382" y="24" on="1"/>
        <pt x="319" y="2" on="0"/>
        <pt x="137" y="2" on="0"/>
        <pt x="40" y="107" on="0"/>
        <pt x="40" y="191" on="1"/>
        <pt x="40" y="403" on="1"/>
        <pt x="180" y="403" on="1"/>
        <pt x="180" y="359" on="1"/>
        <pt x="198" y="354" on="0"/>
        <pt x="242" y="354" on="0"/>
        <pt x="258" y="373" on="0"/>
        <pt x="258" y="392" on="1"/>
        <pt x="258" y="508" on="1"/>
        <pt x="258" y="527" on="0"/>
        <pt x="242" y="547" on="0"/>
        <pt x="219" y="547" on="1"/>
        <pt x="180" y="547" on="0"/>
        <pt x="180" y="505" on="1"/>
        <pt x="180" y="483" on="0"/>
        <pt x="184" y="467" on="1"/>
        <pt x="44" y="467" on="1"/>
        <pt x="40" y="495" on="0"/>
        <pt x="40" y="513" on="1"/>
        <pt x="40" y="676" on="0"/>
        <pt x="398" y="676" on="0"/>
        <pt x="398" y="513" on="1"/>
        <pt x="398" y="387" on="1"/>
        <pt x="398" y="231" on="0"/>
      </contour>
      <contour>
        <pt x="517" y="316" on="1"/>
        <pt x="517" y="343" on="0"/>
        <pt x="523" y="365" on="1"/>
        <pt x="463" y="365" on="1"/>
        <pt x="463" y="491" on="1"/>
        <pt x="721" y="491" on="1"/>
        <pt x="721" y="371" on="1"/>
        <pt x="668" y="371" on="1"/>
        <pt x="657" y="357" on="0"/>
        <pt x="657" y="315" on="1"/>
        <pt x="657" y="224" on="1"/>
        <pt x="657" y="176" on="0"/>
        <pt x="711" y="176" on="1"/>
        <pt x="736" y="176" on="0"/>
        <pt x="757" y="183" on="1"/>
        <pt x="757" y="554" on="1"/>
        <pt x="435" y="554" on="1"/>
        <pt x="435" y="671" on="1"/>
        <pt x="978" y="671" on="1"/>
        <pt x="978" y="554" on="1"/>
        <pt x="897" y="554" on="1"/>
        <pt x="897" y="0" on="1"/>
        <pt x="757" y="0" on="1"/>
        <pt x="757" y="61" on="1"/>
        <pt x="725" y="53" on="0"/>
        <pt x="684" y="53" on="1"/>
        <pt x="598" y="53" on="0"/>
        <pt x="517" y="134" on="0"/>
        <pt x="517" y="219" on="1"/>
      </contour>
    </TTGlyph>
    <TTGlyph name="dvSH_LA.aSimp" xMin="40" yMin="0" xMax="1129" yMax="676">
      <contour>
        <pt x="235" y="231" on="1"/>
        <pt x="206" y="231" on="0"/>
        <pt x="180" y="238" on="1"/>
        <pt x="180" y="196" on="1"/>
        <pt x="180" y="128" on="0"/>
        <pt x="261" y="128" on="1"/>
        <pt x="320" y="128" on="0"/>
        <pt x="382" y="154" on="1"/>
        <pt x="382" y="24" on="1"/>
        <pt x="319" y="2" on="0"/>
        <pt x="137" y="2" on="0"/>
        <pt x="40" y="107" on="0"/>
        <pt x="40" y="191" on="1"/>
        <pt x="40" y="403" on="1"/>
        <pt x="180" y="403" on="1"/>
        <pt x="180" y="359" on="1"/>
        <pt x="198" y="354" on="0"/>
        <pt x="242" y="354" on="0"/>
        <pt x="258" y="373" on="0"/>
        <pt x="258" y="392" on="1"/>
        <pt x="258" y="508" on="1"/>
        <pt x="258" y="527" on="0"/>
        <pt x="242" y="547" on="0"/>
        <pt x="219" y="547" on="1"/>
        <pt x="180" y="547" on="0"/>
        <pt x="180" y="505" on="1"/>
        <pt x="180" y="483" on="0"/>
        <pt x="184" y="467" on="1"/>
        <pt x="44" y="467" on="1"/>
        <pt x="40" y="495" on="0"/>
        <pt x="40" y="513" on="1"/>
        <pt x="40" y="676" on="0"/>
        <pt x="398" y="676" on="0"/>
        <pt x="398" y="513" on="1"/>
        <pt x="398" y="387" on="1"/>
        <pt x="398" y="231" on="0"/>
      </contour>
      <contour>
        <pt x="471" y="182" on="1"/>
        <pt x="471" y="331" on="1"/>
        <pt x="471" y="409" on="0"/>
        <pt x="561" y="494" on="0"/>
        <pt x="728" y="494" on="0"/>
        <pt x="756" y="439" on="1"/>
        <pt x="792" y="493" on="0"/>
        <pt x="859" y="493" on="1"/>
        <pt x="907" y="488" on="1"/>
        <pt x="907" y="554" on="1"/>
        <pt x="456" y="554" on="1"/>
        <pt x="456" y="671" on="1"/>
        <pt x="1129" y="671" on="1"/>
        <pt x="1129" y="554" on="1"/>
        <pt x="1047" y="554" on="1"/>
        <pt x="1047" y="0" on="1"/>
        <pt x="907" y="0" on="1"/>
        <pt x="907" y="360" on="1"/>
        <pt x="892" y="365" on="0"/>
        <pt x="872" y="365" on="1"/>
        <pt x="829" y="365" on="0"/>
        <pt x="829" y="326" on="1"/>
        <pt x="829" y="212" on="1"/>
        <pt x="689" y="212" on="1"/>
        <pt x="689" y="326" on="1"/>
        <pt x="689" y="345" on="0"/>
        <pt x="673" y="365" on="0"/>
        <pt x="627" y="365" on="0"/>
        <pt x="611" y="345" on="0"/>
        <pt x="611" y="326" on="1"/>
        <pt x="611" y="188" on="1"/>
        <pt x="611" y="159" on="0"/>
        <pt x="640" y="129" on="0"/>
        <pt x="714" y="129" on="0"/>
        <pt x="741" y="132" on="1"/>
        <pt x="741" y="4" on="1"/>
        <pt x="709" y="0" on="0"/>
        <pt x="674" y="0" on="1"/>
        <pt x="568" y="0" on="0"/>
        <pt x="471" y="89" on="0"/>
      </contour>
    </TTGlyph>
    <TTGlyph name="dvSH_VA.aSimp" xMin="40" yMin="0" xMax="911" yMax="676">
      <contour>
        <pt x="235" y="231" on="1"/>
        <pt x="206" y="231" on="0"/>
        <pt x="180" y="238" on="1"/>
        <pt x="180" y="196" on="1"/>
        <pt x="180" y="128" on="0"/>
        <pt x="261" y="128" on="1"/>
        <pt x="320" y="128" on="0"/>
        <pt x="382" y="154" on="1"/>
        <pt x="382" y="24" on="1"/>
        <pt x="319" y="2" on="0"/>
        <pt x="137" y="2" on="0"/>
        <pt x="40" y="107" on="0"/>
        <pt x="40" y="191" on="1"/>
        <pt x="40" y="403" on="1"/>
        <pt x="180" y="403" on="1"/>
        <pt x="180" y="359" on="1"/>
        <pt x="198" y="354" on="0"/>
        <pt x="242" y="354" on="0"/>
        <pt x="258" y="373" on="0"/>
        <pt x="258" y="392" on="1"/>
        <pt x="258" y="508" on="1"/>
        <pt x="258" y="527" on="0"/>
        <pt x="242" y="547" on="0"/>
        <pt x="219" y="547" on="1"/>
        <pt x="180" y="547" on="0"/>
        <pt x="180" y="505" on="1"/>
        <pt x="180" y="483" on="0"/>
        <pt x="184" y="467" on="1"/>
        <pt x="44" y="467" on="1"/>
        <pt x="40" y="495" on="0"/>
        <pt x="40" y="513" on="1"/>
        <pt x="40" y="676" on="0"/>
        <pt x="398" y="676" on="0"/>
        <pt x="398" y="513" on="1"/>
        <pt x="398" y="387" on="1"/>
        <pt x="398" y="231" on="0"/>
      </contour>
      <contour>
        <pt x="648" y="388" on="1"/>
        <pt x="595" y="388" on="0"/>
        <pt x="595" y="345" on="1"/>
        <pt x="595" y="214" on="1"/>
        <pt x="595" y="170" on="0"/>
        <pt x="649" y="170" on="1"/>
        <pt x="677" y="170" on="0"/>
        <pt x="696" y="177" on="1"/>
        <pt x="696" y="383" on="1"/>
        <pt x="671" y="388" on="0"/>
      </contour>
      <contour>
        <pt x="689" y="554" on="1"/>
        <pt x="448" y="554" on="1"/>
        <pt x="448" y="671" on="1"/>
        <pt x="911" y="671" on="1"/>
        <pt x="911" y="554" on="1"/>
        <pt x="829" y="554" on="1"/>
        <pt x="829" y="0" on="1"/>
        <pt x="689" y="0" on="1"/>
        <pt x="689" y="59" on="1"/>
        <pt x="654" y="52" on="0"/>
        <pt x="623" y="52" on="1"/>
        <pt x="534" y="52" on="0"/>
        <pt x="459" y="130" on="0"/>
        <pt x="459" y="211" on="1"/>
        <pt x="459" y="346" on="1"/>
        <pt x="459" y="426" on="0"/>
        <pt x="536" y="506" on="0"/>
        <pt x="623" y="506" on="1"/>
        <pt x="654" y="506" on="0"/>
        <pt x="689" y="499" on="1"/>
      </contour>
    </TTGlyph>
    <TTGlyph name="dvTTH_TTHA" xMin="-40" yMin="-208" xMax="506" yMax="671">
      <contour>
        <pt x="506" y="554" on="1"/>
        <pt x="304" y="554" on="1"/>
        <pt x="304" y="499" on="1"/>
        <pt x="423" y="475" on="0"/>
        <pt x="423" y="349" on="1"/>
        <pt x="423" y="240" on="1"/>
        <pt x="423" y="182" on="0"/>
        <pt x="381" y="150" on="1"/>
        <pt x="423" y="120" on="0"/>
        <pt x="423" y="57" on="1"/>
        <pt x="423" y="-52" on="1"/>
        <pt x="423" y="-129" on="0"/>
        <pt x="327" y="-208" on="0"/>
        <pt x="141" y="-208" on="0"/>
        <pt x="45" y="-129" on="0"/>
        <pt x="45" y="-52" on="1"/>
        <pt x="45" y="56" on="1"/>
        <pt x="45" y="120" on="0"/>
        <pt x="87" y="150" on="1"/>
        <pt x="45" y="182" on="0"/>
        <pt x="45" y="240" on="1"/>
        <pt x="45" y="348" on="1"/>
        <pt x="45" y="475" on="0"/>
        <pt x="164" y="499" on="1"/>
        <pt x="164" y="554" on="1"/>
        <pt x="-40" y="554" on="1"/>
        <pt x="-40" y="671" on="1"/>
        <pt x="506" y="671" on="1"/>
      </contour>
      <contour>
        <pt x="180" y="344" on="1"/>
        <pt x="180" y="245" on="1"/>
        <pt x="180" y="203" on="0"/>
        <pt x="288" y="203" on="0"/>
        <pt x="288" y="245" on="1"/>
        <pt x="288" y="344" on="1"/>
        <pt x="288" y="386" on="0"/>
        <pt x="180" y="386" on="0"/>
      </contour>
      <contour>
        <pt x="288" y="-47" on="1"/>
        <pt x="288" y="52" on="1"/>
        <pt x="288" y="94" on="0"/>
        <pt x="180" y="94" on="0"/>
        <pt x="180" y="52" on="1"/>
        <pt x="180" y="-47" on="1"/>
        <pt x="180" y="-89" on="0"/>
        <pt x="288" y="-89" on="0"/>
      </contour>
    </TTGlyph>
    <TTGlyph name="dvTT_GA" xMin="-40" yMin="-230" xMax="457" yMax="671">
      <contour>
        <pt x="367" y="364" on="1"/>
        <pt x="238" y="364" on="1"/>
        <pt x="208" y="364" on="0"/>
        <pt x="175" y="333" on="0"/>
        <pt x="175" y="304" on="1"/>
        <pt x="175" y="181" on="1"/>
        <pt x="175" y="147" on="0"/>
        <pt x="216" y="122" on="0"/>
        <pt x="309" y="122" on="0"/>
        <pt x="377" y="133" on="1"/>
        <pt x="377" y="-230" on="1"/>
        <pt x="247" y="-230" on="1"/>
        <pt x="247" y="-5" on="1"/>
        <pt x="222" y="-5" on="0"/>
        <pt x="201" y="-2" on="1"/>
        <pt x="201" y="-21" on="1"/>
        <pt x="201" y="-106" on="0"/>
        <pt x="137" y="-170" on="0"/>
        <pt x="53" y="-170" on="1"/>
        <pt x="12" y="-170" on="1"/>
        <pt x="11" y="-48" on="1"/>
        <pt x="28" y="-48" on="1"/>
        <pt x="54" y="-48" on="0"/>
        <pt x="71" y="-32" on="0"/>
        <pt x="71" y="-8" on="1"/>
        <pt x="71" y="61" on="1"/>
        <pt x="35" y="104" on="0"/>
        <pt x="35" y="178" on="1"/>
        <pt x="35" y="315" on="1"/>
        <pt x="35" y="401" on="0"/>
        <pt x="128" y="491" on="0"/>
        <pt x="221" y="491" on="1"/>
        <pt x="227" y="491" on="1"/>
        <pt x="227" y="554" on="1"/>
        <pt x="-40" y="554" on="1"/>
        <pt x="-40" y="671" on="1"/>
        <pt x="457" y="671" on="1"/>
        <pt x="457" y="554" on="1"/>
        <pt x="367" y="554" on="1"/>
      </contour>
    </TTGlyph>
    <TTGlyph name="dvT_KH_NA" xMin="-40" yMin="-5" xMax="1480" yMax="671">
      <contour>
        <pt x="487" y="507" on="1"/>
        <pt x="487" y="538" on="0"/>
        <pt x="477" y="554" on="1"/>
        <pt x="-40" y="554" on="1"/>
        <pt x="-40" y="671" on="1"/>
        <pt x="1480" y="671" on="1"/>
        <pt x="1480" y="554" on="1"/>
        <pt x="1398" y="554" on="1"/>
        <pt x="1398" y="0" on="1"/>
        <pt x="1258" y="0" on="1"/>
        <pt x="1258" y="362" on="1"/>
        <pt x="1192" y="362" on="1"/>
        <pt x="1198" y="341" on="0"/>
        <pt x="1198" y="306" on="1"/>
        <pt x="1198" y="215" on="1"/>
        <pt x="1198" y="134" on="0"/>
        <pt x="1120" y="52" on="0"/>
        <pt x="928" y="52" on="0"/>
        <pt x="889" y="109" on="1"/>
        <pt x="862" y="99" on="0"/>
        <pt x="819" y="99" on="1"/>
        <pt x="723" y="99" on="0"/>
        <pt x="651" y="174" on="0"/>
        <pt x="651" y="256" on="1"/>
        <pt x="651" y="335" on="1"/>
        <pt x="651" y="417" on="0"/>
        <pt x="723" y="492" on="0"/>
        <pt x="893" y="492" on="0"/>
        <pt x="926" y="468" on="1"/>
        <pt x="966" y="491" on="0"/>
        <pt x="1031" y="491" on="1"/>
        <pt x="1258" y="491" on="1"/>
        <pt x="1258" y="554" on="1"/>
        <pt x="610" y="554" on="1"/>
        <pt x="616" y="538" on="0"/>
        <pt x="616" y="507" on="1"/>
        <pt x="616" y="386" on="1"/>
        <pt x="616" y="307" on="0"/>
        <pt x="541" y="226" on="0"/>
        <pt x="458" y="226" on="1"/>
        <pt x="443" y="226" on="0"/>
        <pt x="413" y="230" on="1"/>
        <pt x="413" y="195" on="1"/>
        <pt x="413" y="159" on="0"/>
        <pt x="456" y="121" on="0"/>
        <pt x="573" y="121" on="0"/>
        <pt x="628" y="144" on="1"/>
        <pt x="628" y="14" on="1"/>
        <pt x="574" y="-5" on="0"/>
        <pt x="496" y="-5" on="1"/>
        <pt x="385" y="-5" on="0"/>
        <pt x="280" y="103" on="0"/>
        <pt x="280" y="193" on="1"/>
        <pt x="280" y="355" on="1"/>
        <pt x="242" y="357" on="0"/>
        <pt x="239" y="357" on="1"/>
        <pt x="175" y="357" on="0"/>
        <pt x="175" y="298" on="1"/>
        <pt x="175" y="168" on="1"/>
        <pt x="175" y="145" on="0"/>
        <pt x="197" y="130" on="0"/>
        <pt x="224" y="130" on="1"/>
        <pt x="224" y="-2" on="1"/>
        <pt x="194" y="-2" on="1"/>
        <pt x="105" y="-2" on="0"/>
        <pt x="35" y="73" on="0"/>
        <pt x="35" y="154" on="1"/>
        <pt x="35" y="303" on="1"/>
        <pt x="35" y="387" on="0"/>
        <pt x="131" y="486" on="0"/>
        <pt x="238" y="486" on="1"/>
        <pt x="320" y="486" on="0"/>
        <pt x="413" y="473" on="1"/>
        <pt x="413" y="351" on="1"/>
        <pt x="437" y="349" on="0"/>
        <pt x="454" y="349" on="1"/>
        <pt x="487" y="349" on="0"/>
        <pt x="487" y="388" on="1"/>
      </contour>
      <contour>
        <pt x="776" y="335" on="1"/>
        <pt x="776" y="256" on="1"/>
        <pt x="776" y="236" on="0"/>
        <pt x="794" y="216" on="0"/>
        <pt x="844" y="216" on="0"/>
        <pt x="862" y="236" on="0"/>
        <pt x="862" y="256" on="1"/>
        <pt x="862" y="335" on="1"/>
        <pt x="862" y="355" on="0"/>
        <pt x="844" y="375" on="0"/>
        <pt x="794" y="375" on="0"/>
        <pt x="776" y="355" on="0"/>
      </contour>
      <contour>
        <pt x="1067" y="216" on="1"/>
        <pt x="1067" y="301" on="1"/>
        <pt x="1067" y="344" on="0"/>
        <pt x="1060" y="362" on="1"/>
        <pt x="1031" y="362" on="1"/>
        <pt x="1009" y="362" on="0"/>
        <pt x="995" y="343" on="0"/>
        <pt x="995" y="323" on="1"/>
        <pt x="995" y="216" on="1"/>
        <pt x="995" y="196" on="0"/>
        <pt x="1009" y="177" on="0"/>
        <pt x="1053" y="177" on="0"/>
        <pt x="1067" y="196" on="0"/>
      </contour>
    </TTGlyph>
    <TTGlyph name="dvT_S_NA" xMin="-40" yMin="-5" xMax="1301" yMax="671">
      <contour>
        <pt x="482" y="507" on="1"/>
        <pt x="482" y="538" on="0"/>
        <pt x="472" y="554" on="1"/>
        <pt x="-40" y="554" on="1"/>
        <pt x="-40" y="671" on="1"/>
        <pt x="1301" y="671" on="1"/>
        <pt x="1301" y="554" on="1"/>
        <pt x="1219" y="554" on="1"/>
        <pt x="1219" y="0" on="1"/>
        <pt x="1079" y="0" on="1"/>
        <pt x="1079" y="362" on="1"/>
        <pt x="1013" y="362" on="1"/>
        <pt x="1019" y="341" on="0"/>
        <pt x="1019" y="306" on="1"/>
        <pt x="1019" y="215" on="1"/>
        <pt x="1019" y="134" on="0"/>
        <pt x="941" y="52" on="0"/>
        <pt x="763" y="52" on="0"/>
        <pt x="683" y="135" on="0"/>
        <pt x="683" y="215" on="1"/>
        <pt x="683" y="261" on="1"/>
        <pt x="582" y="261" on="1"/>
        <pt x="544" y="222" on="0"/>
        <pt x="464" y="222" on="1"/>
        <pt x="436" y="222" on="0"/>
        <pt x="413" y="227" on="1"/>
        <pt x="413" y="179" on="1"/>
        <pt x="413" y="121" on="0"/>
        <pt x="505" y="121" on="1"/>
        <pt x="564" y="121" on="0"/>
        <pt x="626" y="147" on="1"/>
        <pt x="626" y="17" on="1"/>
        <pt x="563" y="-5" on="0"/>
        <pt x="379" y="-5" on="0"/>
        <pt x="273" y="93" on="0"/>
        <pt x="273" y="174" on="1"/>
        <pt x="273" y="355" on="1"/>
        <pt x="241" y="357" on="0"/>
        <pt x="239" y="357" on="1"/>
        <pt x="175" y="357" on="0"/>
        <pt x="175" y="298" on="1"/>
        <pt x="175" y="168" on="1"/>
        <pt x="175" y="145" on="0"/>
        <pt x="197" y="130" on="0"/>
        <pt x="224" y="130" on="1"/>
        <pt x="224" y="-2" on="1"/>
        <pt x="194" y="-2" on="1"/>
        <pt x="105" y="-2" on="0"/>
        <pt x="35" y="73" on="0"/>
        <pt x="35" y="154" on="1"/>
        <pt x="35" y="303" on="1"/>
        <pt x="35" y="387" on="0"/>
        <pt x="131" y="486" on="0"/>
        <pt x="238" y="486" on="1"/>
        <pt x="320" y="486" on="0"/>
        <pt x="413" y="473" on="1"/>
        <pt x="413" y="349" on="1"/>
        <pt x="429" y="345" on="0"/>
        <pt x="448" y="345" on="1"/>
        <pt x="482" y="345" on="0"/>
        <pt x="482" y="384" on="1"/>
      </contour>
      <contour>
        <pt x="888" y="216" on="1"/>
        <pt x="888" y="301" on="1"/>
        <pt x="888" y="344" on="0"/>
        <pt x="881" y="362" on="1"/>
        <pt x="852" y="362" on="1"/>
        <pt x="830" y="362" on="0"/>
        <pt x="816" y="343" on="0"/>
        <pt x="816" y="323" on="1"/>
        <pt x="816" y="216" on="1"/>
        <pt x="816" y="196" on="0"/>
        <pt x="830" y="177" on="0"/>
        <pt x="874" y="177" on="0"/>
        <pt x="888" y="196" on="0"/>
      </contour>
      <contour>
        <pt x="1079" y="491" on="1"/>
        <pt x="1079" y="554" on="1"/>
        <pt x="613" y="554" on="1"/>
        <pt x="619" y="538" on="0"/>
        <pt x="619" y="507" on="1"/>
        <pt x="619" y="381" on="1"/>
        <pt x="688" y="381" on="1"/>
        <pt x="712" y="491" on="0"/>
        <pt x="852" y="491" on="1"/>
      </contour>
    </TTGlyph>
    <TTGlyph name="e" xMin="35" yMin="-6" xMax="407" yMax="600">
      <contour>
        <pt x="35" y="168" on="1"/>
        <pt x="35" y="439" on="1"/>
        <pt x="35" y="515" on="0"/>
        <pt x="129" y="600" on="0"/>
        <pt x="224" y="600" on="1"/>
        <pt x="407" y="600" on="0"/>
        <pt x="407" y="439" on="1"/>
        <pt x="407" y="236" on="1"/>
        <pt x="180" y="236" on="1"/>
        <pt x="180" y="180" on="1"/>
        <pt x="180" y="150" on="0"/>
        <pt x="213" y="125" on="0"/>
        <pt x="326" y="125" on="0"/>
        <pt x="393" y="145" on="1"/>
        <pt x="393" y="13" on="1"/>
        <pt x="323" y="-6" on="0"/>
        <pt x="243" y="-6" on="1"/>
        <pt x="35" y="-6" on="0"/>
      </contour>
      <contour>
        <pt x="180" y="351" on="1"/>
        <pt x="268" y="351" on="1"/>
        <pt x="268" y="437" on="1"/>
        <pt x="268" y="475" on="0"/>
        <pt x="180" y="475" on="0"/>
        <pt x="180" y="437" on="1"/>
      </contour>
    </TTGlyph>
    <TTGlyph name="eacute" xMin="35" yMin="-6" xMax="407" yMax="747">
      <contour>
        <pt x="35" y="168" on="1"/>
        <pt x="35" y="439" on="1"/>
        <pt x="35" y="515" on="0"/>
        <pt x="129" y="600" on="0"/>
        <pt x="224" y="600" on="1"/>
        <pt x="407" y="600" on="0"/>
        <pt x="407" y="439" on="1"/>
        <pt x="407" y="236" on="1"/>
        <pt x="180" y="236" on="1"/>
        <pt x="180" y="180" on="1"/>
        <pt x="180" y="150" on="0"/>
        <pt x="213" y="125" on="0"/>
        <pt x="326" y="125" on="0"/>
        <pt x="393" y="145" on="1"/>
        <pt x="393" y="13" on="1"/>
        <pt x="323" y="-6" on="0"/>
        <pt x="243" y="-6" on="1"/>
        <pt x="35" y="-6" on="0"/>
      </contour>
      <contour>
        <pt x="180" y="351" on="1"/>
        <pt x="268" y="351" on="1"/>
        <pt x="268" y="437" on="1"/>
        <pt x="268" y="475" on="0"/>
        <pt x="180" y="475" on="0"/>
        <pt x="180" y="437" on="1"/>
      </contour>
      <contour>
        <pt x="334" y="747" on="1"/>
        <pt x="259" y="632" on="1"/>
        <pt x="180" y="632" on="1"/>
        <pt x="224" y="747" on="1"/>
      </contour>
    </TTGlyph>
    <TTGlyph name="ecaron" xMin="35" yMin="-6" xMax="407" yMax="747">
      <contour>
        <pt x="35" y="168" on="1"/>
        <pt x="35" y="439" on="1"/>
        <pt x="35" y="515" on="0"/>
        <pt x="129" y="600" on="0"/>
        <pt x="224" y="600" on="1"/>
        <pt x="407" y="600" on="0"/>
        <pt x="407" y="439" on="1"/>
        <pt x="407" y="236" on="1"/>
        <pt x="180" y="236" on="1"/>
        <pt x="180" y="180" on="1"/>
        <pt x="180" y="150" on="0"/>
        <pt x="213" y="125" on="0"/>
        <pt x="326" y="125" on="0"/>
        <pt x="393" y="145" on="1"/>
        <pt x="393" y="13" on="1"/>
        <pt x="323" y="-6" on="0"/>
        <pt x="243" y="-6" on="1"/>
        <pt x="35" y="-6" on="0"/>
      </contour>
      <contour>
        <pt x="180" y="351" on="1"/>
        <pt x="268" y="351" on="1"/>
        <pt x="268" y="437" on="1"/>
        <pt x="268" y="475" on="0"/>
        <pt x="180" y="475" on="0"/>
        <pt x="180" y="437" on="1"/>
      </contour>
      <contour>
        <pt x="171" y="632" on="1"/>
        <pt x="111" y="747" on="1"/>
        <pt x="184" y="747" on="1"/>
        <pt x="225" y="693" on="1"/>
        <pt x="265" y="747" on="1"/>
        <pt x="338" y="747" on="1"/>
        <pt x="278" y="632" on="1"/>
      </contour>
    </TTGlyph>
    <TTGlyph name="ecircumflex" xMin="35" yMin="-6" xMax="407" yMax="747">
      <contour>
        <pt x="35" y="168" on="1"/>
        <pt x="35" y="439" on="1"/>
        <pt x="35" y="515" on="0"/>
        <pt x="129" y="600" on="0"/>
        <pt x="224" y="600" on="1"/>
        <pt x="407" y="600" on="0"/>
        <pt x="407" y="439" on="1"/>
        <pt x="407" y="236" on="1"/>
        <pt x="180" y="236" on="1"/>
        <pt x="180" y="180" on="1"/>
        <pt x="180" y="150" on="0"/>
        <pt x="213" y="125" on="0"/>
        <pt x="326" y="125" on="0"/>
        <pt x="393" y="145" on="1"/>
        <pt x="393" y="13" on="1"/>
        <pt x="323" y="-6" on="0"/>
        <pt x="243" y="-6" on="1"/>
        <pt x="35" y="-6" on="0"/>
      </contour>
      <contour>
        <pt x="180" y="351" on="1"/>
        <pt x="268" y="351" on="1"/>
        <pt x="268" y="437" on="1"/>
        <pt x="268" y="475" on="0"/>
        <pt x="180" y="475" on="0"/>
        <pt x="180" y="437" on="1"/>
      </contour>
      <contour>
        <pt x="227" y="686" on="1"/>
        <pt x="186" y="632" on="1"/>
        <pt x="113" y="632" on="1"/>
        <pt x="173" y="747" on="1"/>
        <pt x="280" y="747" on="1"/>
        <pt x="340" y="632" on="1"/>
        <pt x="267" y="632" on="1"/>
      </contour>
    </TTGlyph>
    <TTGlyph name="edieresis" xMin="35" yMin="-6" xMax="407" yMax="744">
      <contour>
        <pt x="35" y="168" on="1"/>
        <pt x="35" y="439" on="1"/>
        <pt x="35" y="515" on="0"/>
        <pt x="129" y="600" on="0"/>
        <pt x="224" y="600" on="1"/>
        <pt x="407" y="600" on="0"/>
        <pt x="407" y="439" on="1"/>
        <pt x="407" y="236" on="1"/>
        <pt x="180" y="236" on="1"/>
        <pt x="180" y="180" on="1"/>
        <pt x="180" y="150" on="0"/>
        <pt x="213" y="125" on="0"/>
        <pt x="326" y="125" on="0"/>
        <pt x="393" y="145" on="1"/>
        <pt x="393" y="13" on="1"/>
        <pt x="323" y="-6" on="0"/>
        <pt x="243" y="-6" on="1"/>
        <pt x="35" y="-6" on="0"/>
      </contour>
      <contour>
        <pt x="180" y="351" on="1"/>
        <pt x="268" y="351" on="1"/>
        <pt x="268" y="437" on="1"/>
        <pt x="268" y="475" on="0"/>
        <pt x="180" y="475" on="0"/>
        <pt x="180" y="437" on="1"/>
      </contour>
      <contour>
        <pt x="197" y="635" on="0"/>
        <pt x="81" y="635" on="0"/>
        <pt x="81" y="744" on="0"/>
        <pt x="197" y="744" on="0"/>
      </contour>
      <contour>
        <pt x="368" y="635" on="0"/>
        <pt x="252" y="635" on="0"/>
        <pt x="252" y="744" on="0"/>
        <pt x="368" y="744" on="0"/>
      </contour>
    </TTGlyph>
    <TTGlyph name="edotaccent" xMin="35" yMin="-6" xMax="407" yMax="744">
      <contour>
        <pt x="35" y="168" on="1"/>
        <pt x="35" y="439" on="1"/>
        <pt x="35" y="515" on="0"/>
        <pt x="129" y="600" on="0"/>
        <pt x="224" y="600" on="1"/>
        <pt x="407" y="600" on="0"/>
        <pt x="407" y="439" on="1"/>
        <pt x="407" y="236" on="1"/>
        <pt x="180" y="236" on="1"/>
        <pt x="180" y="180" on="1"/>
        <pt x="180" y="150" on="0"/>
        <pt x="213" y="125" on="0"/>
        <pt x="326" y="125" on="0"/>
        <pt x="393" y="145" on="1"/>
        <pt x="393" y="13" on="1"/>
        <pt x="323" y="-6" on="0"/>
        <pt x="243" y="-6" on="1"/>
        <pt x="35" y="-6" on="0"/>
      </contour>
      <contour>
        <pt x="180" y="351" on="1"/>
        <pt x="268" y="351" on="1"/>
        <pt x="268" y="437" on="1"/>
        <pt x="268" y="475" on="0"/>
        <pt x="180" y="475" on="0"/>
        <pt x="180" y="437" on="1"/>
      </contour>
      <contour>
        <pt x="283" y="635" on="0"/>
        <pt x="167" y="635" on="0"/>
        <pt x="167" y="744" on="0"/>
        <pt x="283" y="744" on="0"/>
      </contour>
    </TTGlyph>
    <TTGlyph name="egrave" xMin="35" yMin="-6" xMax="407" yMax="747">
      <contour>
        <pt x="35" y="168" on="1"/>
        <pt x="35" y="439" on="1"/>
        <pt x="35" y="515" on="0"/>
        <pt x="129" y="600" on="0"/>
        <pt x="224" y="600" on="1"/>
        <pt x="407" y="600" on="0"/>
        <pt x="407" y="439" on="1"/>
        <pt x="407" y="236" on="1"/>
        <pt x="180" y="236" on="1"/>
        <pt x="180" y="180" on="1"/>
        <pt x="180" y="150" on="0"/>
        <pt x="213" y="125" on="0"/>
        <pt x="326" y="125" on="0"/>
        <pt x="393" y="145" on="1"/>
        <pt x="393" y="13" on="1"/>
        <pt x="323" y="-6" on="0"/>
        <pt x="243" y="-6" on="1"/>
        <pt x="35" y="-6" on="0"/>
      </contour>
      <contour>
        <pt x="180" y="351" on="1"/>
        <pt x="268" y="351" on="1"/>
        <pt x="268" y="437" on="1"/>
        <pt x="268" y="475" on="0"/>
        <pt x="180" y="475" on="0"/>
        <pt x="180" y="437" on="1"/>
      </contour>
      <contour>
        <pt x="262" y="632" on="1"/>
        <pt x="183" y="632" on="1"/>
        <pt x="108" y="747" on="1"/>
        <pt x="218" y="747" on="1"/>
      </contour>
    </TTGlyph>
    <TTGlyph name="eight" xMin="35" yMin="-10" xMax="440" yMax="703">
      <contour>
        <pt x="440" y="528" on="1"/>
        <pt x="440" y="458" on="1"/>
        <pt x="440" y="382" on="0"/>
        <pt x="394" y="346" on="1"/>
        <pt x="440" y="309" on="0"/>
        <pt x="440" y="233" on="1"/>
        <pt x="440" y="165" on="1"/>
        <pt x="440" y="83" on="0"/>
        <pt x="340" y="-10" on="0"/>
        <pt x="135" y="-10" on="0"/>
        <pt x="35" y="82" on="0"/>
        <pt x="35" y="165" on="1"/>
        <pt x="35" y="233" on="1"/>
        <pt x="35" y="309" on="0"/>
        <pt x="81" y="346" on="1"/>
        <pt x="35" y="382" on="0"/>
        <pt x="35" y="458" on="1"/>
        <pt x="35" y="528" on="1"/>
        <pt x="35" y="611" on="0"/>
        <pt x="135" y="703" on="0"/>
        <pt x="340" y="703" on="0"/>
        <pt x="440" y="610" on="0"/>
      </contour>
      <contour>
        <pt x="183" y="526" on="1"/>
        <pt x="183" y="453" on="1"/>
        <pt x="183" y="403" on="0"/>
        <pt x="292" y="403" on="0"/>
        <pt x="292" y="453" on="1"/>
        <pt x="292" y="526" on="1"/>
        <pt x="292" y="574" on="0"/>
        <pt x="237" y="574" on="1"/>
        <pt x="207" y="574" on="0"/>
        <pt x="183" y="550" on="0"/>
      </contour>
      <contour>
        <pt x="292" y="167" on="1"/>
        <pt x="292" y="238" on="1"/>
        <pt x="292" y="288" on="0"/>
        <pt x="183" y="288" on="0"/>
        <pt x="183" y="238" on="1"/>
        <pt x="183" y="167" on="1"/>
        <pt x="183" y="119" on="0"/>
        <pt x="292" y="119" on="0"/>
      </contour>
    </TTGlyph>
</ttFont>
